<svg width="64" height="30" viewBox="0 0 64 30" fill="none" xmlns="http://www.w3.org/2000/svg">
<path d="M0.960553 14.7487C1.1276 16.5147 2.60533 17.4256 4.23301 17.4589C8.72654 17.5497 13.2598 16.9621 17.7556 16.8346C22.2635 16.7072 26.7737 16.6414 31.2828 16.637C36.7041 16.6316 42.1547 16.937 47.5911 17.0413C48.1659 17.0523 48.3884 17.8389 47.9283 18.1836C44.4916 20.751 41.809 23.8929 41.3953 28.3004C41.3291 29.0096 42.4442 29.4861 42.6908 28.7019C43.8034 25.1654 46.7909 22.1222 50.1851 20.7183C53.6607 19.2794 57.5068 18.6921 61.1979 18.0846C63.6177 17.6855 64.4291 14.3651 62.0338 13.2338C58.5533 11.5903 54.9539 9.875 51.9203 7.47653C50.6534 6.47508 49.3084 5.41859 48.1672 4.27488C47.0362 3.14251 46.4207 1.55835 45.1233 0.570302C44.0985 -0.209417 42.8998 0.350405 42.5622 1.50579C42.0186 3.36051 43.0048 5.23386 43.8529 6.8181C44.8939 8.76327 45.9881 10.3924 47.7277 11.7978C48.3499 12.3009 47.9085 13.51 47.1124 13.4306C41.7814 12.8985 36.3865 12.701 31.0985 12.3938C26.6086 12.1337 22.1148 11.9368 17.6201 11.7914C13.01 11.643 8.27514 11.1532 3.67031 11.4749C2.05264 11.5885 0.810683 13.1615 0.960553 14.7487Z" fill="#B85ECF"/>
</svg>
