<svg width="578" height="294" viewBox="0 0 578 294" fill="none" xmlns="http://www.w3.org/2000/svg">
<path d="M350.667 10.3815C355.552 7.93883 364.102 4.47831 369.801 3.05339C375.297 1.42492 386.9 0 395.246 0C403.796 0 416.009 1.42493 422.727 3.25696C429.444 5.089 438.604 9.16016 443.083 12.01C447.561 15.0634 454.482 21.1702 458.349 25.4449C462.421 29.9232 467.917 37.8621 470.563 43.1546C474.838 51.5005 476.263 52.9254 479.723 51.7041C481.962 50.8898 487.051 49.6685 490.919 48.8542C494.787 48.04 500.69 48.04 504.15 48.8542C507.407 49.6685 513.31 53.3325 516.771 56.5895C520.435 60.05 524.303 66.3604 525.524 70.6351C526.542 74.7063 527.56 80.2024 527.56 82.8487C527.56 85.2914 529.188 87.9376 531.02 88.5483C533.056 89.159 536.109 90.5839 537.738 91.6017C539.366 92.6195 543.234 94.4515 546.287 95.4693C549.544 96.6907 551.987 98.9298 551.987 100.558C551.987 102.187 553.615 104.222 555.447 105.037C557.483 105.851 560.74 107.886 562.775 109.718C564.607 111.347 566.236 114.197 566.236 115.825C566.236 117.861 564.607 117.25 560.74 113.383C557.483 110.533 551.376 106.258 546.898 104.019C542.419 101.576 534.684 99.1334 529.595 98.5227C524.099 97.5049 515.753 98.1156 509.239 99.5405C503.133 100.965 494.583 104.426 490.308 107.072C486.237 109.515 480.13 114.807 476.67 118.472C473.413 121.932 470.156 126.614 469.545 128.65C468.731 131.499 467.713 131.703 462.828 130.074C459.774 128.853 455.093 128.242 452.243 128.853C449.393 129.464 445.322 131.906 439.011 138.217L435.347 129.667C433.312 124.782 428.63 117.25 424.966 112.772C421.302 108.294 414.381 102.39 409.292 99.7441C401.964 95.6729 397.485 94.6551 385.068 94.8587C371.837 94.8587 368.173 95.6729 358.605 100.965C352.499 104.426 343.542 111.347 338.86 116.029C334.178 120.914 328.886 126.817 327.257 129.057C325.629 131.296 322.372 138.624 320.133 145.341C317.69 152.262 315.858 161.423 316.672 175.875L326.85 170.99C335.603 166.919 339.267 166.308 350.463 167.326C358.198 167.936 366.748 170.176 371.226 172.618C375.501 175.061 378.961 177.3 378.961 177.911C378.961 178.522 373.669 178.318 367.155 177.707C360.641 176.893 351.277 177.3 345.374 178.725C339.471 180.15 330.921 184.221 314.84 196.842L307.716 188.903C303.848 184.628 297.334 180.15 293.466 179.132C289.599 177.911 282.881 176.893 271.075 176.893L273.925 170.379C275.96 165.494 276.367 161.219 274.943 154.502C273.925 149.005 271.075 143.102 267.614 139.642C262.729 134.756 261.915 131.906 261.304 120.304C260.897 111.958 258.861 103.001 256.215 96.8942C252.551 88.9554 249.905 86.3091 242.984 83.0522C236.063 79.9988 233.009 79.5917 227.31 81.2202C223.238 82.4415 218.149 86.1056 215.3 89.9732C212.653 93.4338 209.804 98.7263 208.989 101.576C208.175 104.426 206.75 107.072 206.139 107.683C205.325 108.294 203.9 111.754 202.679 115.418C201.051 121.321 199.422 122.746 190.465 125.596C184.562 127.428 177.438 131.296 174.384 134.146C171.331 136.995 167.26 142.899 161.764 155.519L159.321 149.413C158.099 146.156 157.489 140.049 157.692 136.181C158.099 132.314 159.728 126.817 161.153 123.968C162.781 121.118 165.835 117.454 168.074 115.418C170.517 113.586 171.941 111.551 171.331 110.94C170.72 110.329 167.056 109.311 163.188 108.497C157.692 107.683 154.435 108.497 148.939 112.161C145.072 114.807 139.983 120.711 137.947 124.985C135.911 129.464 134.079 136.995 133.876 141.677C133.672 146.563 133.265 150.43 132.655 150.43C132.044 150.43 130.619 149.413 129.601 148.191C128.38 146.97 121.052 146.359 110.263 146.766C96.6245 147.377 91.1284 148.598 84.0038 152.466C78.9149 155.316 74.6401 158.776 74.233 160.201C73.8259 161.423 75.658 163.051 78.1006 163.662C80.7469 164.069 88.0751 167.326 94.3854 170.786C100.899 174.043 106.192 177.707 106.192 178.929C106.192 180.15 100.696 180.964 93.9783 180.964C86.6501 180.964 77.49 182.593 70.9761 185.035C65.2764 187.275 60.1874 189.107 59.7803 189.107C59.5768 189.107 58.9661 187.071 58.559 184.628C57.9483 181.575 54.6913 178.522 48.7881 175.875C43.9027 173.636 36.371 171.804 31.8927 172.008C25.7859 172.008 22.529 170.583 18.6613 166.715C15.8115 163.865 11.1296 160.405 7.87268 158.98C4.81931 157.555 -0.0661316 156.537 -3.32309 156.537C-6.37646 156.537 -11.8726 158.369 -15.5366 160.608C-19.4043 163.051 -23.679 168.344 -26.1217 173.84C-28.5644 179.336 -29.5822 184.832 -28.9716 187.682C-27.7502 191.346 -27.9538 191.753 -30.3965 189.717C-32.0249 188.292 -39.7602 185.646 -47.4955 184.018C-55.4343 182.389 -64.5944 180.964 -67.8514 180.964C-71.3119 180.964 -75.3831 181.982 -77.0115 183C-79.6578 184.628 -79.4543 185.035 -76.6044 185.035C-74.5688 185.035 -70.9048 186.257 -68.4621 187.682C-66.0193 188.903 -61.9482 192.364 -59.5055 195.213C-57.0627 198.063 -55.0272 200.506 -55.2307 200.71C-55.4343 200.913 -60.7268 199.692 -66.8336 198.063C-72.9404 196.435 -85.3575 195.213 -94.3141 195.417C-108.563 195.621 -112.431 194.806 -124.848 189.107C-135.433 184.221 -142.965 182.186 -154.364 181.575C-163.321 180.964 -174.72 181.575 -181.845 183C-189.783 184.832 -197.112 188.089 -202.811 192.567C-207.493 196.231 -211.971 198.877 -212.989 198.267C-213.803 197.656 -213.396 193.381 -209.529 179.946L-225.203 181.168C-236.602 181.982 -243.93 183.814 -263.268 193.585L-274.464 190.124C-282.81 187.478 -289.324 186.867 -299.909 187.682C-307.848 188.292 -318.84 190.735 -324.336 192.974C-331.461 195.824 -340.214 197.045 -353.852 197.453C-364.437 197.656 -380.926 196.638 -390.493 195.417C-400.06 194.196 -414.716 191.956 -423.062 190.735C-431.408 189.514 -439.551 187.885 -440.772 187.275C-442.604 186.46 -441.993 184.018 -438.329 178.522C-435.48 174.247 -431.612 170.583 -429.78 170.583C-427.744 170.379 -412.477 170.176 -395.582 169.972C-365.349 169.769 -364.847 169.566 -345.894 161.904L-345.71 161.83C-335.125 157.555 -322.301 152.873 -317.212 151.245C-312.123 149.82 -302.148 148.395 -294.82 148.395C-285.253 148.395 -278.739 149.82 -271.411 153.077C-265.915 155.723 -259.808 159.591 -258.179 161.83C-256.551 164.272 -253.701 166.512 -252.073 167.122C-250.241 167.529 -246.78 165.29 -243.93 161.83C-241.08 158.573 -235.788 154.705 -232.327 153.077C-228.663 151.652 -221.335 150.43 -216.043 150.43C-210.546 150.43 -202.404 152.262 -188.969 158.573L-180.42 150.837C-175.534 146.563 -167.188 140.863 -161.489 138.217C-153.55 134.349 -148.054 133.128 -137.062 133.128C-126.069 133.128 -120.777 134.146 -113.652 137.81C-108.563 140.456 -101.642 145.545 -97.9781 149.005C-94.5177 152.67 -91.2607 154.705 -90.8536 153.484C-90.65 152.262 -86.5788 149.005 -82.1005 145.952C-77.6222 142.899 -69.0728 138.42 -63.3731 136.181C-57.4698 133.942 -47.2919 131.499 -40.9816 130.889C-33.2463 130.278 -25.7146 130.889 -18.9971 132.924C-13.501 134.553 -7.39426 135.367 -5.76578 134.553C-3.32306 133.535 -3.11951 133.942 -4.74799 136.181C-6.17291 138.42 -6.17288 138.827 -4.1373 137.81C-2.91595 136.792 -1.69461 133.739 -1.69461 130.685C-1.69461 127.428 -0.676819 123.357 0.748108 121.525C2.17303 119.489 7.05844 116.639 11.5368 115.011C16.0151 113.383 20.4933 112.568 21.5112 113.383C22.529 114.197 22.529 111.754 21.5112 107.683C20.4933 103.815 19.8827 97.3013 19.8827 93.4337C19.8827 89.5661 20.4934 82.8487 21.3076 78.7775C22.1219 74.2992 25.7859 67.5817 29.8571 62.8998C33.7247 58.4215 37.3888 55.3682 37.9995 56.386C38.6101 57.2002 39.4244 56.1824 40.0351 54.3504C40.6458 52.3148 41.8671 51.0934 43.0885 51.7041C44.1063 52.3147 45.1241 51.9076 45.1241 50.6863C45.1241 49.4649 46.549 49.0578 48.1774 49.6685C49.8059 50.2791 51.2308 50.0756 51.2308 49.2614C51.2308 48.2436 52.8593 47.4293 54.6913 47.2258C56.7269 47.0222 63.2408 46.6151 69.144 46.208C75.2509 45.8009 80.5433 46.208 80.9505 47.2258C81.3576 48.04 83.3932 48.6507 85.2252 48.6507C87.2608 48.6507 94.3854 51.0934 101.103 53.9432C107.82 56.7931 114.538 59.6429 116.166 60.4571C117.591 61.2714 118.609 61.0678 118.405 59.8464C117.998 58.6251 118.813 54.961 120.237 51.7041C121.662 48.4471 125.123 43.1546 128.176 39.8976C131.23 36.8442 136.929 33.3837 140.797 32.1623C144.665 30.941 150.568 30.5339 154.028 31.1446C157.285 31.9588 163.596 35.0122 167.667 38.0656C171.942 41.119 174.588 44.376 173.774 45.1902C172.959 46.208 173.977 46.4115 175.809 45.8008C177.845 45.1902 179.88 42.951 180.491 41.119C180.898 39.0834 184.155 35.0122 187.616 31.9588C190.872 28.7019 197.183 24.2236 201.254 21.7809C207.157 18.5239 212.653 17.5061 224.256 17.3025C236.877 17.099 241.559 18.1168 250.719 22.5951C257.436 25.6485 264.561 31.3481 268.429 36.2335C272.093 40.9154 275.146 45.1902 275.146 46.208C275.146 47.0222 276.367 49.4649 277.996 51.7041C280.846 55.7752 281.049 55.7753 285.731 51.297C288.377 48.8543 293.67 46.208 297.538 45.8008C302.016 44.9866 306.291 45.8008 308.733 47.6329C310.972 49.2613 313.619 50.6863 314.84 50.6863C315.858 50.6863 319.115 46.2079 321.965 40.3047C324.815 34.6051 330.311 26.6663 334.382 22.5951C338.453 18.3204 345.781 13.0278 350.667 10.3815Z" fill="#FBFBFB"/>
<path d="M243.612 83.2559C239.133 81.2203 234.452 79.3883 233.434 79.3883C232.212 79.3883 228.345 80.8132 224.884 82.2381C221.424 83.663 216.742 87.5307 214.503 90.7876C212.264 94.0446 209.821 98.93 209.007 101.78C207.989 104.426 206.768 107.276 205.953 107.887C205.139 108.294 203.714 111.958 202.696 115.622C201.068 121.322 199.236 122.95 190.279 125.8C184.58 127.632 177.455 131.499 174.198 134.349C171.145 136.996 167.073 143.102 165.241 147.581L161.577 155.723C158.117 146.156 157.303 140.253 157.71 136.385C158.117 132.314 159.542 126.818 161.17 124.171C162.595 121.322 165.852 117.454 168.091 115.622C170.33 113.79 171.755 111.754 171.348 111.144C170.737 110.533 166.666 109.312 162.392 108.701C155.878 107.683 153.231 108.497 148.142 112.365C144.682 115.011 140 120.711 137.964 125.189C135.725 129.667 133.893 137.199 133.893 141.881C133.69 146.766 133.079 150.634 132.672 150.634C132.061 150.634 130.636 149.616 129.619 148.395C128.194 146.97 121.069 146.563 110.28 146.97C96.6419 147.581 90.9423 148.802 83.8177 152.67C78.9323 155.519 74.6575 158.776 74.2504 160.201C73.8433 161.626 75.6753 163.255 78.118 163.662C80.5607 164.273 87.8889 167.529 94.4028 170.786C100.917 174.247 106.209 177.911 106.209 179.132C106.209 180.15 100.713 181.168 93.9956 181.168C86.6675 181.168 77.3038 182.796 70.9935 185.239C65.0902 187.478 60.0013 189.31 59.7977 189.31C59.5941 189.31 58.9834 187.275 58.3727 184.629C57.7621 181.575 54.5051 178.725 48.8055 176.079C43.92 173.84 36.3883 172.008 31.91 172.008C25.8033 172.008 22.3427 170.786 18.6787 166.919C15.8289 164.069 10.9435 160.609 7.89005 159.184C4.83667 157.759 -0.252319 156.741 -3.30569 156.741C-6.3591 156.741 -11.8552 158.573 -15.5193 160.812C-19.3869 163.255 -23.6617 168.547 -26.1044 174.043C-28.7506 179.539 -29.7684 185.036 -28.9542 187.682C-27.9364 191.55 -28.14 191.957 -30.3791 189.717C-32.0076 188.496 -39.7429 185.85 -47.4781 184.221C-55.4169 182.593 -64.5771 181.168 -67.834 181.168C-71.2946 181.168 -75.3657 181.982 -76.9942 183.204C-79.6405 184.832 -79.6404 185.036 -76.5871 185.239C-74.5515 185.239 -71.091 186.257 -68.6483 187.682C-66.2055 189.107 -62.1344 192.567 -59.4881 195.417C-57.0454 198.063 -55.2133 200.71 -55.4169 200.913C-55.6205 201.117 -60.7095 199.895 -66.8162 198.267C-73.1266 196.638 -85.3401 195.417 -94.2968 195.621C-108.749 195.621 -112.414 195.01 -124.831 189.107C-135.416 184.425 -143.151 182.389 -154.347 181.575C-163.303 180.964 -174.703 181.779 -181.827 183.204C-189.766 185.036 -197.094 188.293 -202.794 192.567C-207.476 196.435 -212.158 198.878 -212.972 198.471C-213.786 197.86 -213.379 193.382 -211.954 188.7L-209.511 180.15C-236.585 182.186 -243.913 184.018 -252.055 188.089L-263.251 193.789C-282.793 187.478 -289.307 186.868 -299.892 187.885C-307.83 188.496 -318.823 190.939 -324.319 192.974C-331.24 195.824 -340.4 197.249 -352.817 197.453C-362.995 197.86 -380.298 196.842 -391.493 195.417C-402.689 193.992 -418.77 191.753 -427.116 190.125C-435.666 188.7 -442.79 187.885 -442.994 188.293C-443.197 188.496 -438.312 190.532 -431.798 192.364C-425.284 194.196 -410.424 197.86 -398.618 200.506C-387.015 203.152 -366.863 206.816 -353.835 208.648C-337.143 211.091 -322.283 211.905 -301.927 211.091C-274.65 210.277 -273.022 210.48 -263.251 215.366C-257.755 218.012 -248.595 221.676 -242.895 223.101C-237.399 224.526 -228.035 225.951 -222.132 225.951C-216.229 225.951 -207.069 224.526 -201.776 222.694C-192.616 219.641 -192.005 219.641 -190.173 223.101C-189.155 225.137 -184.881 230.429 -181.013 234.704C-176.942 238.979 -170.632 243.457 -166.56 244.678C-162.693 245.9 -155.365 246.714 -150.276 246.714C-144.169 246.578 -136.705 244.204 -127.884 239.59L-114.653 232.668C-79.2334 252.821 -77.1978 253.432 -63.7628 253.432C-52.7706 253.228 -47.2745 252.21 -39.5393 248.343C-34.0432 245.493 -26.3079 239.997 -22.6438 236.129C-18.7762 232.058 -13.8908 225.544 -11.6516 221.269C-7.78403 213.737 -7.784 213.737 -1.27011 216.587C2.39395 218.012 9.11139 220.048 13.5897 220.658C18.068 221.473 26.8211 221.066 33.335 219.844C39.8489 218.826 49.009 215.977 53.6909 213.737C58.3728 211.498 62.6475 209.666 62.8511 209.666C63.0546 209.666 63.8689 212.516 64.6831 216.18C65.2938 219.844 67.94 226.562 70.3828 231.04C73.029 235.518 78.7287 241.625 83.0034 244.475C87.2782 247.528 95.8276 251.396 102.138 253.228C108.245 255.06 120.051 256.485 128.601 256.485C136.947 256.281 149.364 254.856 156.081 253.228C162.799 251.396 173.18 247.121 179.491 243.864C185.597 240.404 192.722 235.925 195.165 233.686C199.643 230.022 199.846 230.022 209.414 235.111C217.963 239.793 221.017 240.404 234.452 239.59C242.797 239.182 251.143 238.165 253.179 237.35C256.029 236.333 257.657 237.961 260.507 244.678C262.543 249.564 267.428 256.892 271.092 261.37C274.96 265.645 282.899 272.363 288.802 276.027C294.705 279.894 306.308 285.187 314.857 288.037C325.85 291.701 334.399 293.126 345.799 293.126C354.552 293.126 366.562 291.701 372.872 289.869C378.979 288.037 389.564 283.558 396.281 279.894C402.999 276.23 413.177 268.291 418.876 262.185C424.78 256.078 430.479 247.732 432.108 242.846C434.55 235.111 435.365 234.501 439.029 236.536C441.268 237.554 449.41 238.368 457.349 237.961C468.545 237.35 473.634 235.925 479.741 231.854C484.83 228.597 489.511 223.101 492.361 217.198C494.804 211.905 497.043 204.781 497.043 201.524C497.043 198.063 497.247 195.417 497.45 195.417C497.654 195.214 501.114 196.842 505.185 198.674C510.274 201.117 515.567 201.727 524.524 201.117C531.241 200.506 541.215 198.063 546.915 195.621C552.411 193.178 559.536 188.7 562.589 185.646C565.846 182.593 570.324 175.061 572.564 168.954C575.413 161.626 576.838 152.466 577.042 142.492C577.042 130.889 576.024 124.986 572.971 118.065C570.528 112.976 565.643 105.851 561.775 102.39C558.111 98.93 551.393 94.0446 546.915 91.8054C542.437 89.5663 535.923 86.92 532.666 86.1057C527.984 85.0879 526.966 85.2915 527.984 87.1235C528.798 88.3449 531.038 89.5663 533.073 89.3627C535.109 89.3627 537.958 90.7876 539.791 92.4161C541.419 94.2481 544.88 96.0802 547.322 96.6908C549.765 97.3015 552.004 98.93 552.004 100.762C552.004 102.391 553.429 104.426 555.465 105.24C557.5 106.055 560.757 108.09 562.589 109.719C564.625 111.551 566.253 114.197 566.253 116.029C566.253 118.065 564.625 117.454 560.554 113.586C557.5 110.533 551.393 106.258 546.915 104.019C542.437 101.78 534.498 99.3371 529.613 98.5229C524.117 97.7086 515.771 98.3193 509.257 99.7442C502.946 101.169 494.6 104.426 490.326 107.072C486.051 109.719 479.944 114.808 476.687 118.472C473.227 122.136 470.173 126.818 469.563 128.65C468.545 131.703 467.527 131.907 462.845 130.075C459.792 129.057 454.906 128.446 452.26 129.057C449.41 129.667 445.339 132.11 443.1 134.349L439.029 138.421C433.125 124.986 428.647 117.454 424.983 112.976C421.319 108.497 414.194 102.594 409.309 99.7442C401.981 95.8766 397.503 94.8588 385.085 94.8588C371.854 95.0624 368.19 95.8766 358.623 101.169C352.312 104.63 343.559 111.347 338.674 116.233C333.992 121.118 328.903 127.021 327.275 129.26C325.646 131.499 322.389 138.828 319.946 145.545C317.504 152.466 315.875 161.626 316.079 166.919L316.486 176.079C335.621 167.122 339.285 166.512 350.48 167.326C358.216 168.14 366.765 170.176 371.243 172.822C375.518 175.061 378.979 177.504 378.979 178.115C378.979 178.522 373.686 178.522 367.172 177.707C360.455 177.097 351.091 177.504 345.391 178.929C339.285 180.354 330.939 184.425 325.035 189.107L314.857 196.842C303.662 184.832 297.351 180.354 293.484 179.132C289.413 178.115 282.899 177.097 278.624 177.097H271.092C275.978 165.494 276.181 161.423 274.96 154.705C273.942 149.006 270.889 143.306 267.632 139.845C262.746 134.756 261.729 132.11 261.118 120.507C260.711 111.958 258.879 103.001 256.029 96.8944C252.772 89.5663 249.719 86.3093 243.612 83.2559Z" fill="#CA47AD"/>
<path d="M-383.351 170.379C-377.855 169.972 -381.926 169.565 -392.511 169.565C-403.3 169.565 -407.778 169.972 -402.689 170.379C-397.804 170.786 -389.051 170.786 -383.351 170.379Z" fill="#CA47AD"/>
</svg>
