<svg width="82" height="16" viewBox="0 0 82 16" fill="none" xmlns="http://www.w3.org/2000/svg">
<path d="M16 10.04V9.20401C16 9.12667 15.9254 9.07068 15.852 9.09202L11.904 10.2333C11.8827 10.2387 11.864 10.2507 11.8493 10.2667C11.4265 10.7338 11.0671 11.0472 10.9719 11.1302L10.9653 11.136C10.72 11.344 10.416 11.4574 10.096 11.4574H8.66666V10H9.80268C9.832 10 9.86001 9.98934 9.88134 9.97068L10.028 9.836C10.0907 9.77866 10.1653 9.70934 10.2547 9.62C10.2623 9.6124 10.27 9.60472 10.2778 9.59694C10.3247 9.55018 10.3749 9.50021 10.424 9.44535C10.4827 9.38801 10.54 9.32401 10.5933 9.26135C10.6827 9.16534 10.768 9.06534 10.8573 8.96001C10.9213 8.89068 10.98 8.81201 11.0373 8.73334C11.1013 8.65867 11.164 8.57468 11.2227 8.49468C11.2445 8.46259 11.2678 8.43015 11.2915 8.39701C11.3141 8.36542 11.3372 8.33319 11.36 8.30002C11.4027 8.23601 11.4453 8.16801 11.4813 8.104C11.5933 7.93067 11.688 7.74533 11.768 7.56C11.8047 7.48062 11.8341 7.39704 11.8626 7.31579C11.8662 7.3056 11.8698 7.29545 11.8733 7.28535C11.9053 7.19066 11.932 7.10135 11.952 7.00666C12 6.78399 12.0107 6.56267 11.9893 6.34132C11.984 6.272 11.9787 6.204 11.9627 6.14002V6.12935C11.9573 6.084 11.9467 6.03334 11.932 5.98667C11.884 5.77067 11.8093 5.55467 11.7147 5.34267C11.6827 5.264 11.6453 5.184 11.6093 5.11068C11.524 4.95201 11.4347 4.79332 11.3333 4.64001C11.313 4.60762 11.2905 4.57481 11.2681 4.54206C11.2508 4.51682 11.2336 4.49162 11.2173 4.46668C11.1532 4.3677 11.081 4.27228 11.011 4.17969C10.9952 4.15876 10.9795 4.13799 10.964 4.11734C10.9227 4.06308 10.8774 4.00882 10.8319 3.9542C10.8069 3.92426 10.7819 3.89421 10.7573 3.86399C10.688 3.78 10.62 3.70001 10.5507 3.62134C10.3027 3.34133 10.0427 3.08801 9.81067 2.87201C9.768 2.82934 9.72133 2.78667 9.67334 2.74535C9.49334 2.58133 9.32933 2.43866 9.192 2.32801C9.15074 2.29627 9.11373 2.265 9.07928 2.23589C9.05585 2.21608 9.03359 2.19728 9.012 2.18001C8.97038 2.14899 8.93426 2.12147 8.90393 2.09837C8.88471 2.08373 8.86782 2.07086 8.85333 2.06C8.84267 2.052 8.83067 2.04668 8.81868 2.04266L8.66666 2.00001V0.741336C8.66666 0.536003 8.58399 0.352006 8.45201 0.217324C8.32 0.0826675 8.13601 0 7.93335 0C7.528 0 7.20001 0.331994 7.20001 0.741336V1.58932L7.12401 1.56801L6.91733 1.50933L6.72933 1.45734C6.72933 1.45734 6.72666 1.45599 6.72401 1.45599H6.72001L5.29333 1.06933C5.23067 1.05199 5.17733 1.12 5.20934 1.17733L5.43733 1.59867C5.45028 1.63105 5.46668 1.66343 5.48353 1.69671C5.49443 1.71824 5.50553 1.74015 5.516 1.76268C5.55335 1.83732 5.59067 1.916 5.62667 1.99467C5.65867 2.06399 5.69068 2.132 5.728 2.20667C5.7437 2.24177 5.7597 2.2773 5.77592 2.31334C5.83552 2.44567 5.89818 2.58482 5.95999 2.73468C6.01333 2.86134 6.06667 2.988 6.11333 3.12001C6.24135 3.452 6.36266 3.80666 6.46801 4.17068C6.49423 4.25215 6.51518 4.33098 6.53642 4.41089C6.54542 4.44475 6.55447 4.47881 6.564 4.51334L6.57866 4.57732C6.62133 4.74668 6.65868 4.91467 6.68534 5.084C6.70667 5.19999 6.72666 5.31066 6.73733 5.42266C6.75334 5.54932 6.76933 5.67601 6.77468 5.80267C6.78534 5.91867 6.79066 6.04001 6.79066 6.156C6.79066 6.452 6.76401 6.73732 6.70133 7.00666C6.6974 7.02114 6.69347 7.0358 6.68952 7.05058C6.67197 7.11611 6.65377 7.18405 6.632 7.24934C6.61231 7.31926 6.58679 7.38917 6.56029 7.46177C6.55091 7.48747 6.54141 7.5135 6.53199 7.53999C6.53024 7.54471 6.52849 7.54943 6.52673 7.55416C6.50712 7.60697 6.48716 7.66073 6.46267 7.71335C6.33066 8.03068 6.16667 8.34668 5.99734 8.64268C5.74934 9.08135 5.50001 9.46668 5.32533 9.71469C5.31465 9.73072 5.30422 9.74596 5.29418 9.76064C5.28167 9.77892 5.26976 9.79633 5.25868 9.81334C5.20402 9.89066 5.26 10 5.35466 10H7.20001V11.4574H5.33332C4.832 11.4574 4.36799 11.1733 4.144 10.7187C4.02801 10.4907 3.98266 10.24 4.00934 9.99467C4.01599 9.92134 3.96133 9.85201 3.88668 9.85201H0.115994C0.0519883 9.85201 0 9.904 0 9.96801V10.0453C0 12.4507 1.94268 14.4 4.33999 14.4H11.104C12.3719 14.4 13.0919 13.2446 13.7995 12.109C13.9968 11.7924 14.1931 11.4774 14.4 11.1893C14.772 10.672 15.6667 10.2613 15.928 10.1493C15.9707 10.1307 16 10.088 16 10.04Z" fill="#717A8C"/>
<path d="M1.00813 8.13364L0.952145 8.22165C0.902804 8.29765 0.957466 8.39898 1.0508 8.39898H4.52279C4.56147 8.39898 4.59747 8.38031 4.6188 8.34831C4.66414 8.27899 4.70682 8.20699 4.74546 8.13364C5.04548 7.62964 5.31215 7.08431 5.40948 6.68164C5.63747 5.70297 5.15081 4.13096 4.5868 2.86696C4.54947 2.78297 4.43348 2.77498 4.38414 2.8523L1.00813 8.13364Z" fill="#717A8C"/>
<path fill-rule="evenodd" clip-rule="evenodd" d="M26.1476 7.4648C26.1191 7.53356 26.1044 7.60729 26.1044 7.68175H26.1046V11.2151C26.1045 11.3309 26.0618 11.4425 25.9848 11.5288C25.9077 11.6151 25.8016 11.67 25.6867 11.6831C25.4226 11.7141 25.2005 11.7363 25.0221 11.752C24.8624 11.7663 24.7019 11.7347 24.5596 11.6609C24.4172 11.5871 24.2989 11.4742 24.2184 11.3355C23.635 10.3212 23.3297 9.17086 23.3334 8.0007C23.333 4.30273 26.3877 1.28443 30.0839 1.3341C31.4546 1.353 32.7861 1.79496 33.8961 2.59956C35.0062 3.40415 35.8408 4.53211 36.2857 5.8292C36.3366 5.9775 36.3501 6.13612 36.3249 6.29089C36.2997 6.44567 36.2365 6.59179 36.1411 6.71622C35.4836 7.57346 34.655 8.28642 33.8374 8.87914V4.85537C33.8374 4.70524 33.7777 4.56127 33.6716 4.45512C33.5655 4.34897 33.4216 4.28934 33.2715 4.28934H32.3285C32.2542 4.28934 32.1806 4.30398 32.1119 4.33242C32.0433 4.36087 31.9809 4.40256 31.9284 4.45512C31.8758 4.50769 31.8342 4.57008 31.8057 4.63876C31.7773 4.70743 31.7627 4.78104 31.7627 4.85537V9.74188C31.7626 9.83467 31.7352 9.92538 31.6839 10.0027C31.6327 10.08 31.5598 10.1405 31.4743 10.1767C31.2443 10.2738 31.0083 10.3694 31.0083 10.3694V6.27056C31.0082 6.12044 30.9486 5.97648 30.8425 5.87034C30.7364 5.76419 30.5925 5.70455 30.4424 5.70452H29.4994C29.4251 5.70453 29.3515 5.71918 29.2828 5.74763C29.2142 5.77609 29.1518 5.8178 29.0993 5.87037C29.0467 5.92294 29.005 5.98535 28.9766 6.05404C28.9482 6.12273 28.9335 6.19635 28.9335 6.27069V10.6868C28.9335 10.7931 28.8976 10.8962 28.8316 10.9796C28.7656 11.0629 28.6735 11.1215 28.57 11.1458C28.4211 11.1808 28.2851 11.2143 28.1791 11.2457V7.68552C28.1791 7.5354 28.1195 7.39142 28.0134 7.28527C27.9072 7.17912 27.7633 7.11949 27.6132 7.11949L26.6721 7.1164C26.5976 7.11605 26.5239 7.13042 26.455 7.15868C26.3861 7.18693 26.3235 7.22852 26.2708 7.28106C26.218 7.33359 26.1762 7.39603 26.1476 7.4648ZM26.084 13.3916C26.084 13.3915 26.0839 13.3915 26.0839 13.3915L26.0838 13.3916C26.0839 13.3916 26.084 13.3916 26.084 13.3916ZM26.084 13.3916C27.078 14.1149 28.2527 14.5491 29.4781 14.6461C30.7035 14.7431 31.9318 14.4991 33.0272 13.941C34.1226 13.383 35.0424 12.5327 35.6847 11.4843C36.327 10.4358 36.6669 9.23004 36.6667 8.00035C36.6667 7.84685 36.6595 7.69507 36.6493 7.54411C34.2147 11.1762 29.7196 12.8743 26.084 13.3916Z" fill="#717A8C"/>
<g clip-path="url(#clip0_2208_2790)">
<path d="M55.507 5.66719C55.2578 5.52478 54.9373 5.52478 54.6525 5.66719L52.6587 6.84212L51.3057 7.5898L49.3475 8.76472C49.0983 8.90714 48.7779 8.90714 48.493 8.76472L46.9621 7.83902C46.7128 7.69661 46.5348 7.41178 46.5348 7.09134V5.31115C46.5348 5.02632 46.6772 4.74149 46.9621 4.56347L48.493 3.67338C48.7423 3.53096 49.0627 3.53096 49.3475 3.67338L50.8785 4.59908C51.1277 4.74149 51.3057 5.02632 51.3057 5.34676V6.52168L52.6587 5.7384V4.52787C52.6587 4.24304 52.5163 3.95821 52.2314 3.78019L49.3831 2.10681C49.1339 1.9644 48.8135 1.9644 48.5286 2.10681L45.6091 3.81579C45.3243 3.95821 45.1819 4.24304 45.1819 4.52787V7.87463C45.1819 8.15946 45.3243 8.44429 45.6091 8.62231L48.493 10.2957C48.7423 10.4381 49.0627 10.4381 49.3475 10.2957L51.3057 9.15636L52.6587 8.37308L54.6169 7.23376C54.8661 7.09134 55.1866 7.09134 55.4714 7.23376L57.0023 8.12385C57.2516 8.26627 57.4296 8.5511 57.4296 8.87153V10.6517C57.4296 10.9366 57.2872 11.2214 57.0023 11.3994L55.507 12.2895C55.2578 12.4319 54.9373 12.4319 54.6525 12.2895L53.1215 11.3994C52.8723 11.257 52.6943 10.9722 52.6943 10.6517V9.5124L51.3413 10.2957V11.4706C51.3413 11.7554 51.4838 12.0403 51.7686 12.2183L54.6525 13.8917C54.9017 14.0341 55.2222 14.0341 55.507 13.8917L58.3909 12.2183C58.6401 12.0759 58.8181 11.791 58.8181 11.4706V8.08825C58.8181 7.80342 58.6757 7.51859 58.3909 7.34057L55.507 5.66719Z" fill="#717A8C"/>
</g>
<path d="M81.3327 3.70129C80.7928 3.94103 80.213 4.10236 79.6043 4.17512C80.2259 3.80283 80.7026 3.21336 80.9271 2.51052C80.3461 2.85517 79.7019 3.10562 79.016 3.241C78.4671 2.65605 77.6853 2.29053 76.82 2.29053C75.1582 2.29053 73.8112 3.63812 73.8112 5.29934C73.8112 5.53512 73.8383 5.76527 73.889 5.98469C71.3885 5.85947 69.1716 4.66136 67.687 2.84051C67.4286 3.285 67.2803 3.8017 67.2803 4.35394C67.2803 5.39749 67.8111 6.31863 68.6183 6.85789C68.1253 6.8421 67.661 6.70672 67.2554 6.48165C67.2554 6.49462 67.2554 6.50647 67.2554 6.51944C67.2554 7.97759 68.2922 9.19375 69.6692 9.46959C69.417 9.5384 69.1508 9.57507 68.8761 9.57507C68.6826 9.57507 68.4936 9.55589 68.3103 9.52148C68.6933 10.7168 69.8045 11.5871 71.1211 11.6114C70.0916 12.4186 68.7943 12.8998 67.3841 12.8998C67.1415 12.8998 66.9018 12.8857 66.666 12.8575C67.9978 13.7109 69.5789 14.209 71.2785 14.209C76.8132 14.209 79.839 9.62414 79.839 5.64794C79.839 5.51763 79.8361 5.3879 79.8305 5.25872C80.4188 4.83397 80.9293 4.3043 81.3327 3.70129Z" fill="#717A8C"/>
<defs>
<clipPath id="clip0_2208_2790">
<rect width="16" height="16" fill="white" transform="translate(44)"/>
</clipPath>
</defs>
</svg>
