<svg width="24" height="24" viewBox="0 0 24 24" fill="none" xmlns="http://www.w3.org/2000/svg">
<path fill-rule="evenodd" clip-rule="evenodd" d="M14.2686 4.62142C13.0722 3.23883 10.9278 3.23882 9.73143 4.62142L9.19876 5.23699L8.38682 5.17837C6.56321 5.04671 5.04692 6.56299 5.17858 8.38661L5.2372 9.19854L4.62163 9.73122C3.23904 10.9276 3.23904 13.072 4.62163 14.2684L5.2372 14.801L5.17858 15.613C5.04692 17.4366 6.56321 18.9529 8.38683 18.8212L9.19876 18.7626L9.73143 19.3782C10.9278 20.7607 13.0722 20.7607 14.2686 19.3782L14.8012 18.7626L15.6132 18.8212C17.4368 18.9529 18.9531 17.4366 18.8214 15.613L18.7628 14.801L19.3784 14.2684C20.761 13.072 20.761 10.9276 19.3784 9.73122L18.7628 9.19854L18.8214 8.38661C18.9531 6.56299 17.4368 5.04671 15.6132 5.17837L14.8012 5.23699L14.2686 4.62142ZM15.6961 10.7177C16.0926 10.3332 16.1024 9.70013 15.7179 9.30364C15.3334 8.90716 14.7003 8.89742 14.3039 9.28189L10.875 12.6068L9.69615 11.4637C9.29966 11.0792 8.66657 11.089 8.2821 11.4855C7.89763 11.8819 7.90737 12.515 8.30385 12.8995L10.1789 14.7177C10.5667 15.0938 11.1833 15.0938 11.5711 14.7177L15.6961 10.7177Z" fill="url(#paint0_linear_2016_4754)"/>
<defs>
<linearGradient id="paint0_linear_2016_4754" x1="3.58469" y1="11.9998" x2="20.4153" y2="11.9998" gradientUnits="userSpaceOnUse">
<stop stop-color="#EC008C"/>
<stop offset="1" stop-color="#FC6767"/>
</linearGradient>
</defs>
</svg>
