<svg width="18" height="18" viewBox="0 0 18 18" fill="none" xmlns="http://www.w3.org/2000/svg">
<path d="M9.00024 11.7142C10.4993 11.7142 11.7145 10.499 11.7145 8.99993C11.7145 7.50087 10.4993 6.28564 9.00024 6.28564C7.50118 6.28564 6.28595 7.50087 6.28595 8.99993C6.28595 10.499 7.50118 11.7142 9.00024 11.7142Z" fill="#0677FD"/>
<path d="M12.3923 0.857178H5.60659C2.98798 0.857178 0.857269 2.98857 0.857269 5.60786V12.3936C0.857269 15.0122 2.98866 17.1429 5.60795 17.1429H12.3937C15.0123 17.1429 17.143 15.0115 17.143 12.3922V5.6065C17.143 2.98789 15.0116 0.857178 12.3923 0.857178ZM9.00013 13.0715C6.75473 13.0715 4.9287 11.2454 4.9287 9.00003C4.9287 6.75464 6.75473 4.92861 9.00013 4.92861C11.2455 4.92861 13.0716 6.75464 13.0716 9.00003C13.0716 11.2454 11.2455 13.0715 9.00013 13.0715ZM13.7501 4.92861C13.3756 4.92861 13.0716 4.62461 13.0716 4.25003C13.0716 3.87546 13.3756 3.57146 13.7501 3.57146C14.1247 3.57146 14.4287 3.87546 14.4287 4.25003C14.4287 4.62461 14.1247 4.92861 13.7501 4.92861Z" fill="#0677FD"/>
</svg>
