<svg width="732" height="953" viewBox="0 0 732 953" fill="none" xmlns="http://www.w3.org/2000/svg">
<mask id="mask0_2303_631" style="mask-type:luminance" maskUnits="userSpaceOnUse" x="0" y="0" width="953" height="953">
<path d="M604.06 952.56L952.56 348.94L348.94 0.440144L0.440077 604.06L604.06 952.56Z" fill="white"/>
</mask>
<g mask="url(#mask0_2303_631)">
<g filter="url(#filter0_f_2303_631)">
<path d="M556.594 800.407L828.859 328.829L454.238 112.541L181.972 584.119L556.594 800.407Z" fill="#18A0FB"/>
<path d="M598.775 913.795L841.418 493.524L518.859 307.295L276.216 727.565L598.775 913.795Z" fill="#FF5742"/>
<path d="M466.763 1061.42L735.544 595.878L382.049 391.788L113.268 857.329L466.763 1061.42Z" fill="#EE46D3"/>
<path d="M350.596 720.71L541.617 389.851L226.981 208.195L35.9591 539.054L350.596 720.71Z" fill="#00C5DF"/>
</g>
</g>
<defs>
<filter id="filter0_f_2303_631" x="-246.853" y="-170.271" width="1371.08" height="1514.5" filterUnits="userSpaceOnUse" color-interpolation-filters="sRGB">
<feFlood flood-opacity="0" result="BackgroundImageFix"/>
<feBlend mode="normal" in="SourceGraphic" in2="BackgroundImageFix" result="shape"/>
<feGaussianBlur stdDeviation="141.406" result="effect1_foregroundBlur_2303_631"/>
</filter>
</defs>
</svg>
