<svg width="198" height="46" viewBox="0 0 198 46" fill="none" xmlns="http://www.w3.org/2000/svg">
<path d="M57.5162 34.2099V16.7707H62.6032V18.771C62.8114 18.3851 63.0957 18.0348 63.4816 17.7201C63.8674 17.4053 64.2888 17.1565 64.7457 16.9128C65.2026 16.7047 65.6596 16.527 66.1825 16.4204C66.6749 16.3138 67.1674 16.2427 67.6193 16.2427C68.8834 16.2427 69.9343 16.4864 70.8126 16.9433C71.6909 17.4358 72.3205 18.1008 72.7774 18.9791C73.4425 17.9993 74.2142 17.2936 75.0925 16.8722C75.9708 16.4508 76.9862 16.2427 78.1793 16.2427C78.9865 16.2427 79.7937 16.3493 80.6009 16.593C81.3726 16.8367 82.0732 17.2581 82.6723 17.7861C83.2663 18.3141 83.7232 19.0147 84.1091 19.8574C84.4594 20.7002 84.6371 21.7156 84.6371 22.9087V34.2048H79.4789V24.1018C79.4789 23.2945 79.2708 22.5939 78.8139 21.9948C78.3569 21.4313 77.6563 21.1521 76.7069 21.1521C75.7576 21.1521 75.0214 21.4668 74.534 22.0659C74.0416 22.6599 73.7979 23.3656 73.7979 24.1373V34.2048H68.5331V24.1018C68.5331 23.2945 68.3249 22.5939 67.868 21.9948C67.4111 21.4313 66.7105 21.1521 65.7256 21.1521C64.7762 21.1521 64.0756 21.4668 63.5831 22.0659C63.0906 22.6599 62.8469 23.3656 62.8469 24.1728V34.2048H57.5162V34.2099Z" fill="white"/>
<path d="M88.9118 10.2113C89.0895 9.82547 89.2976 9.5107 89.5769 9.2264C89.8561 8.94717 90.1759 8.73394 90.5618 8.56132C90.9476 8.38363 91.3335 8.31763 91.7549 8.31763C92.6332 8.31763 93.4049 8.6324 93.9989 9.23147C94.5929 9.83055 94.9127 10.5667 94.9127 11.4399C94.9127 12.3132 94.5979 13.0544 93.9989 13.6484C93.3998 14.2424 92.6332 14.5622 91.7549 14.5622C91.3335 14.5622 90.9476 14.4912 90.5618 14.3186C90.1759 14.1409 89.8612 13.9327 89.5769 13.6535C89.2976 13.3742 89.0844 13.0239 88.9118 12.6381C88.7341 12.2522 88.6681 11.8664 88.6681 11.445C88.6681 11.0185 88.7392 10.5972 88.9118 10.2113ZM89.125 34.2099V16.7707H94.4558V34.2099H89.125Z" fill="white"/>
<path d="M104.457 34.2099H99.1266V16.7706H104.285V18.771C104.528 18.3496 104.813 17.9993 105.199 17.6845C105.584 17.3697 105.97 17.121 106.427 16.9128C106.849 16.7351 107.306 16.5625 107.798 16.4559C108.255 16.3493 108.712 16.3137 109.169 16.3137C110.255 16.3137 111.205 16.4914 112.012 16.8417C112.819 17.2276 113.484 17.72 114.012 18.3496C114.54 18.9791 114.926 19.7203 115.17 20.558C115.413 21.4008 115.52 22.3146 115.52 23.259V34.2048H110.189V24.1728C110.189 23.2945 109.981 22.5939 109.524 21.9999C109.067 21.4363 108.331 21.1571 107.351 21.1571C106.473 21.1571 105.772 21.4363 105.244 21.9999C104.716 22.5939 104.473 23.3351 104.473 24.2083V34.2099H104.457Z" fill="white"/>
<path d="M126.385 16.7707H129.786V21.4364H126.385V27.9602C126.385 28.6964 126.562 29.1533 126.913 29.397C127.263 29.6407 127.72 29.7828 128.314 29.7828C128.593 29.7828 128.878 29.7473 129.121 29.7117C129.365 29.6762 129.543 29.6407 129.715 29.6051V34.0271C129.609 34.0627 129.329 34.1693 128.872 34.3064C128.416 34.4485 127.786 34.5196 126.943 34.5196C125.121 34.5196 123.679 34.0271 122.663 33.0117C121.648 32.0319 121.12 30.6611 121.12 28.9045V21.4364H118.033V16.7707H118.912C119.825 16.7707 120.49 16.4914 120.947 15.9634C121.404 15.4354 121.612 14.7348 121.612 13.9276V11.6836H126.385V16.7707Z" fill="white"/>
<path d="M133.401 40.8757V16.7705H138.559V18.5576C138.945 17.994 139.575 17.4711 140.453 17.0142C141.331 16.5573 142.418 16.3491 143.682 16.3491C144.946 16.3491 146.068 16.5573 147.083 17.0142C148.099 17.4711 148.942 18.1007 149.642 18.9079C150.307 19.7151 150.835 20.695 151.221 21.7865C151.607 22.9085 151.785 24.1371 151.785 25.4368C151.785 26.772 151.576 27.9956 151.191 29.1227C150.769 30.2447 150.211 31.194 149.47 32.0013C148.733 32.8085 147.855 33.438 146.84 33.895C145.824 34.3519 144.697 34.5956 143.474 34.5956C142.352 34.5956 141.367 34.423 140.56 34.0676C139.752 33.7528 139.123 33.3314 138.737 32.839V40.8757H133.401ZM146.241 23.5787C146.027 23.0507 145.748 22.5937 145.362 22.2079C144.976 21.8576 144.555 21.5784 144.098 21.4007C143.606 21.223 143.113 21.157 142.59 21.157C142.062 21.157 141.575 21.228 141.118 21.4007C140.626 21.5784 140.204 21.8576 139.854 22.2079C139.468 22.5937 139.189 23.0507 138.976 23.5787C138.762 24.1067 138.661 24.7362 138.661 25.4724C138.661 26.2085 138.767 26.838 138.976 27.366C139.184 27.894 139.468 28.351 139.854 28.7013C140.204 29.0871 140.626 29.3664 141.118 29.544C141.575 29.7217 142.067 29.8233 142.59 29.8233C143.118 29.8233 143.606 29.7167 144.098 29.544C144.555 29.3664 144.976 29.1227 145.362 28.7368C145.748 28.3865 146.027 27.9296 146.241 27.366C146.449 26.838 146.555 26.2085 146.555 25.4724C146.555 24.7362 146.449 24.1016 146.241 23.5787Z" fill="white"/>
<path d="M154.592 27.3306C154.836 26.7366 155.222 26.2086 155.678 25.7517C156.135 25.3303 156.694 24.98 157.328 24.7008C157.922 24.4571 158.593 24.2439 159.329 24.1372L163.431 23.5077C163.888 23.4366 164.238 23.2995 164.416 23.0863C164.594 22.8731 164.695 22.6294 164.695 22.3146C164.695 21.7866 164.482 21.3652 164.066 20.9794C163.609 20.5935 162.979 20.4159 162.136 20.4159C161.187 20.4159 160.486 20.6595 159.994 21.1875C159.466 21.7155 159.187 22.3095 159.151 22.9746L154.521 22.0252C154.556 21.3957 154.765 20.7255 155.084 20.0605C155.404 19.3954 155.892 18.7608 156.521 18.2023C157.115 17.6388 157.887 17.1869 158.836 16.8011C159.786 16.4152 160.872 16.2375 162.172 16.2375C163.573 16.2375 164.766 16.4152 165.751 16.7655C166.731 17.1514 167.538 17.6439 168.173 18.2379C168.767 18.8674 169.224 19.6086 169.508 20.4108C169.752 21.218 169.894 22.0963 169.894 22.9695V31.4937C169.894 32.1588 169.929 32.7579 170 33.2808C170.036 33.8088 170.072 34.088 170.107 34.1946H165.299C165.264 34.1235 165.228 33.9154 165.193 33.6006C165.157 33.2859 165.122 32.8289 165.122 32.2299C164.665 32.966 164 33.5651 163.192 34.0169C162.385 34.4688 161.37 34.682 160.212 34.682C159.263 34.682 158.39 34.5399 157.653 34.2251C156.917 33.9459 156.283 33.56 155.76 33.0675C155.232 32.5751 154.846 32.0166 154.602 31.382C154.323 30.7525 154.181 30.0823 154.181 29.3817C154.171 28.6303 154.308 27.9297 154.592 27.3306ZM162.695 30.6662C163.081 30.5595 163.395 30.3869 163.71 30.1026C163.989 29.8589 164.238 29.5086 164.411 29.0517C164.583 28.5948 164.69 28.0363 164.69 27.3662V26.5945L161.39 27.1225C160.826 27.2291 160.375 27.4017 159.989 27.686C159.603 28.0008 159.425 28.4577 159.425 29.0568C159.425 29.5137 159.603 29.9351 159.918 30.2854C160.232 30.6712 160.76 30.8489 161.497 30.8489C161.888 30.8388 162.309 30.7677 162.695 30.6662Z" fill="white"/>
<path d="M191.532 31.0875C191.532 31.8948 191.567 32.5599 191.603 33.0879C191.638 33.6514 191.638 34.0372 191.674 34.2099H186.551C186.516 34.1032 186.516 33.8595 186.48 33.5448C186.445 33.23 186.409 32.8797 186.409 32.5294C186.023 33.1234 185.394 33.6159 184.587 34.0017C183.744 34.3875 182.8 34.5957 181.744 34.5957C180.515 34.5957 179.357 34.352 178.306 33.8951C177.255 33.4382 176.342 32.8086 175.57 32.0014C174.798 31.1942 174.199 30.2448 173.783 29.1228C173.326 28.0008 173.118 26.7722 173.118 25.4369C173.118 24.1372 173.326 22.9442 173.747 21.8222C174.169 20.7357 174.763 19.7508 175.504 18.9435C176.245 18.1363 177.154 17.4712 178.169 17.0143C179.185 16.5574 180.342 16.3492 181.571 16.3492C182.307 16.3492 182.972 16.4203 183.5 16.5269C184.028 16.6691 184.485 16.8062 184.871 16.9839C185.257 17.1615 185.536 17.3697 185.785 17.5779C185.998 17.786 186.171 17.9637 186.277 18.1414V8.80493H191.542V31.0875H191.532ZM178.799 27.3662C179.007 27.8942 179.291 28.3511 179.677 28.7014C180.027 29.0872 180.449 29.3665 180.941 29.5442C181.398 29.7219 181.891 29.8234 182.414 29.8234C182.942 29.8234 183.429 29.7168 183.921 29.5442C184.378 29.3665 184.8 29.0872 185.186 28.7014C185.536 28.3511 185.815 27.8942 186.028 27.3662C186.242 26.8382 186.343 26.2086 186.343 25.4725C186.343 24.7363 186.237 24.1017 186.028 23.5788C185.82 23.0508 185.536 22.5939 185.186 22.208C184.8 21.8577 184.378 21.5785 183.921 21.4008C183.429 21.2231 182.937 21.1571 182.414 21.1571C181.886 21.1571 181.398 21.2282 180.941 21.4008C180.449 21.5785 180.027 21.8577 179.677 22.208C179.291 22.5939 179.012 23.0508 178.799 23.5788C178.586 24.1068 178.484 24.7363 178.484 25.4725C178.484 26.2086 178.586 26.8382 178.799 27.3662Z" fill="white"/>
<path d="M47.9361 29.595C47.9666 31.3262 47.7381 33.0321 47.3116 34.7074C46.3775 38.3628 42.8998 39.6067 39.8993 37.3322C35.8023 34.2201 31.1975 32.7071 26.0596 32.9254C21.597 33.1184 17.6066 34.6414 14.0629 37.3678C12.3215 38.7081 10.2603 38.8198 8.63056 37.7384C7.73703 37.1444 7.1481 36.327 6.84856 35.3014C3.31503 23.1727 11.6158 10.3991 24.1355 8.85576C30.8573 8.02822 36.8938 9.71883 41.8743 14.4505C45.3367 17.7404 47.0324 21.9542 47.7432 26.6047C47.8955 27.5947 47.9564 28.5948 47.9361 29.595Z" fill="#0077FE"/>
</svg>
