<svg width="1440" height="262" viewBox="0 0 1440 262" fill="none" xmlns="http://www.w3.org/2000/svg">
<g clip-path="url(#clip0_6_15)">
<path d="M-54 223.5C439.667 152.333 1429.7 9.5 1440.5 7.5V-13H-54V223.5Z" fill="#070609"/>
</g>
<g clip-path="url(#clip1_6_15)">
<path d="M1506.07 -0.000576824L-13 213.491L-6.31969 261.024L1512.75 47.5323L1506.07 -0.000576824Z" fill="#00B669"/>
<path d="M-6.65236 245.924L-9.08789 228.594L-3.0225 227.742L2.09545 242.422L2.54107 242.359L3.41424 226.837L9.47963 225.984L11.9152 243.314L8.74631 243.76L6.64827 228.831L6.20265 228.894L5.32988 244.24L-0.0670815 244.998L-5.13592 230.487L-5.58154 230.55L-3.48351 245.478L-6.65236 245.924ZM15.278 242.842L13.5523 230.562L16.6716 230.124L18.3974 242.403L15.278 242.842ZM14.9102 228.907C14.349 228.986 13.8449 228.872 13.3977 228.564C12.9671 228.255 12.71 227.803 12.6265 227.208C12.543 226.614 12.6655 226.109 12.9941 225.693C13.3392 225.274 13.7923 225.025 14.3535 224.946C14.9311 224.865 15.4353 224.979 15.8659 225.289C16.2965 225.599 16.5536 226.051 16.6371 226.645C16.7206 227.239 16.5981 227.744 16.2695 228.161C15.9409 228.577 15.4878 228.826 14.9102 228.907ZM21.854 241.917L20.1283 229.638L23.1981 229.207L23.4243 230.816L23.8699 230.753C24.0076 230.296 24.3222 229.84 24.8135 229.383C25.3024 228.911 26.0998 228.597 27.2056 228.441C28.1629 228.307 29.0277 228.413 29.8 228.758C30.5865 229.085 31.2323 229.609 31.7374 230.329C32.2402 231.033 32.5636 231.896 32.7074 232.919L33.7372 240.247L30.6179 240.686L29.6228 233.605C29.4929 232.681 29.1644 232.02 28.6374 231.623C28.1268 231.224 27.4506 231.083 26.6089 231.201C25.6517 231.336 24.9542 231.762 24.5165 232.48C24.0765 233.181 23.9365 234.101 24.0966 235.24L24.9734 241.479L21.854 241.917ZM41.4747 239.16C40.666 239.273 39.971 239.119 39.3898 238.695C38.8227 238.253 38.4801 237.612 38.3618 236.77L37.3876 229.838L34.3177 230.269L33.9559 227.695L37.0257 227.263L36.4899 223.451L39.6092 223.012L40.145 226.825L43.512 226.352L43.8738 228.926L40.5069 229.4L41.4046 235.787C41.4742 236.282 41.74 236.497 42.2021 236.432L44.5788 236.098L44.9406 238.673L41.4747 239.16ZM48.0613 238.234L46.3356 225.955L49.4549 225.516L51.1807 237.796L48.0613 238.234ZM47.6934 224.3C47.1323 224.379 46.6282 224.264 46.181 223.957C45.7504 223.647 45.4933 223.195 45.4098 222.601C45.3263 222.007 45.4488 221.502 45.7774 221.085C46.1225 220.666 46.5756 220.418 47.1368 220.339C47.7144 220.257 48.2186 220.372 48.6492 220.682C49.0798 220.991 49.3369 221.443 49.4204 222.037C49.5039 222.632 49.3814 223.137 49.0528 223.553C48.7242 223.97 48.2711 224.219 47.6934 224.3ZM54.6373 237.31L52.9116 225.031L55.9814 224.599L56.2076 226.208L56.6532 226.146C56.7909 225.689 57.1055 225.232 57.5967 224.776C58.0857 224.303 58.8831 223.989 59.9889 223.834C60.9462 223.699 61.811 223.805 62.5833 224.151C63.3698 224.478 64.0156 225.002 64.5207 225.722C65.0235 226.425 65.3468 227.289 65.4907 228.312L66.5205 235.64L63.4012 236.078L62.4061 228.998C62.2762 228.074 61.9477 227.413 61.4207 227.016C60.9101 226.616 60.2339 226.476 59.3922 226.594C58.435 226.728 57.7375 227.155 57.2998 227.873C56.8598 228.574 56.7198 229.494 56.8799 230.633L57.7567 236.872L54.6373 237.31ZM68.4426 229.159L68.3869 228.763C68.206 227.476 68.3076 226.342 68.6916 225.363C69.0734 224.367 69.6515 223.57 70.4259 222.973C71.2146 222.357 72.1123 221.979 73.1191 221.837C74.2414 221.679 75.1192 221.758 75.7525 222.073C76.3858 222.388 76.8647 222.741 77.1891 223.133L77.6347 223.071L77.4259 221.585L80.4958 221.154L82.5277 235.612C82.646 236.454 82.4924 237.157 82.0668 237.722C81.6436 238.303 81.0194 238.651 80.1941 238.767L71.9749 239.922L71.5922 237.199L78.7221 236.197C79.1842 236.132 79.3805 235.852 79.3109 235.357L78.8621 232.163L78.4165 232.226C78.2885 232.513 78.0958 232.818 77.8381 233.14C77.5781 233.446 77.2133 233.725 76.7437 233.976C76.2741 234.227 75.6597 234.406 74.9005 234.513C73.8937 234.654 72.9276 234.546 72.0021 234.188C71.0908 233.811 70.3155 233.205 69.6763 232.369C69.0348 231.517 68.6235 230.447 68.4426 229.159ZM75.409 231.664C76.3663 231.53 77.1238 231.112 77.6817 230.411C78.2395 229.71 78.4407 228.806 78.2853 227.7L78.2505 227.453C78.0928 226.33 77.6504 225.517 76.9232 225.014C76.2102 224.491 75.3668 224.298 74.393 224.435C73.4358 224.57 72.6782 224.988 72.1204 225.689C71.5602 226.373 71.359 227.277 71.5167 228.399L71.5515 228.647C71.7069 229.752 72.1494 230.565 72.8789 231.086C73.6084 231.606 74.4517 231.799 75.409 231.664ZM91.9658 232.064L90.24 219.784L93.3099 219.353L93.536 220.962L93.9816 220.9C94.1194 220.443 94.4339 219.986 94.9252 219.53C95.4142 219.057 96.2116 218.743 97.3174 218.588C98.2746 218.453 99.1394 218.559 99.9117 218.905C100.698 219.232 101.344 219.755 101.849 220.475C102.352 221.179 102.675 222.042 102.819 223.066L103.849 230.394L100.73 230.832L99.7346 223.752C99.6047 222.827 99.2762 222.167 98.7491 221.77C98.2386 221.37 97.5624 221.229 96.7207 221.348C95.7634 221.482 95.0659 221.908 94.6283 222.626C94.1883 223.328 94.0483 224.248 94.2083 225.387L95.0851 231.625L91.9658 232.064ZM113.112 229.445C111.891 229.617 110.759 229.524 109.715 229.165C108.672 228.807 107.804 228.197 107.11 227.335C106.417 226.473 105.977 225.382 105.792 224.062L105.736 223.666C105.551 222.345 105.672 221.175 106.101 220.156C106.53 219.136 107.197 218.31 108.101 217.678C109.005 217.046 110.068 216.644 111.289 216.473C112.51 216.301 113.643 216.394 114.686 216.753C115.73 217.111 116.598 217.721 117.291 218.583C117.985 219.445 118.424 220.536 118.61 221.856L118.665 222.252C118.851 223.573 118.729 224.743 118.3 225.762C117.871 226.782 117.205 227.608 116.301 228.24C115.396 228.872 114.334 229.274 113.112 229.445ZM112.723 226.672C113.68 226.538 114.429 226.121 114.971 225.422C115.51 224.707 115.698 223.772 115.536 222.617L115.501 222.369C115.338 221.214 114.901 220.375 114.188 219.852C113.489 219.311 112.653 219.109 111.679 219.245C110.722 219.38 109.973 219.805 109.434 220.52C108.893 221.219 108.704 222.146 108.866 223.301L108.901 223.549C109.063 224.704 109.502 225.551 110.217 226.091C110.93 226.613 111.765 226.807 112.723 226.672ZM123.322 227.657L119.863 215.621L122.957 215.186L125.477 225.208L125.922 225.146L126.077 214.748L131.078 214.045L134.092 223.997L134.538 223.935L134.197 213.607L137.292 213.172L137.284 225.695L132.11 226.422L129.096 216.47L128.65 216.532L128.496 226.93L123.322 227.657Z" fill="black"/>
<path d="M164.664 221.847L162.228 204.517L168.294 203.665L173.412 218.345L173.857 218.283L174.731 202.76L180.796 201.908L183.231 219.237L180.063 219.683L177.965 204.754L177.519 204.817L176.646 220.163L171.249 220.921L166.18 206.41L165.735 206.473L167.833 221.401L164.664 221.847ZM186.594 218.765L184.869 206.485L187.988 206.047L189.714 218.326L186.594 218.765ZM186.226 204.83C185.665 204.909 185.161 204.795 184.714 204.487C184.283 204.178 184.026 203.726 183.943 203.132C183.859 202.537 183.982 202.032 184.31 201.616C184.655 201.197 185.109 200.948 185.67 200.869C186.247 200.788 186.752 200.902 187.182 201.212C187.613 201.522 187.87 201.974 187.953 202.568C188.037 203.162 187.914 203.667 187.586 204.084C187.257 204.5 186.804 204.749 186.226 204.83ZM193.17 217.84L191.445 205.561L194.514 205.13L194.741 206.739L195.186 206.676C195.324 206.219 195.638 205.763 196.13 205.307C196.619 204.834 197.416 204.52 198.522 204.364C199.479 204.23 200.344 204.336 201.116 204.682C201.903 205.009 202.549 205.532 203.054 206.252C203.557 206.956 203.88 207.819 204.024 208.842L205.054 216.17L201.934 216.609L200.939 209.528C200.809 208.604 200.481 207.943 199.954 207.546C199.443 207.147 198.767 207.006 197.925 207.124C196.968 207.259 196.27 207.685 195.833 208.403C195.393 209.104 195.253 210.025 195.413 211.163L196.29 217.402L193.17 217.84ZM212.791 215.083C211.982 215.197 211.287 215.042 210.706 214.619C210.139 214.177 209.796 213.535 209.678 212.693L208.704 205.761L205.634 206.192L205.272 203.618L208.342 203.186L207.806 199.374L210.926 198.935L211.461 202.748L214.828 202.275L215.19 204.849L211.823 205.323L212.721 211.71C212.79 212.205 213.056 212.42 213.518 212.355L215.895 212.021L216.257 214.596L212.791 215.083ZM219.378 214.157L217.652 201.878L220.771 201.44L222.497 213.719L219.378 214.157ZM219.01 200.223C218.449 200.302 217.944 200.187 217.497 199.88C217.067 199.57 216.81 199.118 216.726 198.524C216.643 197.93 216.765 197.425 217.094 197.008C217.439 196.589 217.892 196.341 218.453 196.262C219.031 196.181 219.535 196.295 219.965 196.605C220.396 196.914 220.653 197.366 220.737 197.96C220.82 198.555 220.698 199.06 220.369 199.476C220.04 199.893 219.587 200.142 219.01 200.223ZM225.954 213.233L224.228 200.954L227.298 200.522L227.524 202.131L227.969 202.069C228.107 201.612 228.422 201.155 228.913 200.699C229.402 200.227 230.199 199.913 231.305 199.757C232.262 199.623 233.127 199.728 233.9 200.074C234.686 200.401 235.332 200.925 235.837 201.645C236.34 202.348 236.663 203.212 236.807 204.235L237.837 211.563L234.717 212.001L233.722 204.921C233.592 203.997 233.264 203.336 232.737 202.939C232.226 202.539 231.55 202.399 230.708 202.517C229.751 202.652 229.054 203.078 228.616 203.796C228.176 204.497 228.036 205.417 228.196 206.556L229.073 212.795L225.954 213.233ZM239.759 205.082L239.703 204.686C239.522 203.399 239.624 202.265 240.008 201.286C240.39 200.29 240.968 199.493 241.742 198.896C242.531 198.28 243.429 197.902 244.435 197.76C245.558 197.603 246.435 197.681 247.069 197.996C247.702 198.311 248.181 198.664 248.505 199.056L248.951 198.994L248.742 197.508L251.812 197.077L253.844 211.535C253.962 212.377 253.809 213.08 253.383 213.645C252.96 214.226 252.336 214.574 251.51 214.69L243.291 215.846L242.908 213.122L250.038 212.12C250.501 212.055 250.697 211.775 250.627 211.28L250.178 208.087L249.733 208.149C249.605 208.436 249.412 208.741 249.154 209.064C248.894 209.369 248.53 209.648 248.06 209.899C247.59 210.15 246.976 210.329 246.217 210.436C245.21 210.577 244.244 210.469 243.318 210.111C242.407 209.734 241.632 209.128 240.993 208.292C240.351 207.44 239.94 206.37 239.759 205.082ZM246.725 207.587C247.683 207.453 248.44 207.035 248.998 206.334C249.556 205.633 249.757 204.729 249.602 203.623L249.567 203.376C249.409 202.253 248.967 201.44 248.239 200.937C247.526 200.414 246.683 200.221 245.709 200.358C244.752 200.493 243.994 200.911 243.437 201.612C242.876 202.296 242.675 203.2 242.833 204.322L242.868 204.57C243.023 205.676 243.466 206.489 244.195 207.009C244.925 207.529 245.768 207.722 246.725 207.587ZM263.282 207.987L261.556 195.708L264.626 195.276L264.852 196.885L265.298 196.823C265.436 196.366 265.75 195.909 266.241 195.453C266.73 194.98 267.528 194.666 268.634 194.511C269.591 194.376 270.456 194.482 271.228 194.828C272.015 195.155 272.66 195.679 273.165 196.399C273.668 197.102 273.992 197.966 274.135 198.989L275.165 206.317L272.046 206.755L271.051 199.675C270.921 198.751 270.592 198.09 270.065 197.693C269.555 197.293 268.879 197.153 268.037 197.271C267.08 197.405 266.382 197.832 265.945 198.549C265.505 199.251 265.365 200.171 265.525 201.31L266.401 207.548L263.282 207.987ZM284.429 205.368C283.207 205.54 282.075 205.447 281.032 205.088C279.988 204.73 279.12 204.12 278.427 203.258C277.733 202.396 277.294 201.305 277.108 199.985L277.053 199.589C276.867 198.268 276.989 197.098 277.418 196.079C277.847 195.059 278.513 194.233 279.417 193.601C280.321 192.969 281.384 192.567 282.606 192.396C283.827 192.224 284.959 192.318 286.003 192.676C287.046 193.034 287.914 193.644 288.608 194.506C289.301 195.368 289.74 196.459 289.926 197.779L289.982 198.176C290.167 199.496 290.046 200.666 289.617 201.685C289.188 202.705 288.521 203.531 287.617 204.163C286.713 204.795 285.65 205.197 284.429 205.368ZM284.039 202.596C284.996 202.461 285.746 202.044 286.287 201.346C286.826 200.63 287.014 199.695 286.852 198.54L286.817 198.292C286.655 197.137 286.217 196.298 285.504 195.775C284.805 195.234 283.969 195.032 282.995 195.169C282.038 195.303 281.29 195.728 280.751 196.443C280.209 197.142 280.02 198.069 280.182 199.225L280.217 199.472C280.379 200.627 280.818 201.475 281.534 202.014C282.247 202.536 283.082 202.73 284.039 202.596ZM294.638 203.58L291.179 191.544L294.274 191.109L296.793 201.131L297.239 201.069L297.393 190.671L302.394 189.968L305.408 199.921L305.854 199.858L305.513 189.53L308.608 189.095L308.601 201.618L303.427 202.345L300.412 192.393L299.967 192.455L299.812 202.853L294.638 203.58Z" fill="black"/>
<path d="M335.98 197.77L333.545 180.44L339.61 179.588L344.728 194.268L345.174 194.206L346.047 178.683L352.112 177.831L354.548 195.16L351.379 195.606L349.281 180.677L348.835 180.74L347.963 196.086L342.566 196.844L337.497 182.334L337.051 182.396L339.149 197.324L335.98 197.77ZM357.911 194.688L356.185 182.408L359.304 181.97L361.03 194.249L357.911 194.688ZM357.543 180.753C356.982 180.832 356.478 180.718 356.03 180.41C355.6 180.101 355.343 179.649 355.259 179.055C355.176 178.46 355.298 177.955 355.627 177.539C355.972 177.12 356.425 176.871 356.986 176.792C357.564 176.711 358.068 176.825 358.499 177.135C358.929 177.445 359.186 177.897 359.27 178.491C359.353 179.085 359.231 179.59 358.902 180.007C358.574 180.423 358.12 180.672 357.543 180.753ZM364.487 193.763L362.761 181.484L365.831 181.053L366.057 182.662L366.503 182.599C366.64 182.142 366.955 181.686 367.446 181.23C367.935 180.757 368.732 180.443 369.838 180.288C370.796 180.153 371.66 180.259 372.433 180.605C373.219 180.932 373.865 181.455 374.37 182.175C374.873 182.879 375.196 183.742 375.34 184.765L376.37 192.093L373.251 192.532L372.255 185.451C372.126 184.527 371.797 183.866 371.27 183.469C370.759 183.07 370.083 182.929 369.242 183.047C368.284 183.182 367.587 183.608 367.149 184.326C366.709 185.027 366.569 185.948 366.729 187.086L367.606 193.325L364.487 193.763ZM384.107 191.006C383.299 191.12 382.604 190.965 382.022 190.542C381.455 190.1 381.113 189.458 380.994 188.616L380.02 181.684L376.95 182.116L376.589 179.541L379.658 179.109L379.123 175.297L382.242 174.858L382.778 178.671L386.145 178.198L386.506 180.772L383.14 181.246L384.037 187.633C384.107 188.128 384.373 188.343 384.835 188.278L387.211 187.944L387.573 190.519L384.107 191.006ZM390.694 190.08L388.968 177.801L392.088 177.363L393.813 189.642L390.694 190.08ZM390.326 176.146C389.765 176.225 389.261 176.11 388.814 175.803C388.383 175.493 388.126 175.041 388.042 174.447C387.959 173.853 388.081 173.348 388.41 172.931C388.755 172.512 389.208 172.264 389.769 172.185C390.347 172.104 390.851 172.218 391.282 172.528C391.712 172.837 391.97 173.289 392.053 173.884C392.137 174.478 392.014 174.983 391.685 175.399C391.357 175.816 390.904 176.065 390.326 176.146ZM397.27 189.156L395.544 176.877L398.614 176.445L398.84 178.055L399.286 177.992C399.424 177.535 399.738 177.078 400.229 176.622C400.718 176.15 401.516 175.836 402.622 175.68C403.579 175.546 404.444 175.651 405.216 175.997C406.002 176.324 406.648 176.848 407.153 177.568C407.656 178.271 407.979 179.135 408.123 180.158L409.153 187.486L406.034 187.924L405.039 180.844C404.909 179.92 404.58 179.259 404.053 178.862C403.543 178.462 402.867 178.322 402.025 178.44C401.068 178.575 400.37 179.001 399.932 179.719C399.492 180.42 399.352 181.34 399.513 182.479L400.389 188.718L397.27 189.156ZM411.075 181.005L411.02 180.609C410.839 179.322 410.94 178.188 411.324 177.209C411.706 176.213 412.284 175.416 413.059 174.819C413.847 174.203 414.745 173.825 415.752 173.683C416.874 173.526 417.752 173.604 418.385 173.919C419.018 174.234 419.497 174.588 419.822 174.98L420.267 174.917L420.059 173.431L423.128 173L425.16 187.458C425.279 188.3 425.125 189.003 424.699 189.568C424.276 190.149 423.652 190.497 422.827 190.613L414.608 191.769L414.225 189.045L421.355 188.043C421.817 187.978 422.013 187.698 421.944 187.203L421.495 184.01L421.049 184.072C420.921 184.359 420.728 184.664 420.471 184.987C420.211 185.292 419.846 185.571 419.376 185.822C418.907 186.073 418.292 186.252 417.533 186.359C416.526 186.5 415.56 186.392 414.635 186.034C413.723 185.657 412.948 185.051 412.309 184.215C411.667 183.363 411.256 182.293 411.075 181.005ZM418.042 183.51C418.999 183.376 419.756 182.958 420.314 182.257C420.872 181.556 421.073 180.652 420.918 179.546L420.883 179.299C420.725 178.177 420.283 177.364 419.556 176.86C418.843 176.337 417.999 176.144 417.026 176.281C416.068 176.416 415.311 176.834 414.753 177.535C414.193 178.219 413.992 179.123 414.149 180.245L414.184 180.493C414.34 181.599 414.782 182.412 415.512 182.932C416.241 183.452 417.084 183.645 418.042 183.51ZM434.598 183.91L432.873 171.631L435.943 171.199L436.169 172.808L436.614 172.746C436.752 172.289 437.067 171.832 437.558 171.376C438.047 170.903 438.844 170.589 439.95 170.434C440.907 170.299 441.772 170.405 442.544 170.751C443.331 171.078 443.977 171.602 444.482 172.322C444.985 173.025 445.308 173.889 445.452 174.912L446.482 182.24L443.362 182.678L442.367 175.598C442.237 174.674 441.909 174.013 441.382 173.616C440.871 173.216 440.195 173.076 439.353 173.194C438.396 173.328 437.699 173.755 437.261 174.473C436.821 175.174 436.681 176.094 436.841 177.233L437.718 183.472L434.598 183.91ZM455.745 181.291C454.524 181.463 453.391 181.37 452.348 181.011C451.305 180.653 450.436 180.043 449.743 179.181C449.05 178.319 448.61 177.228 448.425 175.908L448.369 175.512C448.183 174.191 448.305 173.021 448.734 172.002C449.163 170.982 449.829 170.156 450.734 169.524C451.638 168.892 452.701 168.491 453.922 168.319C455.143 168.147 456.276 168.241 457.319 168.599C458.362 168.957 459.231 169.567 459.924 170.429C460.617 171.291 461.057 172.382 461.242 173.702L461.298 174.099C461.484 175.419 461.362 176.589 460.933 177.609C460.504 178.628 459.838 179.454 458.933 180.086C458.029 180.718 456.966 181.12 455.745 181.291ZM455.355 178.519C456.313 178.384 457.062 177.967 457.603 177.269C458.142 176.553 458.331 175.618 458.168 174.463L458.134 174.215C457.971 173.06 457.533 172.221 456.82 171.698C456.122 171.157 455.285 170.955 454.312 171.092C453.354 171.226 452.606 171.651 452.067 172.366C451.526 173.065 451.336 173.992 451.499 175.148L451.533 175.395C451.696 176.55 452.135 177.398 452.85 177.937C453.563 178.459 454.398 178.653 455.355 178.519ZM465.954 179.503L462.496 167.467L465.59 167.032L468.11 177.054L468.555 176.992L468.71 166.594L473.71 165.891L476.725 175.844L477.17 175.781L476.83 165.453L479.924 165.018L479.917 177.541L474.743 178.268L471.729 168.316L471.283 168.378L471.129 178.776L465.954 179.503Z" fill="black"/>
<path d="M507.297 173.693L504.861 156.363L510.927 155.511L516.044 170.191L516.49 170.129L517.363 154.606L523.429 153.754L525.864 171.083L522.695 171.529L520.597 156.6L520.152 156.663L519.279 172.009L513.882 172.767L508.813 158.257L508.368 158.319L510.466 173.247L507.297 173.693ZM529.227 170.611L527.501 158.331L530.621 157.893L532.346 170.172L529.227 170.611ZM528.859 156.676C528.298 156.755 527.794 156.641 527.347 156.333C526.916 156.024 526.659 155.572 526.576 154.978C526.492 154.383 526.615 153.878 526.943 153.462C527.288 153.043 527.741 152.794 528.302 152.715C528.88 152.634 529.384 152.748 529.815 153.058C530.246 153.368 530.503 153.82 530.586 154.414C530.67 155.008 530.547 155.513 530.219 155.93C529.89 156.346 529.437 156.595 528.859 156.676ZM535.803 169.687L534.077 157.407L537.147 156.976L537.373 158.585L537.819 158.522C537.957 158.065 538.271 157.609 538.762 157.153C539.251 156.68 540.049 156.366 541.155 156.211C542.112 156.076 542.977 156.182 543.749 156.528C544.536 156.855 545.181 157.378 545.686 158.098C546.189 158.802 546.513 159.665 546.656 160.688L547.686 168.016L544.567 168.455L543.572 161.374C543.442 160.45 543.113 159.789 542.586 159.392C542.076 158.993 541.4 158.852 540.558 158.97C539.601 159.105 538.903 159.531 538.466 160.249C538.026 160.951 537.886 161.871 538.046 163.009L538.922 169.248L535.803 169.687ZM555.424 166.929C554.615 167.043 553.92 166.888 553.339 166.465C552.772 166.023 552.429 165.381 552.311 164.539L551.337 157.607L548.267 158.039L547.905 155.464L550.975 155.032L550.439 151.22L553.558 150.781L554.094 154.594L557.461 154.121L557.823 156.696L554.456 157.169L555.354 163.556C555.423 164.051 555.689 164.266 556.151 164.201L558.528 163.867L558.89 166.442L555.424 166.929ZM562.01 166.003L560.285 153.724L563.404 153.286L565.13 165.565L562.01 166.003ZM561.642 152.069C561.081 152.148 560.577 152.033 560.13 151.726C559.699 151.416 559.442 150.964 559.359 150.37C559.275 149.776 559.398 149.271 559.726 148.854C560.072 148.436 560.525 148.187 561.086 148.108C561.663 148.027 562.168 148.141 562.598 148.451C563.029 148.76 563.286 149.212 563.369 149.807C563.453 150.401 563.33 150.906 563.002 151.322C562.673 151.739 562.22 151.988 561.642 152.069ZM568.586 165.079L566.861 152.8L569.93 152.368L570.157 153.978L570.602 153.915C570.74 153.458 571.054 153.001 571.546 152.545C572.035 152.073 572.832 151.759 573.938 151.603C574.895 151.469 575.76 151.574 576.532 151.92C577.319 152.247 577.965 152.771 578.47 153.491C578.973 154.194 579.296 155.058 579.44 156.081L580.47 163.409L577.35 163.847L576.355 156.767C576.225 155.843 575.897 155.182 575.37 154.785C574.859 154.385 574.183 154.245 573.341 154.363C572.384 154.498 571.687 154.924 571.249 155.642C570.809 156.343 570.669 157.263 570.829 158.402L571.706 164.641L568.586 165.079ZM582.392 156.928L582.336 156.532C582.155 155.245 582.257 154.112 582.641 153.132C583.022 152.136 583.601 151.339 584.375 150.742C585.164 150.126 586.061 149.748 587.068 149.606C588.19 149.449 589.068 149.527 589.702 149.842C590.335 150.157 590.814 150.511 591.138 150.903L591.584 150.84L591.375 149.355L594.445 148.923L596.477 163.381C596.595 164.223 596.441 164.926 596.016 165.491C595.593 166.072 594.968 166.421 594.143 166.536L585.924 167.692L585.541 164.968L592.671 163.966C593.133 163.901 593.33 163.621 593.26 163.126L592.811 159.933L592.365 159.995C592.238 160.282 592.045 160.587 591.787 160.91C591.527 161.215 591.162 161.494 590.693 161.745C590.223 161.996 589.609 162.175 588.85 162.282C587.843 162.423 586.877 162.315 585.951 161.957C585.04 161.58 584.265 160.974 583.625 160.138C582.984 159.286 582.573 158.216 582.392 156.928ZM589.358 159.433C590.315 159.299 591.073 158.881 591.631 158.18C592.189 157.479 592.39 156.575 592.234 155.469L592.2 155.222C592.042 154.1 591.599 153.287 590.872 152.783C590.159 152.26 589.316 152.068 588.342 152.204C587.385 152.339 586.627 152.757 586.069 153.458C585.509 154.142 585.308 155.046 585.466 156.168L585.501 156.416C585.656 157.522 586.098 158.335 586.828 158.855C587.557 159.375 588.401 159.568 589.358 159.433ZM605.915 159.833L604.189 147.554L607.259 147.122L607.485 148.731L607.931 148.669C608.068 148.212 608.383 147.755 608.874 147.299C609.363 146.826 610.161 146.512 611.266 146.357C612.224 146.222 613.088 146.328 613.861 146.674C614.647 147.001 615.293 147.525 615.798 148.245C616.301 148.948 616.624 149.812 616.768 150.835L617.798 158.163L614.679 158.601L613.684 151.521C613.554 150.597 613.225 149.936 612.698 149.539C612.188 149.139 611.511 148.999 610.67 149.117C609.712 149.251 609.015 149.678 608.577 150.396C608.137 151.097 607.997 152.017 608.157 153.156L609.034 159.395L605.915 159.833ZM627.061 157.214C625.84 157.386 624.708 157.293 623.664 156.934C622.621 156.576 621.753 155.966 621.059 155.104C620.366 154.242 619.927 153.151 619.741 151.831L619.685 151.435C619.5 150.114 619.621 148.944 620.05 147.925C620.479 146.905 621.146 146.079 622.05 145.447C622.954 144.815 624.017 144.414 625.238 144.242C626.46 144.07 627.592 144.164 628.635 144.522C629.679 144.88 630.547 145.49 631.24 146.352C631.934 147.214 632.373 148.305 632.559 149.625L632.614 150.022C632.8 151.342 632.678 152.512 632.249 153.532C631.82 154.551 631.154 155.377 630.25 156.009C629.346 156.641 628.283 157.043 627.061 157.214ZM626.672 154.442C627.629 154.307 628.378 153.89 628.92 153.192C629.459 152.476 629.647 151.541 629.485 150.386L629.45 150.138C629.288 148.983 628.85 148.144 628.137 147.621C627.438 147.08 626.602 146.878 625.628 147.015C624.671 147.149 623.923 147.574 623.384 148.289C622.842 148.988 622.653 149.915 622.815 151.071L622.85 151.318C623.012 152.473 623.451 153.321 624.166 153.86C624.879 154.382 625.715 154.576 626.672 154.442ZM637.271 155.426L633.812 143.39L636.907 142.955L639.426 152.977L639.872 152.915L640.026 142.517L645.027 141.814L648.041 151.767L648.487 151.704L648.146 141.376L651.241 140.941L651.234 153.464L646.059 154.191L643.045 144.239L642.599 144.301L642.445 154.699L637.271 155.426Z" fill="black"/>
<path d="M678.613 149.616L676.178 132.286L682.243 131.434L687.361 146.114L687.807 146.052L688.68 130.529L694.745 129.677L697.181 147.006L694.012 147.452L691.914 132.523L691.468 132.586L690.595 147.932L685.198 148.69L680.13 134.18L679.684 134.242L681.782 149.171L678.613 149.616ZM700.543 146.534L698.818 134.254L701.937 133.816L703.663 146.095L700.543 146.534ZM700.176 132.599C699.614 132.678 699.11 132.564 698.663 132.257C698.233 131.947 697.975 131.495 697.892 130.901C697.808 130.307 697.931 129.801 698.26 129.385C698.605 128.966 699.058 128.717 699.619 128.638C700.197 128.557 700.701 128.671 701.131 128.981C701.562 129.291 701.819 129.743 701.903 130.337C701.986 130.931 701.863 131.436 701.535 131.853C701.206 132.269 700.753 132.518 700.176 132.599ZM707.119 145.61L705.394 133.33L708.464 132.899L708.69 134.508L709.135 134.445C709.273 133.988 709.588 133.532 710.079 133.076C710.568 132.603 711.365 132.289 712.471 132.134C713.428 131.999 714.293 132.105 715.065 132.451C715.852 132.778 716.498 133.301 717.003 134.021C717.506 134.725 717.829 135.588 717.973 136.612L719.003 143.94L715.883 144.378L714.888 137.298C714.758 136.373 714.43 135.713 713.903 135.315C713.392 134.916 712.716 134.775 711.874 134.894C710.917 135.028 710.22 135.454 709.782 136.172C709.342 136.874 709.202 137.794 709.362 138.933L710.239 145.171L707.119 145.61ZM726.74 142.852C725.931 142.966 725.236 142.811 724.655 142.388C724.088 141.946 723.745 141.304 723.627 140.462L722.653 133.53L719.583 133.962L719.221 131.387L722.291 130.956L721.755 127.143L724.875 126.705L725.41 130.517L728.777 130.044L729.139 132.619L725.772 133.092L726.67 139.479C726.74 139.974 727.005 140.189 727.468 140.124L729.844 139.79L730.206 142.365L726.74 142.852ZM733.327 141.926L731.601 129.647L734.72 129.209L736.446 141.488L733.327 141.926ZM732.959 127.992C732.398 128.071 731.894 127.957 731.446 127.649C731.016 127.339 730.759 126.887 730.675 126.293C730.592 125.699 730.714 125.194 731.043 124.777C731.388 124.359 731.841 124.11 732.402 124.031C732.98 123.95 733.484 124.064 733.915 124.374C734.345 124.684 734.602 125.135 734.686 125.73C734.769 126.324 734.647 126.829 734.318 127.246C733.99 127.662 733.537 127.911 732.959 127.992ZM739.903 141.002L738.177 128.723L741.247 128.291L741.473 129.901L741.919 129.838C742.056 129.381 742.371 128.925 742.862 128.468C743.351 127.996 744.149 127.682 745.254 127.526C746.212 127.392 747.076 127.497 747.849 127.843C748.635 128.17 749.281 128.694 749.786 129.414C750.289 130.117 750.612 130.981 750.756 132.004L751.786 139.332L748.667 139.771L747.672 132.69C747.542 131.766 747.213 131.105 746.686 130.708C746.176 130.308 745.499 130.168 744.658 130.286C743.7 130.421 743.003 130.847 742.565 131.565C742.125 132.266 741.985 133.186 742.145 134.325L743.022 140.564L739.903 141.002ZM753.708 132.852L753.652 132.455C753.471 131.168 753.573 130.035 753.957 129.055C754.339 128.059 754.917 127.262 755.691 126.665C756.48 126.05 757.378 125.671 758.384 125.529C759.507 125.372 760.385 125.45 761.018 125.765C761.651 126.08 762.13 126.434 762.454 126.826L762.9 126.763L762.691 125.278L765.761 124.846L767.793 139.304C767.911 140.146 767.758 140.849 767.332 141.414C766.909 141.995 766.285 142.344 765.46 142.46L757.24 143.615L756.858 140.891L763.988 139.889C764.45 139.824 764.646 139.544 764.576 139.049L764.128 135.856L763.682 135.918C763.554 136.206 763.361 136.51 763.104 136.833C762.844 137.139 762.479 137.417 762.009 137.668C761.54 137.919 760.925 138.098 760.166 138.205C759.159 138.346 758.193 138.238 757.267 137.88C756.356 137.503 755.581 136.897 754.942 136.061C754.3 135.209 753.889 134.139 753.708 132.852ZM760.674 135.356C761.632 135.222 762.389 134.804 762.947 134.103C763.505 133.402 763.706 132.498 763.551 131.393L763.516 131.145C763.358 130.023 762.916 129.21 762.189 128.706C761.476 128.183 760.632 127.991 759.658 128.127C758.701 128.262 757.944 128.68 757.386 129.381C756.826 130.066 756.624 130.969 756.782 132.091L756.817 132.339C756.972 133.445 757.415 134.258 758.144 134.778C758.874 135.298 759.717 135.491 760.674 135.356ZM777.231 135.756L775.505 123.477L778.575 123.045L778.801 124.654L779.247 124.592C779.385 124.135 779.699 123.678 780.191 123.222C780.68 122.75 781.477 122.436 782.583 122.28C783.54 122.146 784.405 122.251 785.177 122.597C785.964 122.924 786.609 123.448 787.115 124.168C787.617 124.871 787.941 125.735 788.085 126.758L789.114 134.086L785.995 134.524L785 127.444C784.87 126.52 784.542 125.859 784.015 125.462C783.504 125.062 782.828 124.922 781.986 125.04C781.029 125.175 780.331 125.601 779.894 126.319C779.454 127.02 779.314 127.94 779.474 129.079L780.351 135.318L777.231 135.756ZM798.378 133.138C797.157 133.309 796.024 133.216 794.981 132.858C793.937 132.499 793.069 131.889 792.376 131.027C791.682 130.165 791.243 129.074 791.057 127.754L791.002 127.358C790.816 126.037 790.938 124.867 791.367 123.848C791.796 122.828 792.462 122.002 793.366 121.37C794.271 120.738 795.333 120.337 796.555 120.165C797.776 119.993 798.908 120.087 799.952 120.445C800.995 120.803 801.863 121.413 802.557 122.275C803.25 123.137 803.69 124.228 803.875 125.549L803.931 125.945C804.116 127.265 803.995 128.435 803.566 129.455C803.137 130.474 802.47 131.3 801.566 131.932C800.662 132.564 799.599 132.966 798.378 133.138ZM797.988 130.365C798.945 130.23 799.695 129.814 800.236 129.115C800.775 128.399 800.963 127.464 800.801 126.309L800.766 126.061C800.604 124.906 800.166 124.067 799.453 123.544C798.754 123.003 797.918 122.801 796.944 122.938C795.987 123.072 795.239 123.497 794.7 124.213C794.159 124.911 793.969 125.838 794.131 126.994L794.166 127.241C794.329 128.397 794.767 129.244 795.483 129.783C796.196 130.305 797.031 130.499 797.988 130.365ZM808.587 131.349L805.128 119.313L808.223 118.879L810.742 128.9L811.188 128.838L811.342 118.44L816.343 117.737L819.358 127.69L819.803 127.627L819.463 117.299L822.557 116.864L822.55 129.387L817.376 130.114L814.361 120.162L813.916 120.224L813.761 130.622L808.587 131.349Z" fill="black"/>
<path d="M849.929 125.539L847.494 108.209L853.559 107.357L858.677 122.037L859.123 121.975L859.996 106.452L866.061 105.6L868.497 122.929L865.328 123.375L863.23 108.447L862.784 108.509L861.912 123.855L856.515 124.613L851.446 110.103L851 110.165L853.098 125.094L849.929 125.539ZM871.86 122.457L870.134 110.178L873.253 109.739L874.979 122.018L871.86 122.457ZM871.492 108.522C870.931 108.601 870.427 108.487 869.98 108.18C869.549 107.87 869.292 107.418 869.208 106.824C869.125 106.23 869.247 105.724 869.576 105.308C869.921 104.889 870.374 104.64 870.935 104.561C871.513 104.48 872.017 104.594 872.448 104.904C872.878 105.214 873.135 105.666 873.219 106.26C873.302 106.854 873.18 107.36 872.851 107.776C872.523 108.192 872.07 108.441 871.492 108.522ZM878.436 121.533L876.71 109.253L879.78 108.822L880.006 110.431L880.452 110.368C880.589 109.911 880.904 109.455 881.395 108.999C881.884 108.526 882.682 108.212 883.787 108.057C884.745 107.922 885.609 108.028 886.382 108.374C887.168 108.701 887.814 109.224 888.319 109.944C888.822 110.648 889.145 111.511 889.289 112.535L890.319 119.863L887.2 120.301L886.205 113.221C886.075 112.296 885.746 111.636 885.219 111.238C884.709 110.839 884.032 110.698 883.191 110.817C882.233 110.951 881.536 111.377 881.098 112.095C880.658 112.797 880.518 113.717 880.678 114.856L881.555 121.094L878.436 121.533ZM898.056 118.775C897.248 118.889 896.553 118.734 895.972 118.311C895.405 117.869 895.062 117.227 894.944 116.385L893.969 109.453L890.9 109.885L890.538 107.31L893.607 106.879L893.072 103.066L896.191 102.628L896.727 106.44L900.094 105.967L900.456 108.542L897.089 109.015L897.986 115.402C898.056 115.897 898.322 116.112 898.784 116.047L901.161 115.713L901.522 118.288L898.056 118.775ZM904.643 117.849L902.917 105.57L906.037 105.132L907.762 117.411L904.643 117.849ZM904.275 103.915C903.714 103.994 903.21 103.88 902.763 103.572C902.332 103.262 902.075 102.81 901.992 102.216C901.908 101.622 902.031 101.117 902.359 100.7C902.704 100.282 903.157 100.033 903.719 99.954C904.296 99.8728 904.8 99.9871 905.231 100.297C905.662 100.607 905.919 101.059 906.002 101.653C906.086 102.247 905.963 102.752 905.635 103.169C905.306 103.585 904.853 103.834 904.275 103.915ZM911.219 116.925L909.493 104.646L912.563 104.214L912.789 105.824L913.235 105.761C913.373 105.304 913.687 104.848 914.179 104.391C914.668 103.919 915.465 103.605 916.571 103.449C917.528 103.315 918.393 103.42 919.165 103.766C919.952 104.093 920.597 104.617 921.103 105.337C921.605 106.041 921.929 106.904 922.072 107.927L923.102 115.255L919.983 115.694L918.988 108.613C918.858 107.689 918.53 107.028 918.002 106.631C917.492 106.232 916.816 106.091 915.974 106.209C915.017 106.344 914.319 106.77 913.882 107.488C913.442 108.189 913.302 109.109 913.462 110.248L914.338 116.487L911.219 116.925ZM925.024 108.775L924.969 108.378C924.788 107.091 924.889 105.958 925.273 104.978C925.655 103.982 926.233 103.185 927.008 102.588C927.796 101.973 928.694 101.594 929.701 101.453C930.823 101.295 931.701 101.373 932.334 101.688C932.968 102.003 933.446 102.357 933.771 102.749L934.216 102.686L934.008 101.201L937.078 100.769L939.109 115.227C939.228 116.069 939.074 116.772 938.649 117.337C938.225 117.918 937.601 118.267 936.776 118.383L928.557 119.538L928.174 116.815L935.304 115.812C935.766 115.748 935.962 115.467 935.893 114.972L935.444 111.779L934.998 111.841C934.87 112.129 934.678 112.433 934.42 112.756C934.16 113.062 933.795 113.34 933.326 113.591C932.856 113.842 932.241 114.021 931.482 114.128C930.476 114.269 929.509 114.161 928.584 113.803C927.673 113.426 926.897 112.82 926.258 111.984C925.617 111.132 925.205 110.062 925.024 108.775ZM931.991 111.279C932.948 111.145 933.706 110.727 934.263 110.026C934.821 109.325 935.023 108.421 934.867 107.316L934.832 107.068C934.675 105.946 934.232 105.133 933.505 104.629C932.792 104.106 931.949 103.914 930.975 104.05C930.018 104.185 929.26 104.603 928.702 105.304C928.142 105.989 927.941 106.892 928.099 108.014L928.133 108.262C928.289 109.368 928.731 110.181 929.461 110.701C930.19 111.221 931.034 111.414 931.991 111.279ZM948.548 111.679L946.822 99.3997L949.892 98.9683L950.118 100.577L950.563 100.515C950.701 100.058 951.016 99.6014 951.507 99.1452C951.996 98.6726 952.793 98.3585 953.899 98.2031C954.856 98.0686 955.721 98.1743 956.494 98.5201C957.28 98.8472 957.926 99.3708 958.431 100.091C958.934 100.794 959.257 101.658 959.401 102.681L960.431 110.009L957.311 110.447L956.316 103.367C956.186 102.443 955.858 101.782 955.331 101.385C954.82 100.985 954.144 100.845 953.302 100.963C952.345 101.098 951.648 101.524 951.21 102.242C950.77 102.943 950.63 103.863 950.79 105.002L951.667 111.241L948.548 111.679ZM969.694 109.061C968.473 109.232 967.341 109.139 966.297 108.781C965.254 108.422 964.385 107.812 963.692 106.95C962.999 106.088 962.559 104.997 962.374 103.677L962.318 103.281C962.132 101.961 962.254 100.791 962.683 99.7709C963.112 98.7513 963.779 97.9255 964.683 97.2935C965.587 96.6615 966.65 96.2597 967.871 96.088C969.092 95.9164 970.225 96.0097 971.268 96.368C972.311 96.7263 973.18 97.3363 973.873 98.1982C974.567 99.0601 975.006 100.151 975.192 101.472L975.247 101.868C975.433 103.188 975.311 104.358 974.882 105.378C974.453 106.397 973.787 107.223 972.882 107.855C971.978 108.487 970.916 108.889 969.694 109.061ZM969.305 106.288C970.262 106.153 971.011 105.737 971.552 105.038C972.091 104.322 972.28 103.387 972.117 102.232L972.083 101.984C971.92 100.829 971.483 99.99 970.77 99.4675C970.071 98.9262 969.235 98.7239 968.261 98.8608C967.303 98.9953 966.555 99.4202 966.016 100.136C965.475 100.834 965.285 101.761 965.448 102.917L965.483 103.164C965.645 104.32 966.084 105.167 966.799 105.706C967.512 106.228 968.347 106.422 969.305 106.288ZM979.903 107.272L976.445 95.2365L979.539 94.8016L982.059 104.824L982.504 104.761L982.659 94.3632L987.66 93.6604L990.674 103.613L991.12 103.55L990.779 93.222L993.873 92.7871L993.866 105.31L988.692 106.037L985.678 96.0848L985.232 96.1474L985.078 106.545L979.903 107.272Z" fill="black"/>
<path d="M1021.25 101.462L1018.81 84.1323L1024.88 83.2799L1029.99 97.9604L1030.44 97.8978L1031.31 82.3752L1037.38 81.5228L1039.81 98.8525L1036.64 99.2978L1034.55 84.3695L1034.1 84.4322L1033.23 99.778L1027.83 100.536L1022.76 86.0257L1022.32 86.0883L1024.41 101.017L1021.25 101.462ZM1043.18 98.3799L1041.45 86.1005L1044.57 85.6621L1046.3 97.9415L1043.18 98.3799ZM1042.81 84.4455C1042.25 84.5243 1041.74 84.41 1041.3 84.1026C1040.87 83.7929 1040.61 83.3409 1040.52 82.7467C1040.44 82.1526 1040.56 81.6473 1040.89 81.2308C1041.24 80.8121 1041.69 80.5632 1042.25 80.4844C1042.83 80.4032 1043.33 80.5175 1043.76 80.8272C1044.19 81.137 1044.45 81.5889 1044.54 82.1831C1044.62 82.7773 1044.5 83.2826 1044.17 83.699C1043.84 84.1155 1043.39 84.3643 1042.81 84.4455ZM1049.75 97.4557L1048.03 85.1763L1051.1 84.7449L1051.32 86.3541L1051.77 86.2915C1051.91 85.8345 1052.22 85.378 1052.71 84.9218C1053.2 84.4492 1054 84.1351 1055.1 83.9797C1056.06 83.8452 1056.93 83.9509 1057.7 84.2967C1058.48 84.6238 1059.13 85.1473 1059.64 85.8674C1060.14 86.5709 1060.46 87.4343 1060.61 88.4576L1061.64 95.7856L1058.52 96.224L1057.52 89.1436C1057.39 88.2193 1057.06 87.5586 1056.54 87.1614C1056.02 86.7619 1055.35 86.6213 1054.51 86.7396C1053.55 86.8742 1052.85 87.3004 1052.41 88.0183C1051.97 88.7197 1051.83 89.6398 1051.99 90.7786L1052.87 97.0173L1049.75 97.4557ZM1069.37 94.6982C1068.56 94.8118 1067.87 94.657 1067.29 94.2338C1066.72 93.7918 1066.38 93.1499 1066.26 92.3081L1065.29 85.3763L1062.22 85.8077L1061.85 83.233L1064.92 82.8016L1064.39 78.989L1067.51 78.5506L1068.04 82.3632L1071.41 81.89L1071.77 84.4647L1068.41 84.9379L1069.3 91.3251C1069.37 91.8202 1069.64 92.0353 1070.1 91.9704L1072.48 91.6364L1072.84 94.2111L1069.37 94.6982ZM1075.96 93.7725L1074.23 81.4932L1077.35 81.0548L1079.08 93.3341L1075.96 93.7725ZM1075.59 79.8381C1075.03 79.9169 1074.53 79.8026 1074.08 79.4952C1073.65 79.1855 1073.39 78.7335 1073.31 78.1394C1073.22 77.5452 1073.35 77.0399 1073.68 76.6234C1074.02 76.2047 1074.47 75.9559 1075.03 75.877C1075.61 75.7958 1076.12 75.9101 1076.55 76.2198C1076.98 76.5296 1077.24 76.9815 1077.32 77.5757C1077.4 78.1699 1077.28 78.6752 1076.95 79.0916C1076.62 79.5081 1076.17 79.7569 1075.59 79.8381ZM1082.54 92.8483L1080.81 80.569L1083.88 80.1375L1084.11 81.7467L1084.55 81.6841C1084.69 81.2271 1085 80.7706 1085.49 80.3144C1085.98 79.8418 1086.78 79.5277 1087.89 79.3723C1088.84 79.2378 1089.71 79.3435 1090.48 79.6894C1091.27 80.0164 1091.91 80.54 1092.42 81.26C1092.92 81.9635 1093.25 82.8269 1093.39 83.8502L1094.42 91.1782L1091.3 91.6166L1090.3 84.5362C1090.17 83.6119 1089.85 82.9512 1089.32 82.554C1088.81 82.1545 1088.13 82.0139 1087.29 82.1322C1086.33 82.2668 1085.64 82.693 1085.2 83.4109C1084.76 84.1123 1084.62 85.0324 1084.78 86.1712L1085.65 92.4099L1082.54 92.8483ZM1096.34 84.6976L1096.29 84.3015C1096.1 83.0142 1096.21 81.8807 1096.59 80.901C1096.97 79.9049 1097.55 79.1083 1098.32 78.5114C1099.11 77.8957 1100.01 77.517 1101.02 77.3755C1102.14 77.2178 1103.02 77.2964 1103.65 77.6113C1104.28 77.9263 1104.76 78.2797 1105.09 78.6717L1105.53 78.6091L1105.32 77.1237L1108.39 76.6923L1110.43 91.1502C1110.54 91.9919 1110.39 92.6951 1109.97 93.2598C1109.54 93.8411 1108.92 94.1897 1108.09 94.3056L1099.87 95.4608L1099.49 92.7375L1106.62 91.7355C1107.08 91.6705 1107.28 91.3905 1107.21 90.8954L1106.76 87.7018L1106.31 87.7644C1106.19 88.0517 1105.99 88.3565 1105.74 88.6788C1105.48 88.9846 1105.11 89.2631 1104.64 89.5142C1104.17 89.7654 1103.56 89.9443 1102.8 90.051C1101.79 90.1925 1100.83 90.0842 1099.9 89.7262C1098.99 89.3494 1098.21 88.743 1097.57 87.9072C1096.93 87.0548 1096.52 85.985 1096.34 84.6976ZM1103.31 87.2025C1104.26 87.0679 1105.02 86.6501 1105.58 85.949C1106.14 85.2479 1106.34 84.3444 1106.18 83.2386L1106.15 82.991C1105.99 81.8687 1105.55 81.0557 1104.82 80.552C1104.11 80.0295 1103.26 79.8367 1102.29 79.9735C1101.33 80.1081 1100.58 80.5259 1100.02 81.227C1099.46 81.9116 1099.26 82.8151 1099.41 83.9374L1099.45 84.185C1099.61 85.2908 1100.05 86.1038 1100.78 86.624C1101.51 87.1442 1102.35 87.337 1103.31 87.2025ZM1119.86 87.6021L1118.14 75.3228L1121.21 74.8913L1121.43 76.5005L1121.88 76.4379C1122.02 75.981 1122.33 75.5244 1122.82 75.0683C1123.31 74.5956 1124.11 74.2816 1125.22 74.1262C1126.17 73.9916 1127.04 74.0973 1127.81 74.4432C1128.6 74.7702 1129.24 75.2938 1129.75 76.0138C1130.25 76.7174 1130.57 77.5808 1130.72 78.604L1131.75 85.932L1128.63 86.3704L1127.63 79.29C1127.5 78.3658 1127.17 77.705 1126.65 77.3079C1126.14 76.9084 1125.46 76.7678 1124.62 76.8861C1123.66 77.0206 1122.96 77.4468 1122.53 78.1647C1122.09 78.8661 1121.95 79.7862 1122.11 80.925L1122.98 87.1637L1119.86 87.6021ZM1141.01 84.9836C1139.79 85.1552 1138.66 85.0619 1137.61 84.7036C1136.57 84.3453 1135.7 83.7353 1135.01 82.8734C1134.32 82.0115 1133.88 80.9204 1133.69 79.6L1133.63 79.2039C1133.45 77.8835 1133.57 76.7135 1134 75.6939C1134.43 74.6743 1135.1 73.8485 1136 73.2165C1136.9 72.5845 1137.97 72.1827 1139.19 72.0111C1140.41 71.8394 1141.54 71.9327 1142.58 72.291C1143.63 72.6493 1144.5 73.2594 1145.19 74.1213C1145.88 74.9832 1146.32 76.0743 1146.51 77.3946L1146.56 77.7908C1146.75 79.1111 1146.63 80.2811 1146.2 81.3007C1145.77 82.3203 1145.1 83.1461 1144.2 83.7781C1143.29 84.4101 1142.23 84.8119 1141.01 84.9836ZM1140.62 82.2108C1141.58 82.0763 1142.33 81.6596 1142.87 80.9608C1143.41 80.2455 1143.6 79.3102 1143.43 78.1549L1143.4 77.9073C1143.24 76.752 1142.8 75.9131 1142.09 75.3906C1141.39 74.8492 1140.55 74.647 1139.58 74.7838C1138.62 74.9184 1137.87 75.3433 1137.33 76.0586C1136.79 76.7574 1136.6 77.6845 1136.76 78.8398L1136.8 79.0873C1136.96 80.2427 1137.4 81.0898 1138.12 81.6288C1138.83 82.1514 1139.66 82.3454 1140.62 82.2108ZM1151.22 83.1953L1147.76 71.1596L1150.86 70.7246L1153.38 80.7465L1153.82 80.6839L1153.98 70.2862L1158.98 69.5834L1161.99 79.5357L1162.44 79.4731L1162.1 69.145L1165.19 68.7101L1165.18 81.233L1160.01 81.9602L1156.99 72.0078L1156.55 72.0705L1156.39 82.4681L1151.22 83.1953Z" fill="black"/>
<path d="M1192.56 77.385L1190.13 60.0553L1196.19 59.2029L1201.31 73.8835L1201.76 73.8209L1202.63 58.2983L1208.69 57.4458L1211.13 74.7755L1207.96 75.2209L1205.86 60.2926L1205.42 60.3552L1204.54 75.701L1199.15 76.4595L1194.08 61.9487L1193.63 62.0114L1195.73 76.9397L1192.56 77.385ZM1214.49 74.3029L1212.77 62.0236L1215.89 61.5852L1217.61 73.8645L1214.49 74.3029ZM1214.12 60.3685C1213.56 60.4474 1213.06 60.3331 1212.61 60.0256C1212.18 59.7159 1211.92 59.2639 1211.84 58.6698C1211.76 58.0756 1211.88 57.5703 1212.21 57.1539C1212.55 56.7351 1213.01 56.4863 1213.57 56.4074C1214.15 56.3262 1214.65 56.4405 1215.08 56.7503C1215.51 57.06 1215.77 57.512 1215.85 58.1061C1215.94 58.7003 1215.81 59.2056 1215.48 59.622C1215.16 60.0385 1214.7 60.2873 1214.12 60.3685ZM1221.07 73.3787L1219.34 61.0994L1222.41 60.6679L1222.64 62.2771L1223.08 62.2145C1223.22 61.7576 1223.54 61.301 1224.03 60.8449C1224.52 60.3722 1225.31 60.0582 1226.42 59.9028C1227.38 59.7682 1228.24 59.8739 1229.01 60.2198C1229.8 60.5468 1230.45 61.0704 1230.95 61.7904C1231.45 62.494 1231.78 63.3574 1231.92 64.3806L1232.95 71.7086L1229.83 72.147L1228.84 65.0666C1228.71 64.1424 1228.38 63.4816 1227.85 63.0845C1227.34 62.685 1226.67 62.5444 1225.82 62.6627C1224.87 62.7972 1224.17 63.2234 1223.73 63.9413C1223.29 64.6427 1223.15 65.5628 1223.31 66.7016L1224.19 72.9403L1221.07 73.3787ZM1240.69 70.6212C1239.88 70.7349 1239.19 70.5801 1238.6 70.1568C1238.04 69.7148 1237.69 69.0729 1237.58 68.2312L1236.6 61.2993L1233.53 61.7307L1233.17 59.156L1236.24 58.7246L1235.7 54.9121L1238.82 54.4737L1239.36 58.2862L1242.73 57.813L1243.09 60.3877L1239.72 60.8609L1240.62 67.2481C1240.69 67.7433 1240.95 67.9584 1241.42 67.8934L1243.79 67.5594L1244.16 70.1341L1240.69 70.6212ZM1247.28 69.6955L1245.55 57.4162L1248.67 56.9778L1250.4 69.2571L1247.28 69.6955ZM1246.91 55.7611C1246.35 55.84 1245.84 55.7257 1245.4 55.4183C1244.96 55.1085 1244.71 54.6566 1244.62 54.0624C1244.54 53.4682 1244.66 52.9629 1244.99 52.5465C1245.34 52.1277 1245.79 51.8789 1246.35 51.8C1246.93 51.7188 1247.43 51.8331 1247.86 52.1429C1248.29 52.4526 1248.55 52.9046 1248.63 53.4987C1248.72 54.0929 1248.6 54.5982 1248.27 55.0147C1247.94 55.4311 1247.49 55.6799 1246.91 55.7611ZM1253.85 68.7713L1252.13 56.492L1255.2 56.0606L1255.42 57.6697L1255.87 57.6071C1256.01 57.1502 1256.32 56.6936 1256.81 56.2375C1257.3 55.7648 1258.1 55.4508 1259.2 55.2954C1260.16 55.1608 1261.03 55.2665 1261.8 55.6124C1262.58 55.9394 1263.23 56.463 1263.74 57.183C1264.24 57.8866 1264.56 58.75 1264.71 59.7733L1265.74 67.1012L1262.62 67.5396L1261.62 60.4592C1261.49 59.535 1261.16 58.8743 1260.64 58.4771C1260.12 58.0776 1259.45 57.937 1258.61 58.0553C1257.65 58.1898 1256.95 58.616 1256.51 59.3339C1256.07 60.0353 1255.93 60.9554 1256.09 62.0942L1256.97 68.3329L1253.85 68.7713ZM1267.66 60.6207L1267.6 60.2246C1267.42 58.9372 1267.52 57.8037 1267.91 56.8241C1268.29 55.8279 1268.87 55.0314 1269.64 54.4344C1270.43 53.8187 1271.33 53.4401 1272.33 53.2986C1273.46 53.1408 1274.33 53.2194 1274.97 53.5344C1275.6 53.8493 1276.08 54.2027 1276.4 54.5948L1276.85 54.5321L1276.64 53.0467L1279.71 52.6153L1281.74 67.0732C1281.86 67.9149 1281.71 68.6182 1281.28 69.1829C1280.86 69.7641 1280.23 70.1127 1279.41 70.2287L1271.19 71.3838L1270.81 68.6606L1277.94 67.6585C1278.4 67.5936 1278.6 67.3135 1278.53 66.8184L1278.08 63.6248L1277.63 63.6874C1277.5 63.9747 1277.31 64.2795 1277.05 64.6018C1276.79 64.9076 1276.43 65.1861 1275.96 65.4373C1275.49 65.6884 1274.87 65.8673 1274.12 65.974C1273.11 66.1155 1272.14 66.0072 1271.22 65.6492C1270.31 65.2724 1269.53 64.6661 1268.89 63.8302C1268.25 62.9779 1267.84 61.908 1267.66 60.6207ZM1274.62 63.1255C1275.58 62.991 1276.34 62.5731 1276.9 61.872C1277.45 61.1709 1277.66 60.2674 1277.5 59.1616L1277.47 58.9141C1277.31 57.7918 1276.86 56.9788 1276.14 56.4751C1275.42 55.9525 1274.58 55.7597 1273.61 55.8966C1272.65 56.0311 1271.89 56.4489 1271.33 57.15C1270.77 57.8347 1270.57 58.7381 1270.73 59.8604L1270.77 60.108C1270.92 61.2138 1271.36 62.0268 1272.09 62.547C1272.82 63.0672 1273.67 63.26 1274.62 63.1255ZM1291.18 63.5251L1289.45 51.2458L1292.52 50.8144L1292.75 52.4236L1293.2 52.3609C1293.33 51.904 1293.65 51.4474 1294.14 50.9913C1294.63 50.5186 1295.43 50.2046 1296.53 50.0492C1297.49 49.9147 1298.35 50.0203 1299.13 50.3662C1299.91 50.6933 1300.56 51.2168 1301.06 51.9369C1301.57 52.6404 1301.89 53.5038 1302.03 54.5271L1303.06 61.8551L1299.94 62.2935L1298.95 55.213C1298.82 54.2888 1298.49 53.6281 1297.96 53.2309C1297.45 52.8314 1296.78 52.6908 1295.94 52.8091C1294.98 52.9436 1294.28 53.3699 1293.84 54.0878C1293.4 54.7891 1293.26 55.7092 1293.42 56.8481L1294.3 63.0867L1291.18 63.5251ZM1312.33 60.9066C1311.11 61.0783 1309.97 60.9849 1308.93 60.6267C1307.89 60.2684 1307.02 59.6583 1306.32 58.7964C1305.63 57.9345 1305.19 56.8434 1305.01 55.523L1304.95 55.1269C1304.77 53.8066 1304.89 52.6366 1305.32 51.617C1305.74 50.5973 1306.41 49.7715 1307.32 49.1396C1308.22 48.5076 1309.28 48.1057 1310.5 47.9341C1311.73 47.7625 1312.86 47.8558 1313.9 48.2141C1314.94 48.5723 1315.81 49.1824 1316.51 50.0443C1317.2 50.9062 1317.64 51.9973 1317.82 53.3177L1317.88 53.7138C1318.07 55.0341 1317.94 56.2041 1317.51 57.2238C1317.09 58.2434 1316.42 59.0692 1315.52 59.7012C1314.61 60.3332 1313.55 60.735 1312.33 60.9066ZM1311.94 58.1339C1312.89 57.9993 1313.64 57.5827 1314.19 56.8839C1314.72 56.1685 1314.91 55.2332 1314.75 54.0779L1314.72 53.8303C1314.55 52.675 1314.12 51.8361 1313.4 51.3136C1312.7 50.7722 1311.87 50.57 1310.89 50.7069C1309.94 50.8414 1309.19 51.2663 1308.65 51.9816C1308.11 52.6804 1307.92 53.6075 1308.08 54.7628L1308.12 55.0104C1308.28 56.1657 1308.72 57.0129 1309.43 57.5519C1310.14 58.0744 1310.98 58.2684 1311.94 58.1339ZM1322.54 59.1184L1319.08 47.0826L1322.17 46.6477L1324.69 56.6696L1325.14 56.607L1325.29 46.2093L1330.29 45.5064L1333.31 55.4588L1333.75 55.3961L1333.41 45.0681L1336.51 44.6331L1336.5 57.156L1331.32 57.8832L1328.31 47.9309L1327.86 47.9935L1327.71 58.3912L1322.54 59.1184Z" fill="black"/>
<path d="M1363.88 53.3081L1361.44 35.9784L1367.51 35.126L1372.63 49.8066L1373.07 49.7439L1373.95 34.2214L1380.01 33.3689L1382.45 50.6986L1379.28 51.144L1377.18 36.2157L1376.73 36.2783L1375.86 51.6241L1370.46 52.3826L1365.4 37.8718L1364.95 37.9345L1367.05 52.8628L1363.88 53.3081ZM1385.81 50.226L1384.08 37.9467L1387.2 37.5083L1388.93 49.7876L1385.81 50.226ZM1385.44 36.2916C1384.88 36.3705 1384.38 36.2562 1383.93 35.9487C1383.5 35.639 1383.24 35.187 1383.16 34.5929C1383.07 33.9987 1383.2 33.4934 1383.53 33.077C1383.87 32.6582 1384.32 32.4094 1384.88 32.3305C1385.46 32.2493 1385.97 32.3636 1386.4 32.6734C1386.83 32.9831 1387.08 33.4351 1387.17 34.0292C1387.25 34.6234 1387.13 35.1287 1386.8 35.5451C1386.47 35.9616 1386.02 36.2104 1385.44 36.2916ZM1392.38 49.3018L1390.66 37.0225L1393.73 36.591L1393.96 38.2002L1394.4 38.1376C1394.54 37.6806 1394.85 37.2241 1395.34 36.768C1395.83 36.2953 1396.63 35.9813 1397.74 35.8259C1398.69 35.6913 1399.56 35.797 1400.33 36.1429C1401.12 36.4699 1401.76 36.9935 1402.27 37.7135C1402.77 38.4171 1403.09 39.2805 1403.24 40.3037L1404.27 47.6317L1401.15 48.0701L1400.15 40.9897C1400.02 40.0655 1399.7 39.4047 1399.17 39.0076C1398.66 38.6081 1397.98 38.4675 1397.14 38.5858C1396.18 38.7203 1395.49 39.1465 1395.05 39.8644C1394.61 40.5658 1394.47 41.4859 1394.63 42.6247L1395.5 48.8634L1392.38 49.3018ZM1412.01 46.5443C1411.2 46.658 1410.5 46.5032 1409.92 46.0799C1409.35 45.6379 1409.01 44.996 1408.89 44.1543L1407.92 37.2224L1404.85 37.6538L1404.49 35.0791L1407.56 34.6477L1407.02 30.8352L1410.14 30.3968L1410.68 34.2093L1414.04 33.7361L1414.4 36.3108L1411.04 36.784L1411.94 43.1712C1412.01 43.6664 1412.27 43.8815 1412.73 43.8165L1415.11 43.4825L1415.47 46.0572L1412.01 46.5443ZM1418.59 45.6186L1416.87 33.3393L1419.99 32.9009L1421.71 45.1802L1418.59 45.6186ZM1418.22 31.6842C1417.66 31.7631 1417.16 31.6488 1416.71 31.3414C1416.28 31.0316 1416.02 30.5796 1415.94 29.9855C1415.86 29.3913 1415.98 28.886 1416.31 28.4696C1416.65 28.0508 1417.11 27.802 1417.67 27.7231C1418.25 27.6419 1418.75 27.7562 1419.18 28.066C1419.61 28.3757 1419.87 28.8277 1419.95 29.4218C1420.03 30.016 1419.91 30.5213 1419.58 30.9377C1419.26 31.3542 1418.8 31.603 1418.22 31.6842ZM1425.17 44.6944L1423.44 32.4151L1426.51 31.9837L1426.74 33.5928L1427.18 33.5302C1427.32 33.0733 1427.64 32.6167 1428.13 32.1606C1428.62 31.6879 1429.41 31.3739 1430.52 31.2185C1431.48 31.0839 1432.34 31.1896 1433.11 31.5355C1433.9 31.8625 1434.55 32.3861 1435.05 33.1061C1435.55 33.8097 1435.88 34.6731 1436.02 35.6964L1437.05 43.0243L1433.93 43.4627L1432.94 36.3823C1432.81 35.4581 1432.48 34.7973 1431.95 34.4002C1431.44 34.0007 1430.76 33.8601 1429.92 33.9784C1428.97 34.1129 1428.27 34.5391 1427.83 35.257C1427.39 35.9584 1427.25 36.8785 1427.41 38.0173L1428.29 44.256L1425.17 44.6944ZM1438.97 36.5438L1438.92 36.1477C1438.74 34.8603 1438.84 33.7268 1439.22 32.7472C1439.6 31.751 1440.18 30.9545 1440.96 30.3575C1441.75 29.7418 1442.64 29.3632 1443.65 29.2217C1444.77 29.0639 1445.65 29.1425 1446.28 29.4575C1446.92 29.7724 1447.4 30.1258 1447.72 30.5178L1448.17 30.4552L1447.96 28.9698L1451.03 28.5384L1453.06 42.9963C1453.18 43.838 1453.02 44.5412 1452.6 45.106C1452.17 45.6872 1451.55 46.0358 1450.73 46.1518L1442.51 47.3069L1442.12 44.5837L1449.25 43.5816C1449.72 43.5167 1449.91 43.2366 1449.84 42.7415L1449.39 39.5479L1448.95 39.6105C1448.82 39.8978 1448.63 40.2026 1448.37 40.5249C1448.11 40.8307 1447.74 41.1092 1447.27 41.3603C1446.81 41.6115 1446.19 41.7904 1445.43 41.8971C1444.42 42.0386 1443.46 41.9303 1442.53 41.5723C1441.62 41.1955 1440.85 40.5891 1440.21 39.7533C1439.57 38.901 1439.15 37.8311 1438.97 36.5438ZM1445.94 39.0486C1446.9 38.9141 1447.65 38.4962 1448.21 37.7951C1448.77 37.094 1448.97 36.1905 1448.82 35.0847L1448.78 34.8372C1448.62 33.7149 1448.18 32.9019 1447.45 32.3982C1446.74 31.8756 1445.9 31.6828 1444.92 31.8197C1443.97 31.9542 1443.21 32.372 1442.65 33.0731C1442.09 33.7578 1441.89 34.6612 1442.05 35.7835L1442.08 36.0311C1442.24 37.1369 1442.68 37.9499 1443.41 38.4701C1444.14 38.9903 1444.98 39.1831 1445.94 39.0486ZM1462.5 39.4482L1460.77 27.1689L1463.84 26.7375L1464.07 28.3467L1464.51 28.284C1464.65 27.8271 1464.96 27.3705 1465.46 26.9144C1465.95 26.4417 1466.74 26.1277 1467.85 25.9723C1468.81 25.8378 1469.67 25.9434 1470.44 26.2893C1471.23 26.6164 1471.88 27.1399 1472.38 27.86C1472.88 28.5635 1473.21 29.4269 1473.35 30.4502L1474.38 37.7782L1471.26 38.2166L1470.27 31.1361C1470.14 30.2119 1469.81 29.5512 1469.28 29.154C1468.77 28.7545 1468.09 28.6139 1467.25 28.7322C1466.29 28.8667 1465.6 29.2929 1465.16 30.0108C1464.72 30.7122 1464.58 31.6323 1464.74 32.7712L1465.62 39.0098L1462.5 39.4482ZM1483.64 36.8297C1482.42 37.0014 1481.29 36.908 1480.25 36.5498C1479.2 36.1915 1478.33 35.5814 1477.64 34.7195C1476.95 33.8576 1476.51 32.7665 1476.32 31.4461L1476.27 31.05C1476.08 29.7297 1476.2 28.5597 1476.63 27.5401C1477.06 26.5204 1477.73 25.6946 1478.63 25.0627C1479.54 24.4307 1480.6 24.0288 1481.82 23.8572C1483.04 23.6856 1484.17 23.7789 1485.22 24.1371C1486.26 24.4954 1487.13 25.1055 1487.82 25.9674C1488.52 26.8293 1488.96 27.9204 1489.14 29.2408L1489.2 29.6369C1489.38 30.9572 1489.26 32.1272 1488.83 33.1468C1488.4 34.1665 1487.74 34.9923 1486.83 35.6243C1485.93 36.2562 1484.86 36.6581 1483.64 36.8297ZM1483.25 34.057C1484.21 33.9224 1484.96 33.5058 1485.5 32.8069C1486.04 32.0916 1486.23 31.1563 1486.07 30.001L1486.03 29.7534C1485.87 28.5981 1485.43 27.7592 1484.72 27.2367C1484.02 26.6953 1483.18 26.4931 1482.21 26.6299C1481.25 26.7645 1480.5 27.1894 1479.97 27.9047C1479.42 28.6035 1479.23 29.5306 1479.4 30.6859L1479.43 30.9335C1479.59 32.0888 1480.03 32.936 1480.75 33.475C1481.46 33.9975 1482.3 34.1915 1483.25 34.057ZM1493.85 35.0415L1490.39 23.0057L1493.49 22.5708L1496.01 32.5927L1496.45 32.5301L1496.61 22.1324L1501.61 21.4295L1504.62 31.3819L1505.07 31.3192L1504.73 20.9911L1507.82 20.5562V33.0791L1502.64 33.8063L1499.63 23.854L1499.18 23.9166L1499.03 34.3143L1493.85 35.0415Z" fill="black"/>
</g>
<defs>
<clipPath id="clip0_6_15">
<rect width="1440" height="237" fill="white"/>
</clipPath>
<clipPath id="clip1_6_15">
<rect width="1440" height="262" fill="white"/>
</clipPath>
</defs>
</svg>
