<svg width="575" height="294" viewBox="0 0 575 294" fill="none" xmlns="http://www.w3.org/2000/svg">
<path d="M226.375 10.3815C221.49 7.93883 212.94 4.47831 207.241 3.05339C201.745 1.42492 190.142 0 181.796 0C173.246 0 161.033 1.42493 154.315 3.25696C147.598 5.089 138.438 9.16016 133.959 12.01C129.481 15.0634 122.56 21.1702 118.693 25.4449C114.621 29.9232 109.125 37.8621 106.479 43.1546C102.204 51.5005 100.779 52.9254 97.3188 51.7041C95.0797 50.8898 89.9907 49.6685 86.123 48.8542C82.2554 48.04 76.3522 48.04 72.8917 48.8542C69.6348 49.6685 63.7315 53.3325 60.271 56.5895C56.6069 60.05 52.7393 66.3604 51.5179 70.6351C50.5002 74.7063 49.4824 80.2024 49.4824 82.8487C49.4824 85.2914 47.8539 87.9376 46.0219 88.5483C43.9863 89.159 40.9329 90.5839 39.3044 91.6017C37.6759 92.6195 33.8083 94.4515 30.7549 95.4693C27.4979 96.6907 25.0552 98.9298 25.0552 100.558C25.0552 102.187 23.4268 104.222 21.5947 105.037C19.5591 105.851 16.3022 107.886 14.2665 109.718C12.4345 111.347 10.8061 114.197 10.8061 115.825C10.8061 117.861 12.4345 117.25 16.3022 113.383C19.5591 110.533 25.666 106.258 30.1442 104.019C34.6226 101.576 42.3578 99.1334 47.4468 98.5227C52.9429 97.5049 61.2888 98.1156 67.8027 99.5405C73.9095 100.965 82.459 104.426 86.7337 107.072C90.8049 109.515 96.9117 114.807 100.372 118.472C103.629 121.932 106.886 126.614 107.497 128.65C108.311 131.499 109.329 131.703 114.214 130.074C117.268 128.853 121.949 128.242 124.799 128.853C127.649 129.464 131.72 131.906 138.031 138.217L141.695 129.667C143.73 124.782 148.412 117.25 152.076 112.772C155.74 108.294 162.661 102.39 167.75 99.7441C175.078 95.6729 179.557 94.6551 191.974 94.8587C205.205 94.8587 208.869 95.6729 218.437 100.965C224.543 104.426 233.5 111.347 238.182 116.029C242.864 120.914 248.156 126.817 249.785 129.057C251.413 131.296 254.67 138.624 256.909 145.341C259.352 152.262 261.184 161.423 260.37 175.875L250.192 170.99C241.439 166.919 237.775 166.308 226.579 167.326C218.844 167.936 210.294 170.176 205.816 172.618C201.541 175.061 198.081 177.3 198.081 177.911C198.081 178.522 203.373 178.318 209.887 177.707C216.401 176.893 225.765 177.3 231.668 178.725C237.571 180.15 246.121 184.221 262.202 196.842L269.326 188.903C273.194 184.628 279.708 180.15 283.576 179.132C287.443 177.911 294.161 176.893 305.967 176.893L303.117 170.379C301.082 165.494 300.674 161.219 302.099 154.502C303.117 149.005 305.967 143.102 309.428 139.642C314.313 134.756 315.127 131.906 315.738 120.304C316.145 111.958 318.181 103.001 320.827 96.8942C324.491 88.9554 327.137 86.3091 334.058 83.0522C340.979 79.9988 344.033 79.5917 349.732 81.2202C353.804 82.4415 358.893 86.1056 361.742 89.9732C364.389 93.4338 367.238 98.7263 368.053 101.576C368.867 104.426 370.292 107.072 370.903 107.683C371.717 108.294 373.142 111.754 374.363 115.418C375.991 121.321 377.62 122.746 386.577 125.596C392.48 127.428 399.604 131.296 402.658 134.146C405.711 136.995 409.782 142.899 415.278 155.519L417.721 149.413C418.943 146.156 419.553 140.049 419.35 136.181C418.943 132.314 417.314 126.817 415.889 123.968C414.261 121.118 411.207 117.454 408.968 115.418C406.525 113.586 405.101 111.551 405.711 110.94C406.322 110.329 409.986 109.311 413.854 108.497C419.35 107.683 422.607 108.497 428.103 112.161C431.97 114.807 437.059 120.711 439.095 124.985C441.13 129.464 442.963 136.995 443.166 141.677C443.37 146.563 443.777 150.43 444.387 150.43C444.998 150.43 446.423 149.413 447.441 148.191C448.662 146.97 455.99 146.359 466.779 146.766C480.417 147.377 485.914 148.598 493.038 152.466C498.127 155.316 502.402 158.776 502.809 160.201C503.216 161.423 501.384 163.051 498.941 163.662C496.295 164.069 488.967 167.326 482.657 170.786C476.143 174.043 470.85 177.707 470.85 178.929C470.85 180.15 476.346 180.964 483.064 180.964C490.392 180.964 499.552 182.593 506.066 185.035C511.766 187.275 516.855 189.107 517.262 189.107C517.465 189.107 518.076 187.071 518.483 184.628C519.094 181.575 522.351 178.522 528.254 175.875C533.139 173.636 540.671 171.804 545.149 172.008C551.256 172.008 554.513 170.583 558.381 166.715C561.23 163.865 565.912 160.405 569.169 158.98C572.223 157.555 577.108 156.537 580.365 156.537C583.418 156.537 588.915 158.369 592.579 160.608C596.446 163.051 600.721 168.344 603.164 173.84C605.606 179.336 606.624 184.832 606.014 187.682C604.792 191.346 604.996 191.753 607.438 189.717C609.067 188.292 616.802 185.646 624.537 184.018C632.476 182.389 641.636 180.964 644.893 180.964C648.354 180.964 652.425 181.982 654.054 183C656.7 184.628 656.496 185.035 653.646 185.035C651.611 185.035 647.947 186.257 645.504 187.682C643.061 188.903 638.99 192.364 636.547 195.213C634.105 198.063 632.069 200.506 632.273 200.71C632.476 200.913 637.769 199.692 643.876 198.063C649.982 196.435 662.399 195.213 671.356 195.417C685.605 195.621 689.473 194.806 701.89 189.107C712.475 184.221 720.007 182.186 731.406 181.575C740.363 180.964 751.762 181.575 758.887 183C766.825 184.832 774.154 188.089 779.853 192.567C784.535 196.231 789.013 198.877 790.031 198.267C790.845 197.656 790.438 193.381 786.571 179.946L802.245 181.168C813.644 181.982 820.972 183.814 840.31 193.585L851.506 190.124C859.852 187.478 866.366 186.867 876.951 187.682C884.89 188.292 895.882 190.735 901.378 192.974C908.503 195.824 917.256 197.045 930.894 197.453C941.479 197.656 957.968 196.638 967.535 195.417C977.102 194.196 991.758 191.956 1000.1 190.735C1008.45 189.514 1016.59 187.885 1017.81 187.275C1019.65 186.46 1019.04 184.018 1015.37 178.522C1012.52 174.247 1008.65 170.583 1006.82 170.583C1004.79 170.379 989.519 170.176 972.624 169.972C942.391 169.769 941.889 169.566 922.936 161.904L922.752 161.83C912.167 157.555 899.343 152.873 894.254 151.245C889.165 149.82 879.19 148.395 871.862 148.395C862.295 148.395 855.781 149.82 848.453 153.077C842.957 155.723 836.85 159.591 835.221 161.83C833.593 164.272 830.743 166.512 829.115 167.122C827.283 167.529 823.822 165.29 820.972 161.83C818.122 158.573 812.83 154.705 809.369 153.077C805.705 151.652 798.377 150.43 793.085 150.43C787.588 150.43 779.446 152.262 766.011 158.573L757.462 150.837C752.576 146.563 744.23 140.863 738.531 138.217C730.592 134.349 725.096 133.128 714.104 133.128C703.111 133.128 697.819 134.146 690.694 137.81C685.605 140.456 678.684 145.545 675.02 149.005C671.56 152.67 668.303 154.705 667.896 153.484C667.692 152.262 663.621 149.005 659.143 145.952C654.664 142.899 646.115 138.42 640.415 136.181C634.512 133.942 624.334 131.499 618.024 130.889C610.288 130.278 602.757 130.889 596.039 132.924C590.543 134.553 584.436 135.367 582.808 134.553C580.365 133.535 580.161 133.942 581.79 136.181C583.215 138.42 583.215 138.827 581.179 137.81C579.958 136.792 578.737 133.739 578.737 130.685C578.737 127.428 577.719 123.357 576.294 121.525C574.869 119.489 569.984 116.639 565.505 115.011C561.027 113.383 556.549 112.568 555.531 113.383C554.513 114.197 554.513 111.754 555.531 107.683C556.549 103.815 557.159 97.3013 557.159 93.4337C557.159 89.5661 556.549 82.8487 555.734 78.7775C554.92 74.2992 551.256 67.5817 547.185 62.8998C543.317 58.4215 539.653 55.3682 539.043 56.386C538.432 57.2002 537.618 56.1824 537.007 54.3504C536.396 52.3148 535.175 51.0934 533.954 51.7041C532.936 52.3147 531.918 51.9076 531.918 50.6863C531.918 49.4649 530.493 49.0578 528.865 49.6685C527.236 50.2791 525.811 50.0756 525.811 49.2614C525.811 48.2436 524.183 47.4293 522.351 47.2258C520.315 47.0222 513.801 46.6151 507.898 46.208C501.791 45.8009 496.499 46.208 496.091 47.2258C495.684 48.04 493.649 48.6507 491.817 48.6507C489.781 48.6507 482.657 51.0934 475.939 53.9432C469.222 56.7931 462.504 59.6429 460.876 60.4571C459.451 61.2714 458.433 61.0678 458.637 59.8464C459.044 58.6251 458.229 54.961 456.805 51.7041C455.38 48.4471 451.919 43.1546 448.866 39.8976C445.812 36.8442 440.113 33.3837 436.245 32.1623C432.377 30.941 426.474 30.5339 423.014 31.1446C419.757 31.9588 413.446 35.0122 409.375 38.0656C405.1 41.119 402.454 44.376 403.268 45.1902C404.083 46.208 403.065 46.4115 401.233 45.8008C399.197 45.1902 397.162 42.951 396.551 41.119C396.144 39.0834 392.887 35.0122 389.426 31.9588C386.169 28.7019 379.859 24.2236 375.788 21.7809C369.885 18.5239 364.389 17.5061 352.786 17.3025C340.165 17.099 335.483 18.1168 326.323 22.5951C319.606 25.6485 312.481 31.3481 308.613 36.2335C304.949 40.9154 301.896 45.1902 301.896 46.208C301.896 47.0222 300.674 49.4649 299.046 51.7041C296.196 55.7752 295.993 55.7753 291.311 51.297C288.665 48.8543 283.372 46.208 279.504 45.8008C275.026 44.9866 270.751 45.8008 268.309 47.6329C266.07 49.2613 263.423 50.6863 262.202 50.6863C261.184 50.6863 257.927 46.2079 255.077 40.3047C252.227 34.6051 246.731 26.6663 242.66 22.5951C238.589 18.3204 231.261 13.0278 226.375 10.3815Z" fill="#FBFBFB"/>
<path d="M333.43 83.2559C337.909 81.2203 342.59 79.3883 343.608 79.3883C344.83 79.3883 348.697 80.8132 352.158 82.2381C355.618 83.663 360.3 87.5307 362.539 90.7876C364.778 94.0446 367.221 98.93 368.035 101.78C369.053 104.426 370.274 107.276 371.089 107.887C371.903 108.294 373.328 111.958 374.346 115.622C375.974 121.322 377.806 122.95 386.763 125.8C392.462 127.632 399.587 131.499 402.844 134.349C405.897 136.996 409.969 143.102 411.801 147.581L415.465 155.723C418.925 146.156 419.739 140.253 419.332 136.385C418.925 132.314 417.5 126.818 415.872 124.171C414.447 121.322 411.19 117.454 408.951 115.622C406.712 113.79 405.287 111.754 405.694 111.144C406.305 110.533 410.376 109.312 414.65 108.701C421.164 107.683 423.811 108.497 428.9 112.365C432.36 115.011 437.042 120.711 439.078 125.189C441.317 129.667 443.149 137.199 443.149 141.881C443.352 146.766 443.963 150.634 444.37 150.634C444.981 150.634 446.406 149.616 447.423 148.395C448.848 146.97 455.973 146.563 466.762 146.97C480.4 147.581 486.1 148.802 493.224 152.67C498.11 155.519 502.384 158.776 502.792 160.201C503.199 161.626 501.367 163.255 498.924 163.662C496.481 164.273 489.153 167.529 482.639 170.786C476.125 174.247 470.833 177.911 470.833 179.132C470.833 180.15 476.329 181.168 483.046 181.168C490.375 181.168 499.738 182.796 506.049 185.239C511.952 187.478 517.041 189.31 517.244 189.31C517.448 189.31 518.059 187.275 518.669 184.629C519.28 181.575 522.537 178.725 528.237 176.079C533.122 173.84 540.654 172.008 545.132 172.008C551.239 172.008 554.699 170.786 558.363 166.919C561.213 164.069 566.099 160.609 569.152 159.184C572.205 157.759 577.294 156.741 580.348 156.741C583.401 156.741 588.897 158.573 592.561 160.812C596.429 163.255 600.704 168.547 603.146 174.043C605.793 179.539 606.81 185.036 605.996 187.682C604.978 191.55 605.182 191.957 607.421 189.717C609.05 188.496 616.785 185.85 624.52 184.221C632.459 182.593 641.619 181.168 644.876 181.168C648.337 181.168 652.408 181.982 654.036 183.204C656.682 184.832 656.682 185.036 653.629 185.239C651.593 185.239 648.133 186.257 645.69 187.682C643.248 189.107 639.176 192.567 636.53 195.417C634.087 198.063 632.255 200.71 632.459 200.913C632.662 201.117 637.751 199.895 643.858 198.267C650.169 196.638 662.382 195.417 671.339 195.621C685.791 195.621 689.456 195.01 701.873 189.107C712.458 184.425 720.193 182.389 731.389 181.575C740.345 180.964 751.745 181.779 758.869 183.204C766.808 185.036 774.136 188.293 779.836 192.567C784.518 196.435 789.2 198.878 790.014 198.471C790.828 197.86 790.421 193.382 788.996 188.7L786.553 180.15C813.627 182.186 820.955 184.018 829.097 188.089L840.293 193.789C859.835 187.478 866.349 186.868 876.934 187.885C884.872 188.496 895.865 190.939 901.361 192.974C908.282 195.824 917.442 197.249 929.859 197.453C940.037 197.86 957.34 196.842 968.535 195.417C979.731 193.992 995.812 191.753 1004.16 190.125C1012.71 188.7 1019.83 187.885 1020.04 188.293C1020.24 188.496 1015.35 190.532 1008.84 192.364C1002.33 194.196 987.466 197.86 975.66 200.506C964.057 203.152 943.905 206.816 930.877 208.648C914.185 211.091 899.325 211.905 878.969 211.091C851.692 210.277 850.064 210.48 840.293 215.366C834.797 218.012 825.637 221.676 819.937 223.101C814.441 224.526 805.077 225.951 799.174 225.951C793.271 225.951 784.111 224.526 778.818 222.694C769.658 219.641 769.047 219.641 767.215 223.101C766.197 225.137 761.923 230.429 758.055 234.704C753.984 238.979 747.673 243.457 743.602 244.678C739.735 245.9 732.407 246.714 727.318 246.714C721.211 246.578 713.747 244.204 704.926 239.59L691.695 232.668C656.275 252.821 654.24 253.432 640.805 253.432C629.813 253.228 624.317 252.21 616.581 248.343C611.085 245.493 603.35 239.997 599.686 236.129C595.818 232.058 590.933 225.544 588.694 221.269C584.826 213.737 584.826 213.737 578.312 216.587C574.648 218.012 567.931 220.048 563.452 220.658C558.974 221.473 550.221 221.066 543.707 219.844C537.193 218.826 528.033 215.977 523.351 213.737C518.669 211.498 514.394 209.666 514.191 209.666C513.987 209.666 513.173 212.516 512.359 216.18C511.748 219.844 509.102 226.562 506.659 231.04C504.013 235.518 498.313 241.625 494.039 244.475C489.764 247.528 481.214 251.396 474.904 253.228C468.797 255.06 456.991 256.485 448.441 256.485C440.095 256.281 427.678 254.856 420.961 253.228C414.243 251.396 403.862 247.121 397.551 243.864C391.445 240.404 384.32 235.925 381.877 233.686C377.399 230.022 377.195 230.022 367.628 235.111C359.079 239.793 356.025 240.404 342.59 239.59C334.245 239.182 325.899 238.165 323.863 237.35C321.013 236.333 319.385 237.961 316.535 244.678C314.499 249.564 309.614 256.892 305.95 261.37C302.082 265.645 294.143 272.363 288.24 276.027C282.337 279.894 270.734 285.187 262.185 288.037C251.192 291.701 242.643 293.126 231.243 293.126C222.49 293.126 210.48 291.701 204.17 289.869C198.063 288.037 187.478 283.558 180.761 279.894C174.043 276.23 163.865 268.291 158.166 262.185C152.262 256.078 146.563 247.732 144.934 242.846C142.492 235.111 141.677 234.501 138.013 236.536C135.774 237.554 127.632 238.368 119.693 237.961C108.497 237.35 103.408 235.925 97.3015 231.854C92.2125 228.597 87.5306 223.101 84.6807 217.198C82.238 211.905 79.9989 204.781 79.9989 201.524C79.9989 198.063 79.7953 195.417 79.5917 195.417C79.3882 195.214 75.9277 196.842 71.8565 198.674C66.7675 201.117 61.475 201.727 52.5184 201.117C45.8009 200.506 35.8265 198.063 30.1268 195.621C24.6307 193.178 17.5062 188.7 14.4528 185.646C11.1958 182.593 6.71753 175.061 4.47839 168.954C1.62854 161.626 0.203613 152.466 6.10352e-05 142.492C6.10352e-05 130.889 1.01782 124.986 4.07123 118.065C6.51392 112.976 11.3994 105.851 15.267 102.39C18.931 98.93 25.6486 94.0446 30.1268 91.8054C34.6052 89.5663 41.1191 86.92 44.376 86.1057C49.0579 85.0879 50.0756 85.2915 49.0579 87.1235C48.2436 88.3449 46.0045 89.5663 43.9689 89.3627C41.9333 89.3627 39.0835 90.7876 37.2515 92.4161C35.623 94.2481 32.1624 96.0802 29.7197 96.6908C27.277 97.3015 25.0379 98.93 25.0379 100.762C25.0379 102.391 23.6129 104.426 21.5773 105.24C19.5417 106.055 16.2848 108.09 14.4528 109.719C12.4172 111.551 10.7887 114.197 10.7887 116.029C10.7887 118.065 12.4172 117.454 16.4883 113.586C19.5417 110.533 25.6486 106.258 30.1268 104.019C34.6052 101.78 42.544 99.3371 47.4294 98.5229C52.9255 97.7086 61.2714 98.3193 67.7853 99.7442C74.0957 101.169 82.4416 104.426 86.7163 107.072C90.9911 109.719 97.0979 114.808 100.355 118.472C103.815 122.136 106.869 126.818 107.479 128.65C108.497 131.703 109.515 131.907 114.197 130.075C117.25 129.057 122.136 128.446 124.782 129.057C127.632 129.667 131.703 132.11 133.942 134.349L138.013 138.421C143.917 124.986 148.395 117.454 152.059 112.976C155.723 108.497 162.848 102.594 167.733 99.7442C175.061 95.8766 179.539 94.8588 191.957 94.8588C205.188 95.0624 208.852 95.8766 218.419 101.169C224.73 104.63 233.483 111.347 238.368 116.233C243.05 121.118 248.139 127.021 249.767 129.26C251.396 131.499 254.653 138.828 257.096 145.545C259.538 152.466 261.167 161.626 260.963 166.919L260.556 176.079C241.421 167.122 237.757 166.512 226.562 167.326C218.826 168.14 210.277 170.176 205.799 172.822C201.524 175.061 198.063 177.504 198.063 178.115C198.063 178.522 203.356 178.522 209.87 177.707C216.587 177.097 225.951 177.504 231.651 178.929C237.757 180.354 246.103 184.425 252.007 189.107L262.185 196.842C273.38 184.832 279.691 180.354 283.558 179.132C287.629 178.115 294.143 177.097 298.418 177.097H305.95C301.064 165.494 300.861 161.423 302.082 154.705C303.1 149.006 306.153 143.306 309.41 139.845C314.296 134.756 315.313 132.11 315.924 120.507C316.331 111.958 318.163 103.001 321.013 96.8944C324.27 89.5663 327.323 86.3093 333.43 83.2559Z" fill="#CA47AD"/>
<path d="M960.393 170.379C954.897 169.972 958.968 169.565 969.553 169.565C980.342 169.565 984.82 169.972 979.731 170.379C974.846 170.786 966.093 170.786 960.393 170.379Z" fill="#CA47AD"/>
</svg>
