<svg width="326" height="898" viewBox="0 0 326 898" fill="none" xmlns="http://www.w3.org/2000/svg">
<g filter="url(#filter0_d_2115_1048)">
<path d="M104.732 572.016H64.4393L4 889.322H171.647L104.732 572.016Z" fill="url(#paint0_linear_2115_1048)"/>
<path d="M254.392 572.016H214.099L153.66 889.322H321.307L254.392 572.016Z" fill="url(#paint1_linear_2115_1048)"/>
<path d="M150.917 3.53702C152.1 2.72428 154.464 1.54213 156.089 0.87717C157.715 0.212209 159.858 -0.157214 160.892 0.0644397C161.926 0.286093 164.364 1.17271 166.433 2.13321C168.576 3.09371 172.27 5.90132 175.373 8.85671C178.255 11.7382 182.762 17.3534 185.495 21.4171C188.155 25.4807 192.514 33.1647 195.174 38.4105C197.76 43.7302 201.085 51.3403 202.489 55.404C203.893 59.4676 205.962 66.6345 209.212 79.7859L209.656 213.148L209.658 213.888C210.025 344.738 210.026 344.984 210.395 162.906L212.907 156.848C214.237 153.449 217.709 145.248 220.517 138.524C223.324 131.801 226.058 125.003 226.575 123.378C227.092 121.752 228.349 118.797 229.457 116.728C231.008 113.847 231.895 112.96 233.447 112.886C234.629 112.738 236.18 113.034 236.993 113.403C237.806 113.847 239.283 115.915 240.244 118.058C241.204 120.127 242.608 124.043 243.273 126.703C244.012 129.362 245.194 132.835 245.933 134.461C246.672 136.086 249.627 142.957 252.509 149.829C255.316 156.626 257.607 162.611 257.607 163.128C257.533 163.571 257.533 166.896 257.681 176.944H262.853V181.747C262.853 185.145 262.557 186.697 261.818 187.066C260.932 187.584 260.71 203.986 260.341 414.483L273.123 427.413C280.142 434.506 286.791 441.525 287.973 442.929C289.156 444.332 291.224 448.027 292.628 451.056C294.106 454.085 296.101 459.553 297.135 463.247C298.169 466.941 298.982 471.079 298.908 472.483C298.908 473.886 299.13 477.359 299.425 480.24C299.869 484.156 299.795 486.003 298.982 487.924C298.391 489.328 297.135 491.028 296.101 491.766C294.771 492.653 291.668 493.244 285.387 493.835C280.511 494.205 273.049 494.796 268.763 495.017C264.478 495.239 260.119 495.608 258.937 495.83C257.607 496.052 257.09 496.495 257.311 497.234C257.533 497.825 257.385 498.785 256.942 499.303C256.572 499.746 256.277 502.332 256.277 504.992C256.277 507.652 256.203 510.607 256.203 511.641C256.129 512.676 256.129 514.966 256.203 516.813V516.815C256.203 518.663 256.203 521.838 256.129 523.832C256.129 525.901 256.055 528.339 256.129 529.374C256.129 530.408 257.459 532.92 259.011 534.915C260.562 536.984 262.557 540.752 263.444 543.412C264.404 546.072 265.365 550.283 265.66 552.869C266.104 556.637 265.956 557.671 265.069 558.189C264.478 558.558 261.523 558.927 258.567 558.927C255.686 558.927 253.248 559.149 253.248 559.519C253.248 559.814 254.208 562.548 255.464 565.577C256.646 568.606 257.607 571.857 257.681 574.443H233.668C215.123 574.443 209.582 574.222 209.286 573.557C209.065 573.039 209.877 569.789 211.133 566.316L211.237 566.013C212.375 562.669 213.35 559.805 213.35 559.519C213.35 559.149 210.321 558.927 200.051 558.927V556.194C200.051 554.642 200.568 551.465 201.159 549.175C201.75 546.81 203.154 543.338 204.188 541.417C205.223 539.422 207.07 536.245 208.252 534.176C210.247 530.777 210.395 530.039 210.099 524.941C209.877 521.911 209.73 518.808 209.656 518.143V512.38V507.06C209.656 506.543 209.803 504.918 210.025 503.514C210.321 501.815 210.173 500.559 209.508 499.968C208.991 499.45 207.735 499.081 205.075 499.45L205.223 527.157H197.834C190.52 527.157 190.446 527.157 190.889 528.856C191.111 529.743 191.628 532.772 192.145 535.506C193.032 540.53 193.032 540.604 191.185 541.934C190.15 542.673 187.343 543.633 184.904 544.003C182.466 544.372 177.147 544.594 173.083 544.446L172.806 544.436C168.833 544.292 164.86 544.147 163.921 544.003C162.222 543.781 162.074 544.077 161.261 548.953C160.818 551.835 160.153 554.568 159.931 555.085C159.636 555.529 158.971 555.972 158.454 555.972C158.01 556.046 157.05 555.455 156.311 554.716C155.646 553.977 154.833 551.761 154.538 549.692C154.242 547.697 154.021 545.407 154.095 544.742C154.168 544.003 154.021 543.412 153.651 543.412C153.356 543.412 152.1 543.855 150.917 544.52C149.292 545.333 146.706 545.628 141.312 545.554C137.249 545.48 131.781 544.963 129.122 544.446C126.462 543.855 123.802 542.895 123.211 542.303C122.25 541.343 122.25 540.456 122.989 536.54C123.432 534.028 124.023 531.073 124.688 527.896L110.281 527.527V513.488C110.281 501.371 110.133 499.45 109.173 499.672C108.582 499.82 107.769 500.337 107.473 500.78C107.178 501.297 107.104 502.849 107.326 504.253C107.547 505.657 107.695 507.208 107.695 507.578C107.621 507.947 107.473 510.164 107.252 512.38C107.03 514.597 107.178 516.813 107.547 517.183C107.917 517.552 107.991 518.586 107.621 519.399C107.326 520.212 107.03 523.167 106.956 526.049C106.882 530.777 107.104 531.442 109.099 533.807C110.355 535.211 112.202 538.092 113.236 540.087C114.197 542.156 115.601 546.293 116.192 549.323C116.857 552.352 117.3 555.677 117.152 556.711C116.931 558.484 116.635 558.558 110.872 558.927C107.547 559.149 104.666 559.519 104.444 559.888C104.222 560.184 105.257 563.213 106.734 566.685C109.025 571.857 109.394 573.187 108.582 573.926C107.917 574.591 101.415 574.887 84.4214 575.034C62.8471 575.182 61.0738 575.108 60.6305 573.926C60.335 573.113 60.9261 570.38 62.0343 567.424L62.0353 567.421C63.0694 564.541 64.1032 561.661 64.3986 560.996C64.7681 559.814 64.177 559.666 51.1733 559.297L51.3211 555.085C51.4688 552.721 52.2077 548.731 53.0943 546.219C53.907 543.633 56.0497 539.57 60.7783 532.698L60.9999 523.463C61.1477 518.365 61.2216 513.562 61.2216 512.75C61.2216 511.937 61.0738 508.464 60.8522 504.992C60.5566 501.519 60.335 498.047 60.335 497.234C60.2611 495.83 59.2267 495.682 22.3583 493.096L20.2895 490.954C19.1813 489.698 18.2946 488.072 18.2946 487.259C18.2946 486.447 18.2208 485.043 18.073 484.156C17.9252 483.196 18.1469 481.275 18.4424 479.871C18.738 478.467 19.1074 474.995 19.329 472.113C19.5507 469.232 20.5851 464.134 21.6195 460.661C22.6538 457.188 24.6487 451.869 26.1264 448.839C28.5646 443.963 30.4856 441.599 57.4535 414.483V300.553C57.4535 199.701 57.3057 186.549 56.3452 186.549C55.4586 186.549 55.2369 185.515 55.2369 181.377C55.2369 177.757 55.5325 176.205 56.1236 176.131C56.6407 176.058 57.749 175.984 58.5617 175.91C59.8917 175.836 60.0394 175.171 60.4089 168.817C60.7044 163.349 61.2955 160.69 62.847 156.995C63.9553 154.335 65.2114 151.528 65.5808 150.715C65.9502 149.902 66.9107 147.76 67.6495 145.913C68.4623 144.066 70.4572 139.337 72.1565 135.421C73.782 131.431 75.1858 127.959 75.1858 127.663C75.1858 127.294 75.9246 125.225 76.8851 123.008C77.7717 120.792 79.2494 117.689 80.2099 116.211C81.5398 113.921 82.2787 113.403 84.0519 113.403C85.308 113.403 86.8595 113.994 87.5245 114.733C88.1895 115.398 89.5194 117.689 90.406 119.684C91.3665 121.752 92.6225 125.225 93.2136 127.441C93.8047 129.658 96.2429 136.16 98.6811 141.849C101.045 147.538 104.001 154.483 107.326 162.537L107.695 122.639C108.064 87.8393 108.286 82.0024 109.468 76.8305C110.207 73.5796 111.759 67.5949 112.867 63.5313C114.049 59.4676 115.527 54.8129 116.192 53.1875C116.931 51.562 118.556 47.8678 119.886 45.0602C121.216 42.2525 124.245 36.5634 126.536 32.4998C128.9 28.4361 133.037 22.1559 135.771 18.4617C138.505 14.7675 142.495 10.2605 144.711 8.4134C146.928 6.56628 149.735 4.34975 150.917 3.53702Z" fill="#464646"/>
<path fill-rule="evenodd" clip-rule="evenodd" d="M159.266 3.31519C160.153 3.31519 161.556 4.05403 162.369 5.01453C163.182 5.90115 165.029 8.93041 166.359 11.8119C167.763 14.6934 169.758 20.1609 170.792 24.0029C171.826 27.8449 173.156 34.1251 173.747 37.8932C174.412 41.5874 174.93 45.1339 174.93 45.5772C174.93 46.316 171.457 46.5377 159.931 46.5377C151.73 46.5377 141.534 46.8332 137.248 47.1287C132.963 47.4982 127.791 48.0154 125.796 48.3848C123.728 48.8281 122.028 49.0498 121.88 48.902C121.807 48.8281 122.767 46.3899 124.171 43.5823C125.501 40.7747 128.456 35.2333 130.747 31.3913C133.111 27.5493 137.101 21.7125 139.687 18.4615C142.273 15.2106 145.893 11.3686 147.666 9.89091C149.439 8.41322 152.395 6.27057 154.242 5.23618C156.089 4.2018 158.306 3.31519 159.192 3.31519L159.266 3.31519ZM166.137 5.53172C166.507 5.53172 168.428 6.78776 170.349 8.33934C172.344 9.89091 175.299 12.8463 176.924 14.8412C178.624 16.8361 181.505 20.7519 183.426 23.6334C185.347 26.5149 189.189 33.3862 192.071 39.0014C194.878 44.5428 197.095 49.2714 196.947 49.4192C196.873 49.6408 195.469 49.4931 193.844 49.1236C192.219 48.7542 189.189 48.3109 187.194 48.0154C185.126 47.7937 182.022 47.4243 176.851 46.8332L175.816 40.4053C175.299 36.8588 174.191 31.3174 173.452 28.0665C172.713 24.8156 171.383 20.0131 170.496 17.3533C169.684 14.6934 168.132 11.0731 167.172 9.22595C166.137 7.37884 165.398 5.82726 165.398 5.67949C165.398 5.60561 165.694 5.53172 166.137 5.53172ZM163.699 48.9759C171.974 49.0497 175.077 49.3453 175.299 50.0103C175.521 50.5274 175.89 52.9656 176.112 55.4038C176.333 57.842 176.703 75.6482 176.924 94.9321C177.146 114.216 177.146 130.988 176.481 134.46L157.123 134.608C146.41 134.682 133.554 135.051 128.456 135.569C123.358 136.012 117.891 136.677 116.265 137.046C114.64 137.416 112.719 137.859 111.98 138.081C110.798 138.524 110.724 137.046 110.724 114.364C110.724 100.991 111.093 87.322 111.463 83.8494C111.906 80.3768 112.94 74.9094 113.753 71.6584C114.64 68.4075 116.044 63.2356 117.078 60.2063C118.038 57.1771 119.368 54.1478 120.107 53.4828C120.846 52.8179 122.619 51.9312 124.023 51.4879C125.427 51.0446 128.087 50.4536 129.934 50.158C131.781 49.8625 137.618 49.4192 142.864 49.1975C148.109 48.9759 157.567 48.8281 163.699 48.902V48.9759ZM177.146 49.9364H180.84C182.909 49.9364 187.194 50.3058 190.298 50.823C194.213 51.4141 196.578 52.2268 197.612 53.2612C198.499 54.0739 199.829 56.8815 200.715 59.5414C201.602 62.2012 202.932 67.0037 203.745 70.2546C204.557 73.5055 205.666 78.973 206.183 82.4456C206.848 86.8787 207.069 95.8926 206.7 138.228L203.227 137.416C201.306 136.899 195.026 136.086 178.845 134.534L178.476 97.5919C178.254 77.2737 177.885 58.2114 177.663 55.2561L177.146 49.9364ZM234.628 115.694C235.145 115.694 236.032 116.506 236.623 117.393C237.14 118.28 238.323 121.235 239.209 123.821C240.022 126.481 240.687 128.697 240.539 128.771C240.465 128.771 237.658 128.993 234.259 129.141C230.565 129.288 228.2 129.141 228.2 128.623C228.2 128.254 228.865 126.111 229.752 123.821C230.565 121.604 231.821 118.871 232.486 117.762C233.077 116.654 234.037 115.694 234.628 115.694ZM84.4948 116.506C84.8642 116.506 85.7508 117.245 86.4158 118.132C87.0808 119.092 88.189 121.604 88.9279 123.821C89.6667 126.111 90.3317 128.328 90.4795 128.845C90.7011 129.51 89.1495 129.732 84.4948 129.732C80.8006 129.732 78.2146 129.436 78.2146 128.993C78.2146 128.623 78.9535 126.407 79.7662 124.043C80.6528 121.678 81.9089 119.092 82.5738 118.132C83.2388 117.245 84.0515 116.506 84.4948 116.506ZM235.219 130.618C237.288 130.544 239.505 130.914 240.391 131.505C241.204 132.096 242.46 133.795 243.125 135.421C243.79 136.972 246.376 142.957 248.74 148.572C251.105 154.261 253.395 159.803 253.691 160.763C254.06 161.945 254.06 162.463 253.617 162.167C253.247 161.872 250.587 161.428 247.78 161.133C244.898 160.837 238.914 160.615 234.481 160.615C229.974 160.615 223.767 160.837 220.59 161.059C216.97 161.354 214.901 161.28 214.901 160.763C214.901 160.394 216.379 156.478 218.226 152.119C220.073 147.76 222.659 141.701 223.915 138.598C225.171 135.569 226.575 132.687 226.944 132.244C227.314 131.727 228.496 131.209 229.53 131.062C230.639 130.84 233.151 130.692 235.219 130.618ZM84.347 131.283C87.2285 131.283 89.9623 131.505 90.4056 131.8C90.775 132.096 91.5139 133.204 92.031 134.165C92.4743 135.199 93.5826 137.563 94.3215 139.337C95.1342 141.184 97.4985 146.799 99.5673 151.749C101.636 156.7 103.335 160.985 103.335 161.133C103.335 161.354 101.267 161.28 98.6807 160.985C96.1686 160.689 89.4451 160.394 83.756 160.394C78.0669 160.394 71.4911 160.689 69.1268 160.985C66.8364 161.28 64.9154 161.354 64.9154 161.133C64.9154 160.985 66.5409 156.921 68.4619 152.119C70.4567 147.316 72.8949 141.479 73.8554 139.115C74.8159 136.751 76.3675 134.017 77.328 133.057C78.8057 131.431 79.6184 131.283 84.347 131.283ZM158.749 135.864C164.66 135.79 171.088 136.012 176.851 136.751V158.03C176.851 169.703 176.703 179.308 176.481 179.308C176.259 179.308 175.521 178.348 174.856 177.24C174.191 176.131 172.344 173.767 170.792 171.92C169.24 170.147 166.654 167.708 165.029 166.526C162.96 165.049 161.187 164.457 159.118 164.457C157.123 164.457 155.35 165.049 153.577 166.378C152.173 167.413 149.957 169.482 148.701 171.033C147.444 172.511 145.006 175.91 143.233 178.496C141.534 181.155 138.357 186.992 136.214 191.425C133.997 195.932 131.559 202.065 130.747 205.094C129.934 208.197 128.382 215.364 127.348 220.979C126.313 226.668 125.131 236.347 124.762 242.406C124.392 248.538 123.728 255.336 123.284 257.552C122.915 259.842 121.733 266.788 120.698 273.068C119.738 279.422 118.186 288.879 117.373 294.125C116.487 299.445 115.674 304.617 115.526 305.577C115.379 306.611 114.344 312.966 113.31 319.615C112.275 326.339 111.241 332.176 111.093 332.545C110.945 332.988 110.798 289.987 110.724 140.888L113.088 139.78C114.418 139.263 118.186 138.376 121.437 137.933C124.688 137.416 132.003 136.751 137.692 136.455C143.381 136.234 152.838 135.938 158.749 135.864ZM177.811 136.381L180.323 136.455C181.653 136.455 186.382 136.751 190.889 137.194C195.322 137.563 200.715 138.45 202.858 139.041C205.001 139.632 206.774 140.445 206.774 140.814C206.774 141.258 206.774 146.06 206.774 151.528C206.774 157.069 206.774 199.331 206.774 245.583C206.774 291.835 206.626 329.442 206.478 329.22C206.331 329.072 204.779 320.723 203.153 310.749C201.454 300.848 199.976 291.982 199.829 291.17C199.681 290.357 199.385 288.584 199.09 287.106C198.868 285.702 198.499 283.412 198.277 281.934C198.055 280.53 197.686 278.535 197.538 277.501C197.317 276.54 197.021 274.546 196.799 273.068C196.504 271.664 195.691 266.862 194.878 262.355C194.066 257.922 193.105 248.095 192.736 240.559C192.366 233.096 191.554 223.787 190.963 219.871C190.298 216.029 189.633 212.039 189.411 211.005C189.263 210.044 188.229 206.646 187.194 203.469C186.16 200.292 183.796 194.529 178.55 183.298L177.811 136.381ZM80.3573 162.389C83.8299 162.315 90.3317 162.536 94.7648 163.054C99.2717 163.497 103.483 164.162 104.222 164.531C105.404 165.196 105.478 166.822 105.478 201.4L99.4195 200.883C96.0208 200.587 88.4846 200.292 82.5738 200.292C76.663 200.292 69.8657 200.513 62.9944 201.03V183.446C62.9944 173.767 63.2161 165.418 63.5116 164.975C63.8071 164.531 66.3192 163.793 69.0529 163.349C71.7867 162.98 76.8847 162.536 80.3573 162.389ZM236.254 162.684C240.096 162.758 245.415 163.054 248.075 163.349C250.735 163.645 253.321 164.31 253.838 164.753C254.577 165.418 254.799 169.777 254.725 201.769L251.77 201.252C250.144 200.956 244.603 200.513 239.431 200.292C234.185 199.996 226.649 200.144 222.585 200.587C218.521 200.956 214.606 201.474 213.941 201.769C212.685 202.139 212.611 200.956 212.537 165.566L214.606 164.679C215.788 164.162 219.482 163.497 222.955 163.201C226.427 162.832 232.412 162.61 236.254 162.684ZM158.823 166.674C159.118 166.674 160.3 167.191 161.483 167.708C162.591 168.299 163.995 169.334 164.586 169.999C165.62 171.107 165.177 171.181 159.118 171.181C155.424 171.181 152.764 170.885 153.207 170.516C153.577 170.22 154.833 169.186 156.015 168.299C157.197 167.413 158.453 166.674 158.823 166.674ZM157.419 174.875C161.556 174.875 166.137 175.023 167.541 175.245C169.832 175.614 170.57 176.353 173.674 181.377C175.595 184.48 178.476 190.169 180.101 194.011C181.801 197.927 182.983 201.104 182.909 201.178C182.761 201.252 181.358 201.03 179.732 200.661C178.107 200.365 171.457 199.848 164.955 199.553C158.232 199.257 149.292 199.405 144.267 199.848C139.391 200.292 135.327 200.587 135.327 200.513C135.254 200.365 136.657 197.188 138.504 193.272C140.352 189.43 141.977 186.106 142.125 185.884C142.273 185.736 142.642 185.736 142.864 185.884C143.085 186.106 142.346 188.47 141.312 191.056C140.278 193.716 139.613 196.08 139.834 196.228C140.056 196.45 141.312 196.154 142.642 195.489C144.489 194.676 148.109 194.381 159.044 194.381C169.979 194.381 173.6 194.676 175.521 195.489C176.851 196.154 178.107 196.45 178.254 196.228C178.476 196.08 177.811 193.568 176.703 190.687C175.595 187.879 174.338 185.071 173.895 184.554C173.378 183.815 171.9 183.594 169.314 183.815C167.246 183.963 164.955 184.554 164.216 185.145C163.404 185.884 161.335 186.327 158.749 186.327C156.311 186.327 154.316 185.884 153.872 185.367C153.503 184.85 151.065 184.185 148.479 183.889C145.967 183.594 143.898 183.224 143.898 183.15C143.898 183.076 144.711 181.746 145.597 180.195C146.558 178.643 147.962 176.87 148.627 176.131C149.661 175.097 151.286 174.875 157.419 174.875ZM58.5613 177.757C60.2607 177.757 60.4084 178.052 60.4084 181.451C60.4084 184.924 60.2607 185.145 58.5613 185.145C56.862 185.145 56.7142 184.924 56.7142 181.451C56.7142 178.052 56.862 177.757 58.5613 177.757ZM259.527 177.757C261.227 177.757 261.375 178.052 261.375 181.451C261.375 183.815 261.005 185.293 260.488 185.441C259.971 185.588 259.084 185.588 258.641 185.441C258.05 185.293 257.68 183.815 257.68 181.451C257.68 178.052 257.828 177.757 259.527 177.757ZM148.996 185.441C150.843 185.662 152.469 186.253 152.543 186.623C152.616 187.066 155.128 187.436 158.453 187.436C162.295 187.436 164.512 187.14 165.103 186.475C165.546 185.958 167.467 185.441 169.314 185.367C172.639 185.219 172.713 185.219 174.191 188.322C175.003 190.022 175.668 192.016 175.668 192.755C175.668 193.642 175.299 193.937 174.412 193.568C173.674 193.272 167.911 192.977 161.63 192.755C155.35 192.608 148.405 192.681 146.262 193.051C142.642 193.642 142.42 193.568 142.716 192.164C142.938 191.351 143.676 189.43 144.341 187.879C145.523 185.071 145.597 185.071 148.996 185.441ZM59.6696 186.623C60.1129 186.623 60.4084 189.726 60.4084 194.381C60.4084 199.109 60.1129 202.139 59.6696 202.139C59.2263 202.139 58.9307 199.109 58.9307 194.381C58.9307 189.726 59.2263 186.623 59.6696 186.623ZM258.419 187.362C258.862 187.362 259.158 190.317 259.158 194.75C259.158 199.183 258.862 202.139 258.419 202.139C257.976 202.139 257.68 199.183 257.68 194.75C257.68 190.317 257.976 187.362 258.419 187.362ZM156.828 200.809C161.704 200.735 169.388 201.03 173.821 201.474C178.328 201.917 182.54 202.582 183.279 202.951C184.091 203.395 184.978 205.759 185.938 210.118C186.751 213.665 187.785 218.91 188.229 221.718C188.672 224.6 189.263 231.545 190.076 247.356L187.121 246.839C185.495 246.617 180.323 246.1 175.668 245.804C171.014 245.435 161.187 245.361 153.872 245.509C146.558 245.731 138.431 246.174 135.771 246.543C133.111 246.913 130.155 247.43 129.121 247.652C127.274 248.021 127.274 247.947 127.496 243.366C127.57 240.854 128.013 236.052 128.456 232.801C128.826 229.55 129.86 223.417 130.673 219.132C131.559 214.921 132.668 209.601 133.259 207.311C133.85 205.094 134.589 203.025 134.884 202.73C135.18 202.434 138.209 201.843 141.681 201.548C145.154 201.178 151.951 200.883 156.828 200.809ZM85.8986 202.508C94.0259 202.656 101.784 203.099 105.478 204.355V280.826L101.562 280.382C99.4934 280.161 91.8833 279.939 84.7904 279.939C77.6974 279.939 69.9396 280.161 67.6491 280.382C63.881 280.826 63.4377 280.752 63.1422 279.348C62.9944 278.535 62.9205 261.394 62.9205 241.224C62.9944 221.053 63.2899 204.207 63.5855 203.912C63.9549 203.542 65.802 203.025 67.6491 202.804C69.5701 202.508 77.7713 202.36 85.8986 202.508ZM236.993 202.582C243.716 202.73 250.366 203.099 254.355 204.06L254.725 280.087H212.611V242.775C212.537 213.221 212.758 205.316 213.497 204.577C214.015 204.06 216.822 203.321 219.63 202.951C222.511 202.582 230.269 202.434 236.993 202.582ZM59.6696 204.355C60.1868 204.355 60.4084 206.719 60.2607 210.709C60.1129 214.256 59.8174 217.211 59.5218 217.359C59.1524 217.581 58.9307 214.699 58.9307 211.005C58.9307 206.941 59.2263 204.355 59.6696 204.355ZM59.4479 220.166C59.8174 220.462 60.039 223.196 60.039 226.151C60.039 229.18 59.8174 231.914 59.4479 232.21C59.1524 232.579 58.9307 229.845 58.9307 226.151C58.9307 222.531 59.1524 219.797 59.4479 220.166ZM59.4479 234.943C59.8174 235.239 59.9651 238.268 59.8174 241.593C59.6696 244.918 59.4479 247.799 59.2263 247.947C59.0785 248.169 58.9307 245.213 58.9307 241.297C58.9307 237.455 59.1524 234.574 59.4479 234.943ZM164.586 248.39C172.935 248.538 181.727 248.981 184.165 249.425C186.603 249.868 189.115 250.681 189.706 251.346C190.667 252.306 190.889 256.222 191.332 297.08L189.633 296.563C188.672 296.268 184.904 295.455 181.21 294.79C176.481 293.903 170.201 293.608 159.044 293.608C147.962 293.608 141.681 293.903 136.879 294.79C133.259 295.455 129.491 296.194 126.905 296.711V252.38L128.604 251.346C129.491 250.829 131.412 250.09 132.815 249.794C134.219 249.499 138.578 249.055 142.42 248.76C146.262 248.39 156.237 248.317 164.586 248.39ZM59.5218 250.164C59.8174 250.164 59.9651 252.306 59.8174 254.818C59.7435 257.33 59.5218 260.434 59.3741 261.616C59.3002 262.872 59.1524 260.803 59.0785 257.035C59.0046 253.267 59.1524 250.164 59.5218 250.164ZM59.4479 269.004C59.5957 271.073 59.5957 274.028 59.4479 275.654C59.3002 277.279 59.2263 275.654 59.2263 271.96C59.2263 268.339 59.3002 267.009 59.4479 269.004ZM124.097 274.546C124.392 274.546 124.688 287.032 124.688 329.959H121.733C120.033 329.959 118.629 330.402 118.408 330.919C118.26 331.437 117.595 335.353 117.004 339.564C116.117 345.549 114.64 350.794 105.256 376.876L37.652 444.85L33.0711 454.085C29.5986 461.252 28.7858 463.468 29.5247 463.912C30.0419 464.281 49.9907 464.429 73.9293 464.281C102.523 464.133 117.3 464.355 117.3 464.798C117.3 465.242 116.708 467.606 115.97 469.97C114.714 474.108 114.492 474.477 112.423 474.551C111.241 474.551 108.138 474.329 105.478 474.034C102.818 473.738 92.5482 473.221 82.5738 473C72.5994 472.778 55.0149 472.261 43.415 471.817C31.8151 471.448 22.284 471.005 22.284 470.931C22.2101 470.857 22.7273 468.419 23.4661 465.537C24.205 462.73 25.6827 458.075 26.791 455.193C27.9731 452.386 29.968 448.396 31.224 446.327C32.5539 444.332 39.0558 437.387 45.7054 430.885C52.355 424.383 63.4377 413.596 70.309 406.873C77.1064 400.149 84.4948 392.613 86.5636 390.175C88.7062 387.811 91.5877 384.116 92.9915 382.048C94.3953 380.053 97.0552 375.915 98.9762 372.812C100.823 369.783 103.483 364.98 104.739 362.099C106.069 359.291 108.286 354.119 109.689 350.647C111.463 346.287 112.719 341.116 114.049 333.284C115.009 327.225 117.152 313.926 118.777 303.73C120.403 293.608 122.176 282.895 122.619 279.939C123.063 276.984 123.728 274.546 124.097 274.546ZM194.213 277.501C194.509 278.535 197.169 293.534 200.05 310.749C203.227 329.737 206.035 344.071 207.069 346.952C208.03 349.612 209.508 353.454 210.394 355.449C211.281 357.518 212.537 360.326 213.202 361.729C213.867 363.207 216.231 367.492 218.448 371.334C220.664 375.25 224.137 380.718 226.279 383.525C228.348 386.407 242.312 401.036 257.237 416.035C272.162 431.107 285.165 444.406 286.052 445.588C287.012 446.844 288.638 449.504 289.598 451.499C290.633 453.568 292.406 458.001 293.44 461.326C294.475 464.651 295.361 468.271 295.361 469.231C295.361 471.005 295.14 471.152 290.042 471.448C287.086 471.67 279.476 471.965 273.196 472.187C266.916 472.408 256.276 472.778 249.553 473.073C242.829 473.295 233.52 473.665 228.865 473.96C224.137 474.256 216.157 474.403 202.045 474.403L201.085 470.34C200.568 468.123 200.124 465.907 200.124 465.389C200.05 464.651 209.508 464.429 244.75 464.429C269.354 464.429 289.451 464.207 289.451 463.912C289.451 463.616 288.49 461.326 287.382 458.888C286.2 456.523 284.279 452.46 283.17 450.021C281.323 446.179 276.89 441.525 212.98 378.353L207.66 363.207C203.597 351.607 202.193 346.435 201.528 341.042C201.085 337.2 200.568 333.136 200.42 332.028C200.05 330.181 199.755 329.959 193.401 329.959L193.475 302.843C193.475 285.924 193.77 276.393 194.213 277.501ZM59.4479 283.412C59.5957 285.259 59.5957 288.436 59.4479 290.431C59.3002 292.499 59.2263 291.022 59.2263 287.106C59.2263 283.264 59.3002 281.638 59.4479 283.412ZM87.3763 282.303C95.5036 282.451 102.892 282.821 105.478 283.412V319.246L86.8591 319.32C76.5892 319.32 66.9103 319.541 62.625 320.354L62.8466 302.326C62.9205 292.426 63.2899 284.003 63.6594 283.707C63.9549 283.338 66.1714 282.821 68.4619 282.599C70.7523 282.303 79.249 282.156 87.3763 282.303ZM235.145 282.23C244.898 282.303 253.321 282.599 253.838 282.895C254.503 283.338 254.725 287.919 254.725 320.354L250.883 319.911C248.74 319.615 240.317 319.393 232.19 319.467C224.063 319.467 216.305 319.689 212.611 320.354L212.98 283.116L215.197 282.599C216.453 282.303 225.393 282.156 235.145 282.23ZM59.4479 298.927C59.5957 300.775 59.5957 303.952 59.4479 305.947C59.3002 308.015 59.2263 306.538 59.2263 302.622C59.2263 298.78 59.3002 297.154 59.4479 298.927ZM157.567 296.12C160.818 296.12 167.615 296.341 172.713 296.785C177.811 297.154 183.279 297.893 184.904 298.336C186.529 298.78 188.598 299.666 191.11 301.513L191.184 387.589L189.559 387.293C188.598 387.072 183.87 386.333 178.993 385.668C172.048 384.781 166.507 384.634 153.134 384.929C143.824 385.151 134.662 385.668 132.815 386.111C130.968 386.555 128.899 387.072 128.234 387.293C126.978 387.589 126.905 385.225 126.905 344.958C126.905 305.282 126.978 302.178 128.161 300.775C128.899 299.962 131.338 298.854 133.554 298.262C135.771 297.745 140.795 297.006 144.637 296.785C148.479 296.489 154.316 296.194 157.567 296.12ZM59.4479 314.813C59.5957 316.881 59.5957 319.837 59.4479 321.462C59.3002 323.088 59.2263 321.462 59.2263 317.768C59.2263 314.148 59.3002 312.818 59.4479 314.813ZM88.1152 321.536C96.2425 321.61 103.483 321.979 104.222 322.201C105.33 322.571 105.478 323.974 105.478 337.717C105.478 351.755 105.33 353.233 103.853 356.779C102.966 358.922 100.749 363.281 98.9762 366.532C97.203 369.783 93.8782 375.25 91.5877 378.723C89.2973 382.121 84.0515 388.328 72.5994 400.075L62.625 400.519V361.951C62.625 331.88 62.8466 323.235 63.5855 322.792C64.0288 322.497 66.467 322.053 68.9052 321.758C71.3434 321.462 79.9879 321.388 88.1152 321.536ZM238.47 321.61C245.563 321.832 252.139 322.275 254.725 323.309V400.149L250.144 399.706C245.785 399.263 245.194 398.967 241.056 395.199C238.618 392.983 234.85 389.141 232.707 386.628C230.565 384.116 227.461 380.053 225.762 377.615C224.063 375.25 220.442 368.822 212.611 353.602V338.456C212.611 327.151 212.832 323.235 213.571 322.792C214.014 322.497 216.97 322.053 219.999 321.758C223.028 321.462 231.377 321.388 238.47 321.61ZM59.4479 329.22C59.5957 331.067 59.5957 334.244 59.4479 336.239C59.3002 338.308 59.2263 336.83 59.2263 332.914C59.2263 329.072 59.3002 327.447 59.4479 329.22ZM124.688 331.437L124.762 450.76L122.102 455.193C120.624 457.632 119.294 460.439 118.777 462.951H74.8159C50.6557 462.951 30.8546 462.73 30.8546 462.434C30.8546 462.139 32.6278 458.37 38.4647 446.327L106.069 378.353L109.024 370.226C110.724 365.793 113.162 358.996 114.566 355.08C115.97 351.238 117.521 345.918 117.891 343.258C118.334 340.672 118.925 336.904 119.147 334.983C119.59 331.584 119.664 331.437 124.688 331.437ZM193.401 331.437H195.987C197.612 331.437 198.72 331.88 198.942 332.545C199.164 333.21 199.311 334.761 199.311 336.091C199.311 337.421 199.829 340.968 200.42 343.997C200.937 347.1 203.597 356.04 211.133 378.353L280.215 447.288L283.762 454.75C285.683 458.888 287.086 462.434 286.939 462.73C286.791 463.025 268.911 463.173 247.189 463.173C225.54 463.173 205.887 463.099 199.311 462.951L197.76 459.479C196.947 457.558 195.617 455.119 194.805 454.085C193.401 452.312 193.327 450.686 193.401 391.874V331.437ZM59.4479 344.736C59.5957 346.583 59.5957 349.686 59.4479 351.755C59.3002 353.75 59.1524 352.272 59.1524 348.43C59.1524 344.588 59.3002 342.889 59.4479 344.736ZM59.4479 360.252C59.5957 362.099 59.5957 365.202 59.4479 367.271C59.3002 369.266 59.1524 367.788 59.1524 363.946C59.1524 360.104 59.3002 358.405 59.4479 360.252ZM59.4479 376.137C59.5957 378.132 59.5957 381.161 59.4479 382.786C59.3002 384.412 59.1524 382.786 59.1524 379.092C59.1524 375.398 59.3002 374.068 59.4479 376.137ZM59.4479 390.544C59.5957 392.391 59.5957 395.495 59.4479 397.563C59.3002 399.558 59.1524 398.081 59.1524 394.239C59.1524 390.397 59.3002 388.697 59.4479 390.544ZM161.261 387.958C172.491 388.18 181.431 388.623 184.165 389.214C186.677 389.732 189.263 390.692 189.928 391.283C191.184 392.318 191.258 394.534 191.11 447.066L188.377 446.475C186.825 446.179 182.761 445.588 179.363 445.219C175.89 444.85 165.546 444.48 156.458 444.48C147.297 444.554 137.47 444.85 134.662 445.219C131.781 445.588 128.899 446.032 128.161 446.253C126.978 446.697 126.905 445.071 126.905 420.098C126.905 403.844 127.2 392.909 127.643 392.022C128.013 391.209 129.269 390.175 130.377 389.732C131.485 389.288 134.736 388.623 137.618 388.328C140.425 387.958 151.065 387.811 161.261 387.958ZM247.706 401.553L251.031 402.07C252.804 402.366 254.429 402.588 254.503 402.661C254.577 402.735 254.725 404.139 254.873 405.838C254.947 407.612 254.873 408.942 254.725 408.942C254.503 408.868 252.804 407.242 251.031 405.174L247.706 401.553ZM70.2351 402.44L62.9944 409.902L62.7727 406.725C62.625 404.73 62.9205 403.326 63.5116 402.957C64.0288 402.661 65.7281 402.44 70.2351 402.44ZM59.4479 405.026C59.5957 406.208 59.5957 408.572 59.4479 410.198C59.3002 411.823 59.1524 410.789 59.1524 407.981C59.1524 405.1 59.3002 403.77 59.4479 405.026ZM155.498 447.583C166.063 447.509 176.555 447.879 180.988 448.396C185.126 448.913 188.968 449.726 189.633 450.317C190.593 451.056 189.854 451.13 185.643 450.686C182.761 450.317 170.275 450.095 157.936 450.095C145.523 450.095 133.628 450.317 131.485 450.613C129.121 450.982 127.643 450.908 127.717 450.465C127.791 450.095 129.047 449.43 130.525 449.061C132.003 448.618 134.145 448.174 135.401 448.027C136.583 447.879 145.671 447.657 155.498 447.583ZM155.35 452.016C165.916 451.942 177.885 452.238 181.949 452.681C188.45 453.346 189.559 453.716 191.332 455.489C192.514 456.523 193.401 457.705 193.401 458.001C193.401 458.297 190.076 458.592 178.624 458.592L170.201 475.216L171.826 491.471C172.713 500.411 173.304 507.725 173.23 507.799C173.156 507.873 171.309 508.095 169.093 508.169C166.95 508.316 165.029 508.169 164.881 507.873C164.733 507.578 164.438 501.297 164.29 493.835C164.142 486.225 163.477 477.433 162.812 473.517C162.148 469.749 161.187 465.833 160.67 464.798C160.079 463.616 159.192 462.951 158.084 462.951C157.197 463.025 155.941 463.764 155.35 464.651C154.833 465.611 153.799 469.01 153.134 472.261C152.321 476.103 151.804 483.196 151.213 507.725L146.484 507.873C143.824 508.021 141.681 507.873 141.681 507.725C141.681 507.504 141.977 504.918 142.42 501.962C142.864 499.007 143.381 495.608 143.529 494.426C143.676 493.17 144.415 488.146 146.484 474.256L144.267 469.527C143.011 466.941 141.312 463.468 138.726 458.592H131.338C126.905 458.592 123.949 458.297 123.949 457.853C123.949 457.41 124.688 456.302 125.575 455.341C126.683 454.159 128.53 453.42 130.968 453.051C132.963 452.755 134.958 452.46 135.401 452.312C135.771 452.164 144.785 452.016 155.35 452.016ZM122.471 460.809H137.618L143.972 474.477L143.159 481.496C142.642 485.338 141.829 491.175 141.312 494.426C140.795 497.677 140.13 501.888 139.908 503.809C139.539 506.543 139.096 507.504 137.766 507.947C136.879 508.316 134.736 510.755 133.037 513.341C131.412 515.927 129.195 519.547 126.387 524.719L112.497 525.162L113.014 512.749C113.31 505.878 114.123 496.347 114.787 491.471C115.379 486.594 116.856 478.91 118.038 474.477C119.147 469.97 120.624 465.094 121.289 463.542L122.471 460.809ZM180.101 460.809H194.878L195.987 463.395C196.578 464.798 197.612 468.419 198.203 471.374C198.868 474.329 199.903 480.166 200.494 484.452C201.085 488.737 201.824 499.45 202.636 524.275L188.968 524.719L188.007 522.502C187.564 521.32 185.569 517.921 183.574 514.966C181.136 511.198 179.437 509.351 177.885 508.834C176.629 508.464 175.668 507.873 175.668 507.578C175.668 507.282 174.93 500.041 172.491 475.955L180.101 460.809ZM157.936 465.242C158.306 465.242 158.97 466.498 159.414 468.049C159.783 469.527 160.522 473.147 160.965 475.955C161.409 478.836 161.704 488.441 161.704 497.381C161.704 506.322 161.483 517.478 161.261 522.133C160.965 526.788 160.448 534.472 160.079 539.126C159.635 543.781 159.118 547.771 158.897 547.992C158.749 548.214 158.675 536.984 158.823 523.093C158.897 509.129 158.749 497.751 158.453 497.751C158.158 497.751 157.936 500.115 157.936 502.923C157.936 505.804 157.714 508.464 157.567 508.834C157.345 509.277 157.123 518.808 157.049 530.112C157.049 542.525 156.754 549.248 156.385 547.254C156.089 545.406 155.572 539.643 155.276 534.324C154.981 529.078 154.537 520.877 154.316 516.222C154.02 511.567 153.872 501.741 153.946 494.426C154.02 487.112 154.464 478.615 154.907 475.586C155.35 472.556 156.089 469.01 156.532 467.68C156.902 466.35 157.567 465.242 157.936 465.242ZM23.2445 474.477C23.9833 474.625 34.7705 474.994 70.0134 475.955V494.426L61.6645 493.909C57.0836 493.539 46.7398 492.801 38.6125 492.136C30.4852 491.471 23.2445 490.658 22.5056 490.289C21.8407 489.919 20.8063 488.368 20.363 486.89C19.698 484.599 19.7719 483.122 20.7324 479.132C21.7668 475.216 22.2101 474.256 23.2445 474.477ZM293.071 474.329C296.839 474.108 296.839 474.108 297.652 476.915C298.169 478.393 298.465 481.349 298.465 483.343C298.391 485.412 297.8 487.776 297.209 488.737C296.617 489.624 295.435 490.732 294.623 491.101C293.81 491.545 283.244 492.505 271.127 493.318C259.084 494.131 248.888 494.796 248.592 494.796C248.297 494.796 248.075 490.658 248.075 476.324L250.07 476.25C251.178 476.25 253.099 476.103 254.355 476.029C255.538 475.881 263.887 475.586 272.827 475.216C281.767 474.921 289.081 474.699 289.155 474.625C289.229 474.551 291.002 474.403 293.071 474.329ZM95.7992 476.842C105.404 477.359 113.31 477.876 113.384 477.95C113.531 478.098 112.94 482.531 110.872 497.381L107.251 497.308C105.256 497.308 101.784 497.086 99.5673 496.79C97.2768 496.569 91.1444 495.978 85.8986 495.534C80.5789 495.017 76.2197 494.648 76.072 494.574C75.9981 494.5 75.9242 490.954 75.8503 486.668C75.7764 482.383 75.7025 478.393 75.6287 477.654C75.5548 476.989 76.1459 476.324 76.9586 476.177C77.6974 476.103 86.1942 476.398 95.7992 476.842ZM72.9688 476.324C73.4121 476.324 73.7077 480.166 73.7077 486.299C73.7077 492.505 73.4121 496.273 72.9688 496.273C72.4516 496.273 72.23 492.505 72.23 486.299C72.23 480.166 72.4516 476.324 72.9688 476.324ZM242.386 476.694L242.46 485.486C242.46 490.289 242.312 494.5 242.165 494.796C241.943 495.091 235.145 495.756 227.018 496.273C218.891 496.717 210.542 497.234 204.853 497.529L203.671 487.85C203.08 482.531 202.562 478.098 202.562 478.024C202.562 477.95 210.246 477.654 219.63 477.433C228.939 477.137 236.771 476.768 236.919 476.546C237.14 476.398 238.396 476.398 242.386 476.694ZM64.1027 499.229H84.0515C94.9864 499.229 104.074 499.524 104.222 499.82C104.37 500.115 104.37 501.741 104 506.617H64.1027V499.229ZM213.35 499.229H253.247V505.878H213.35V499.229ZM83.756 509.351C93.8782 509.499 102.523 509.572 103.04 509.572C103.631 509.572 104 510.828 104 516.961H64.4721V513.488C64.4721 511.567 64.6937 509.794 64.9154 509.572C65.2109 509.351 73.7077 509.277 83.756 509.351ZM213.35 508.834H252.878L252.656 516.591L213.35 516.961V508.834ZM151.73 510.385C151.804 510.607 152.025 515.04 152.616 529.891L149.883 530.408C148.405 530.63 146.632 531.073 145.893 531.294C144.859 531.664 144.637 531.368 144.637 529.743C144.637 528.635 145.006 526.344 145.45 524.719C145.893 523.093 146.706 520.581 147.297 519.177C147.962 517.774 149.144 515.188 149.957 513.341C150.843 511.567 151.582 510.237 151.73 510.385ZM177.146 510.311L179.732 513.488C181.136 515.188 183.648 519.104 185.2 522.133C186.751 525.162 188.598 529.817 189.189 532.477C189.854 535.137 190.371 537.649 190.445 538.018C190.445 538.461 187.342 538.683 182.096 538.535C175.595 538.387 172.639 538.609 168.28 539.791C165.177 540.604 162.517 541.121 162.369 540.973C162.148 540.752 162.221 540.161 162.517 539.496C162.812 538.905 163.847 538.387 164.733 538.314C165.694 538.314 167.541 537.87 169.019 537.353C170.423 536.836 171.974 535.654 172.417 534.619C173.082 533.289 173.009 531.812 172.27 528.265C171.679 525.679 170.053 520.729 168.649 517.183C167.172 513.636 165.99 510.607 166.063 510.533C166.063 510.385 168.502 510.311 177.146 510.311ZM148.701 511.124L145.893 518.882C143.75 524.793 143.159 527.674 143.159 536.171L146.262 537.279C148.036 537.87 150.252 538.461 151.286 538.535C152.543 538.683 153.134 539.274 153.281 540.456C153.503 542.008 153.355 542.082 150.695 541.343C149.218 540.899 145.45 540.087 142.42 539.422C138.578 538.683 135.254 538.461 131.707 538.831C128.826 539.052 126.018 539.496 125.501 539.791C124.614 540.161 124.54 539.643 124.984 536.91C125.279 535.063 126.387 531.442 127.348 528.782C128.382 526.123 130.525 521.69 132.15 518.808C133.85 516 135.697 513.045 136.362 512.38C137.175 511.346 138.578 511.05 148.701 511.124ZM163.995 510.681L165.398 513.267C166.137 514.67 167.763 518.956 168.945 522.724C170.201 526.492 171.235 530.186 171.235 530.999C171.235 532.181 170.94 532.329 169.905 531.886C169.24 531.516 167.393 530.999 163.108 530.26V525.679C163.108 523.093 163.33 518.734 163.551 515.853L163.995 510.681ZM252.804 519.547V525.679C252.804 531.221 252.73 531.738 251.326 531.812C250.513 531.886 241.721 531.886 231.747 531.886C221.846 531.812 213.645 531.738 213.571 531.59C213.497 531.516 213.35 528.856 213.276 525.827C213.276 522.798 213.202 520.064 213.202 519.768C213.202 519.473 222.142 519.325 252.804 519.547ZM64.3982 519.916H103.926V532.477H64.3982V519.916ZM151.065 531.812C152.469 531.738 152.69 532.107 152.69 534.324C152.69 536.54 152.469 536.91 151.065 536.91C150.104 536.91 148.331 536.614 147.001 536.171C145.671 535.801 144.489 534.989 144.415 534.324C144.341 533.659 145.228 532.994 146.853 532.551C148.257 532.181 150.104 531.886 151.065 531.812ZM164.438 531.738C165.103 531.738 166.728 532.033 168.058 532.477C169.388 532.92 170.423 533.733 170.423 534.324C170.423 534.915 169.388 535.801 168.058 536.171C166.728 536.614 164.881 536.91 163.995 536.91C162.812 536.91 162.295 536.466 162.295 535.432C162.295 534.619 162.517 533.437 162.739 532.846C162.96 532.255 163.773 531.738 164.438 531.738ZM232.486 534.693V537.649C232.486 539.274 232.19 540.604 231.747 540.604C231.377 540.604 231.008 541.121 231.008 541.712C231.008 542.303 231.377 542.82 231.747 542.82C232.19 542.82 232.486 544.15 232.486 545.776C232.486 547.401 232.19 548.731 231.747 548.731C231.377 548.731 231.008 549.248 231.008 549.84C231.008 550.431 231.377 550.948 231.747 550.948C232.19 550.948 232.486 552.13 232.486 556.12H202.932L203.375 553.386C203.671 551.834 204.188 549.396 204.557 547.992C205.001 546.589 206.183 543.929 207.217 542.082C208.251 540.235 209.877 537.87 210.985 536.762C212.832 534.693 212.906 534.693 232.486 534.693ZM233.224 534.693H255.02L256.72 537.131C257.606 538.461 259.158 541.491 260.192 543.929C261.153 546.367 262.261 550.135 263.148 556.194L233.224 556.12V549.101C233.224 544.668 233.52 542.229 233.963 542.451C234.407 542.673 234.702 542.303 234.702 541.712C234.702 541.121 234.407 540.752 233.963 540.973C233.52 541.195 233.224 540.013 233.224 538.018V534.693ZM62.625 535.432H83.0171L82.8694 556.859H54.0544L54.6454 552.647C55.0149 550.283 56.1231 546.515 57.0836 544.298C58.118 542.082 59.8174 539.2 60.7779 537.87L62.625 535.432ZM106.217 535.432L108.433 538.166C109.616 539.717 111.093 542.451 111.758 544.298C112.349 546.071 113.088 549.544 113.975 556.12L111.019 556.194C109.394 556.267 102.818 556.415 96.3902 556.563C89.9623 556.711 84.7165 556.563 84.7165 556.268C84.7165 555.972 84.5687 554.494 84.347 552.943C84.0515 550.726 84.1993 550.283 85.1598 550.578C85.7509 550.8 86.268 550.505 86.268 549.84C86.268 549.175 85.8986 548.657 85.4553 548.51C85.012 548.436 84.4948 547.254 84.347 545.924C84.1254 544.298 84.347 543.412 85.1598 543.19C85.7509 542.968 86.268 542.303 86.268 541.712C86.2188 540.973 85.7755 540.752 84.9381 541.047C83.9037 541.417 83.756 541.195 84.1993 539.717C84.4948 538.757 84.7165 537.427 84.7165 536.688C84.7904 535.506 85.7509 535.432 106.217 535.432ZM179.732 539.2C180.101 539.126 182.614 539.496 185.273 539.939C188.007 540.382 189.706 540.973 189.337 541.343C188.894 541.638 186.899 542.229 184.904 542.599C182.835 542.968 178.328 543.338 174.93 543.485C171.457 543.559 167.763 543.338 166.802 542.968C164.955 542.303 165.029 542.229 167.911 541.343C169.536 540.752 172.639 540.087 174.93 539.791C177.146 539.57 179.289 539.274 179.732 539.2ZM136.879 540.235C140.13 540.456 144.415 541.121 146.484 541.786C149.735 542.82 149.957 543.042 148.701 543.707C147.74 544.224 143.824 544.372 138.726 544.077C133.85 543.855 128.899 543.264 127.274 542.599C124.466 541.564 124.392 541.491 126.166 541.047C127.126 540.826 128.678 540.456 129.491 540.308C130.303 540.087 133.628 540.087 136.879 540.235ZM217.192 559.075L249.184 559.001L251.548 564.543C252.878 567.646 253.986 570.453 253.986 570.897C253.986 571.34 247.484 571.635 236.032 571.635C226.205 571.635 216.896 571.857 215.344 572.153C213.276 572.596 212.537 572.448 212.537 571.783C212.537 571.266 213.054 569.788 213.645 568.458C214.162 567.129 215.197 564.469 215.936 562.548L217.192 559.075ZM67.8708 559.814H100.676L102.818 565.577C104.074 568.68 105.182 571.562 105.256 571.857C105.33 572.153 95.9469 572.374 63.3638 572.374L64.8415 568.163C65.7281 565.799 66.7625 562.991 67.1319 561.883L67.8708 559.814Z" fill="#FEFEFE"/>
<path d="M64.6939 176.057C64.62 172.585 64.8417 171.698 66.0238 171.107C66.7627 170.664 67.8709 170.294 68.3881 170.294C68.8314 170.294 69.9397 170.59 70.7524 171.033C72.0085 171.624 72.2301 172.511 72.2301 180.269H64.8417L64.6939 176.057Z" fill="#464646"/>
<path d="M244.233 176.057C244.16 172.954 244.381 171.772 245.194 171.55C245.711 171.329 246.967 171.107 247.928 171.107C248.814 171.033 250.07 171.55 250.661 172.142C251.326 172.807 251.77 174.654 251.77 180.269H244.381L244.233 176.057Z" fill="#464646"/>
<path d="M149.292 223.344C149.44 219.649 149.513 219.575 152.395 218.615C154.02 218.172 155.72 217.728 156.237 217.654C156.902 217.581 157.05 218.763 156.754 221.866C156.532 224.156 156.237 226.299 156.015 226.668C155.867 226.964 154.242 227.186 149.07 227.186L149.292 223.344Z" fill="#464646"/>
<path d="M161.113 224.23C161.039 223.639 160.818 221.866 160.596 220.388C160.227 218.024 160.374 217.581 161.409 217.581C162.148 217.581 164.143 218.172 165.916 218.91C169.019 220.167 169.093 220.24 169.019 227.186H165.694C163.847 227.186 162.148 226.816 161.852 226.299C161.557 225.782 161.261 224.821 161.113 224.23Z" fill="#464646"/>
<path d="M136.879 226.077C137.914 225.043 140.499 223.417 142.642 222.383C144.711 221.349 146.706 220.536 147.075 220.536C147.371 220.536 147.814 221.053 148.036 221.644C148.331 222.235 148.331 223.861 148.11 225.191C147.814 226.89 147.001 227.851 145.45 228.663C143.824 229.476 143.085 230.436 142.79 232.21C142.42 234.5 142.347 234.574 135.032 234.574V231.249C135.032 228.663 135.475 227.481 136.879 226.077Z" fill="#464646"/>
<path d="M172.344 229.033C169.906 227.703 169.684 227.333 169.832 224.304L169.979 221.127L172.639 221.644C174.117 221.94 176.334 222.679 177.516 223.27C178.698 223.935 180.323 224.969 180.988 225.634C181.727 226.299 182.097 227.038 181.949 227.407C181.727 227.703 181.875 228.072 182.318 228.294C182.761 228.515 183.057 230.141 183.057 235.313H180.102C178.476 235.313 176.629 235.165 176.038 234.943C175.373 234.722 174.93 233.687 174.93 232.579C174.93 230.954 174.339 230.141 172.344 229.033Z" fill="#464646"/>
<path d="M148.922 236.495C148.848 235.165 149.07 233.835 149.44 233.54C149.735 233.244 151.508 233.022 156.459 233.022V238.933H152.764C149.07 238.933 149.07 238.933 148.922 236.495Z" fill="#464646"/>
<path d="M161.63 238.933V235.978V233.022H169.019V238.933H161.63Z" fill="#464646"/>
<path d="M66.1717 175.614C66.0978 174.063 66.3934 172.511 66.6889 172.215C67.0583 171.92 68.0188 171.772 68.9055 171.92C70.0876 172.068 70.3832 172.733 70.6048 175.319C70.7526 178.348 70.6787 178.422 68.536 178.422C66.4673 178.422 66.3195 178.2 66.1717 175.614Z" fill="#FEFEFE"/>
<path d="M246.967 178.791C246.081 179.087 245.859 178.496 245.859 175.836C245.859 172.659 245.933 172.511 248.076 172.511C250.144 172.511 250.292 172.659 250.292 175.466C250.292 177.609 249.997 178.422 249.184 178.422C248.593 178.422 247.558 178.57 246.967 178.791Z" fill="#FEFEFE"/>
<path d="M149.661 223.491C149.587 221.57 149.957 221.053 152.1 220.167C153.503 219.575 154.833 219.132 155.203 219.058C155.498 219.058 155.72 219.797 155.72 220.758C155.72 221.644 155.572 223.122 155.35 224.082C155.055 225.412 154.464 225.708 152.395 225.708C150.031 225.708 149.809 225.486 149.661 223.491Z" fill="#FEFEFE"/>
<path d="M162.813 225.191C162.665 224.821 162.369 223.344 162.074 221.866C161.778 220.314 161.705 219.058 161.926 219.058C162.222 219.058 163.552 219.575 164.955 220.167C167.098 221.053 167.541 221.644 167.541 223.491C167.541 225.486 167.32 225.708 165.325 225.708C164.143 225.708 162.961 225.486 162.813 225.191Z" fill="#FEFEFE"/>
<path d="M137.618 226.742L141.312 224.747C143.381 223.713 145.376 222.826 145.893 222.753C146.41 222.753 146.706 223.639 146.632 224.747C146.558 226.151 145.893 226.964 144.637 227.481C143.455 227.924 141.83 227.924 137.618 226.742Z" fill="#FEFEFE"/>
<path d="M173.083 227.777C171.753 227.112 171.236 226.225 171.236 224.821C171.236 223.639 171.531 222.753 171.974 222.753C172.418 222.753 174.191 223.417 176.038 224.23C177.885 225.043 179.511 226.003 179.732 226.447C179.954 226.89 178.92 227.481 177.516 227.924C175.669 228.442 174.413 228.442 173.083 227.777Z" fill="#FEFEFE"/>
<path d="M138.726 233.835C136.879 233.835 136.51 233.54 136.51 231.988C136.51 230.732 136.953 230.141 137.84 230.141C138.505 230.141 139.761 230.51 140.5 231.028C141.238 231.545 141.682 232.431 141.46 232.949C141.165 233.392 139.909 233.835 138.726 233.835Z" fill="#FEFEFE"/>
<path d="M176.629 232.579C176.481 232.062 177.146 231.323 178.107 230.954C178.994 230.51 180.176 230.215 180.693 230.215C181.136 230.141 181.579 230.954 181.579 231.988C181.579 233.614 181.284 233.835 179.215 233.687C177.959 233.54 176.777 233.022 176.629 232.579Z" fill="#FEFEFE"/>
<path d="M153.134 238.268C150.843 238.268 150.548 238.047 150.548 236.421C150.548 234.796 150.843 234.574 153.134 234.574C155.424 234.574 155.72 234.796 155.72 236.421C155.72 238.047 155.424 238.268 153.134 238.268Z" fill="#FEFEFE"/>
<path d="M165.547 238.12C163.404 238.268 163.108 238.047 163.108 236.421C163.108 234.796 163.404 234.574 165.694 234.574C167.911 234.574 168.28 234.796 168.132 236.273C167.985 237.529 167.394 237.973 165.547 238.12Z" fill="#FEFEFE"/>
</g>
<defs>
<filter id="filter0_d_2115_1048" x="0" y="0" width="325.307" height="897.322" filterUnits="userSpaceOnUse" color-interpolation-filters="sRGB">
<feFlood flood-opacity="0" result="BackgroundImageFix"/>
<feColorMatrix in="SourceAlpha" type="matrix" values="0 0 0 0 0 0 0 0 0 0 0 0 0 0 0 0 0 0 127 0" result="hardAlpha"/>
<feOffset dy="4"/>
<feGaussianBlur stdDeviation="2"/>
<feComposite in2="hardAlpha" operator="out"/>
<feColorMatrix type="matrix" values="0 0 0 0 0 0 0 0 0 0 0 0 0 0 0 0 0 0 0.25 0"/>
<feBlend mode="normal" in2="BackgroundImageFix" result="effect1_dropShadow_2115_1048"/>
<feBlend mode="normal" in="SourceGraphic" in2="effect1_dropShadow_2115_1048" result="shape"/>
</filter>
<linearGradient id="paint0_linear_2115_1048" x1="87.8236" y1="572.016" x2="87.8236" y2="889.322" gradientUnits="userSpaceOnUse">
<stop stop-color="#9B479D"/>
<stop offset="1" stop-opacity="0"/>
</linearGradient>
<linearGradient id="paint1_linear_2115_1048" x1="237.483" y1="572.016" x2="237.483" y2="889.322" gradientUnits="userSpaceOnUse">
<stop stop-color="#9B479D"/>
<stop offset="1" stop-opacity="0"/>
</linearGradient>
</defs>
</svg>
