<svg width="18" height="18" viewBox="0 0 18 18" fill="none" xmlns="http://www.w3.org/2000/svg">
<g clip-path="url(#clip0_2115_1344)">
<path d="M17.5366 2.23341C17.5228 2.17014 17.4925 2.11167 17.4488 2.06395C17.405 2.01623 17.3493 1.98098 17.2875 1.9618C17.0624 1.9174 16.8295 1.93405 16.613 2.01001C16.613 2.01001 1.59322 7.40841 0.735541 8.00626C0.550184 8.13484 0.488577 8.2093 0.458041 8.29769C0.309648 8.72305 0.771434 8.91055 0.771434 8.91055L4.64251 10.1722C4.70789 10.1835 4.77501 10.1794 4.83858 10.1604C5.71929 9.6043 13.6988 4.56537 14.16 4.39609C14.2323 4.37412 14.2859 4.39609 14.2741 4.44966C14.0855 5.09573 7.19465 11.2195 7.15661 11.257C7.13812 11.2721 7.12359 11.2916 7.11426 11.3136C7.10493 11.3356 7.10108 11.3596 7.10304 11.3834L6.74304 15.1607C6.74304 15.1607 6.59197 16.3393 7.7684 15.1607C8.60251 14.3255 9.40286 13.6345 9.80411 13.2986C11.1354 14.2173 12.5679 15.2336 13.1855 15.7629C13.2892 15.8635 13.412 15.9423 13.5468 15.9944C13.6816 16.0465 13.8254 16.0709 13.9698 16.0661C14.5591 16.0436 14.7198 15.3991 14.7198 15.3991C14.7198 15.3991 17.4563 4.38751 17.5484 2.91162C17.557 2.76698 17.5693 2.6743 17.5704 2.57519C17.5752 2.46024 17.5639 2.34518 17.5366 2.23341Z" fill="#0677FD"/>
</g>
<defs>
<clipPath id="clip0_2115_1344">
<rect width="17.1429" height="17.1429" fill="white" transform="translate(0.428589 0.428467)"/>
</clipPath>
</defs>
</svg>
