<svg width="123" height="186" viewBox="0 0 123 186" fill="none" xmlns="http://www.w3.org/2000/svg">
<path d="M60.386 184.358C51.4301 184.358 42.9718 182.617 35.0111 179.134C27.0503 175.651 20.1261 170.717 14.2385 164.332C8.43376 157.947 4.24607 150.401 1.67542 141.694L30.6575 133.857C32.7306 140.989 36.5037 146.503 41.9767 150.401C47.5326 154.215 53.6276 156.081 60.2616 155.998C66.1492 155.998 71.4149 154.63 76.0587 151.893C80.7024 149.157 84.3511 145.467 87.0047 140.823C89.6583 136.096 90.9851 130.831 90.9851 125.026C90.9851 116.153 88.1242 108.731 82.4024 102.761C76.6806 96.7901 69.3003 93.8048 60.2616 93.8048C57.5251 93.8048 54.83 94.178 52.1764 94.9243C49.6058 95.6706 47.118 96.7072 44.7132 98.034L31.0307 74.4005L91.2339 22.9044L93.846 30.1188H8.64107V1.88306H118.475V30.2432L70.0881 76.7639L69.8393 67.9324C80.7025 68.6787 89.9485 71.7055 97.5776 77.0126C105.29 82.3198 111.177 89.1611 115.24 97.5365C119.387 105.912 121.46 115.075 121.46 125.026C121.46 136.304 118.682 146.42 113.126 155.376C107.653 164.332 100.273 171.422 90.9851 176.646C81.7805 181.788 71.5808 184.358 60.386 184.358Z" fill="url(#paint0_linear_2115_1097)" fill-opacity="0.05"/>
<path d="M2.15821 141.563L30.6575 133.857C32.7306 140.989 36.5037 146.503 41.9767 150.401C47.5326 154.215 53.6276 156.081 60.2616 155.998C66.1492 155.998 71.4149 154.63 76.0587 151.893C80.7024 149.157 84.3511 145.467 87.0047 140.823C89.6583 136.096 90.9851 130.831 90.9851 125.026C90.9851 116.153 88.1242 108.731 82.4024 102.761C76.6806 96.7901 69.3003 93.8048 60.2616 93.8048C57.5251 93.8048 54.83 94.178 52.1764 94.9243C49.6058 95.6706 47.118 96.7072 44.7132 98.034L2.15821 141.563ZM2.15821 141.563C2.15712 141.56 2.15604 141.556 2.15495 141.552L1.67542 141.694L1.80592 142.176L1.81887 142.173C4.40064 150.678 8.5405 158.064 14.2385 164.332C20.1261 170.717 27.0503 175.651 35.0111 179.134C42.9718 182.617 51.4301 184.358 60.386 184.358C71.5808 184.358 81.7805 181.788 90.9851 176.646C100.273 171.422 107.653 164.332 113.126 155.376L2.15821 141.563ZM13.8685 164.668L13.8709 164.671C19.8054 171.107 26.7866 176.082 34.8106 179.592C42.8366 183.104 51.3633 184.858 60.386 184.858C71.6607 184.858 81.9451 182.268 91.2289 177.083L91.2302 177.082C100.591 171.817 108.034 164.667 113.552 155.638C119.16 146.598 121.96 136.389 121.96 125.026C121.96 115.004 119.871 105.765 115.689 97.3161C111.588 88.8638 105.644 81.957 97.8623 76.6016C92.4365 72.8273 86.2088 70.199 79.1863 68.7101L118.821 30.6037L118.975 30.4561V30.2432V1.88306V1.38306H118.475H8.64107H8.14107V1.88306V30.1188V30.6188H8.64107H81.4458L30.7057 74.0206L30.3895 74.291L30.598 74.651L44.2805 98.2845L44.5259 98.7084L44.9548 98.4718C47.3274 97.1627 49.7803 96.1408 52.3138 95.4051C54.923 94.6714 57.5719 94.3048 60.2616 94.3048C69.1781 94.3048 76.4232 97.2442 82.0414 103.107C87.6671 108.977 90.4851 116.272 90.4851 125.026C90.4851 130.75 89.1777 135.93 86.57 140.576C83.9599 145.143 80.3739 148.77 75.8048 151.463C71.245 154.15 66.0684 155.498 60.2616 155.498L60.2553 155.498C53.7277 155.58 47.7347 153.747 42.2634 149.991C36.8936 146.166 33.1824 140.752 31.1376 133.718L31.0007 133.247L30.527 133.375L1.54491 141.211L1.051 141.345L1.19588 141.835C3.78676 150.611 8.0104 158.225 13.8685 164.668Z" stroke="url(#paint1_linear_2115_1097)" stroke-opacity="0.5"/>
<defs>
<linearGradient id="paint0_linear_2115_1097" x1="61.5676" y1="1.88306" x2="61.5676" y2="184.358" gradientUnits="userSpaceOnUse">
<stop stop-color="white"/>
<stop offset="1" stop-color="#999999" stop-opacity="0"/>
</linearGradient>
<linearGradient id="paint1_linear_2115_1097" x1="61.5676" y1="1.88306" x2="61.5676" y2="184.358" gradientUnits="userSpaceOnUse">
<stop stop-color="white"/>
<stop offset="1" stop-color="#999999" stop-opacity="0"/>
</linearGradient>
</defs>
</svg>
