<svg width="17" height="18" viewBox="0 0 17 18" fill="none" xmlns="http://www.w3.org/2000/svg">
<path d="M14.253 3.9105C14.1333 3.84869 14.0169 3.78092 13.9041 3.70746C13.576 3.49055 13.2752 3.23498 13.0081 2.94623C12.3399 2.18168 12.0904 1.40605 11.9984 0.863006H12.0021C11.9253 0.41225 11.9571 0.120605 11.9619 0.120605H8.91845V11.889C8.91845 12.047 8.91845 12.2032 8.9118 12.3575C8.9118 12.3767 8.90996 12.3944 8.90885 12.4151C8.90885 12.4236 8.90885 12.4324 8.90701 12.4413C8.90701 12.4435 8.90701 12.4457 8.90701 12.4479C8.87492 12.8702 8.73957 13.2781 8.51285 13.6357C8.28612 13.9934 7.97498 14.2898 7.60679 14.499C7.22305 14.7173 6.78904 14.8319 6.34755 14.8313C4.92957 14.8313 3.78034 13.675 3.78034 12.2471C3.78034 10.8191 4.92957 9.6629 6.34755 9.6629C6.61597 9.66266 6.88273 9.70489 7.13794 9.78805L7.14164 6.68924C6.36688 6.58917 5.5798 6.65074 4.83003 6.87008C4.08027 7.08941 3.38409 7.46176 2.78543 7.96362C2.26087 8.41939 1.81986 8.96322 1.48226 9.57061C1.35379 9.79211 0.869072 10.6822 0.810374 12.1267C0.773457 12.9467 1.01969 13.7961 1.13709 14.1472V14.1546C1.21092 14.3613 1.49703 15.0668 1.96329 15.6615C2.33927 16.1386 2.78347 16.5577 3.2816 16.9053V16.8979L3.28898 16.9053C4.76234 17.9065 6.39591 17.8408 6.39591 17.8408C6.6787 17.8293 7.62599 17.8408 8.70175 17.3309C9.8949 16.7657 10.5742 15.9237 10.5742 15.9237C11.0081 15.4205 11.3532 14.8471 11.5946 14.2281C11.87 13.5041 11.9619 12.6358 11.9619 12.2888V6.04541C11.9988 6.06756 12.4905 6.3928 12.4905 6.3928C12.4905 6.3928 13.199 6.84688 14.3043 7.14258C15.0972 7.35301 16.1656 7.39731 16.1656 7.39731V4.37602C15.7913 4.41663 15.0312 4.2985 14.253 3.9105Z" fill="#0677FD"/>
</svg>
