<svg width="18" height="18" viewBox="0 0 18 18" fill="none" xmlns="http://www.w3.org/2000/svg">
<g clip-path="url(#clip0_2115_1340)">
<path d="M17.5713 3.6966C16.9284 3.96446 16.2856 4.17875 15.5356 4.23232C16.2856 3.80375 16.8213 3.10732 17.0892 2.30375C16.3927 2.73232 15.6427 3.00017 14.8392 3.16089C14.1963 2.46446 13.2856 2.03589 12.3213 2.03589C10.3927 2.03589 8.78559 3.58946 8.78559 5.5716C8.78559 5.83946 8.83916 6.10732 8.89274 6.37517C5.94631 6.21446 3.37488 4.8216 1.60702 2.67875C1.28559 3.21446 1.12488 3.80375 1.12488 4.4466C1.12488 5.67875 1.76774 6.75017 2.67845 7.39303C2.08916 7.39303 1.55345 7.23232 1.07131 6.96446V7.01803C1.07131 8.73232 2.30345 10.1252 3.91059 10.4466C3.58916 10.5002 3.32131 10.5537 2.99988 10.5537C2.78559 10.5537 2.57131 10.5537 2.35702 10.5002C2.78559 11.893 4.12488 12.9109 5.62488 12.9645C4.44631 13.9287 2.89274 14.4645 1.23202 14.4645C0.964164 14.4645 0.642735 14.4645 0.374878 14.4109C1.98202 15.3752 3.85702 15.9645 5.83916 15.9645C12.3213 15.9645 15.857 10.6073 15.857 5.9466C15.857 5.78589 15.857 5.62517 15.857 5.51803C16.4999 4.98232 17.0892 4.39303 17.5713 3.6966Z" fill="#0677FD"/>
</g>
<defs>
<clipPath id="clip0_2115_1340">
<rect width="17.1429" height="17.1429" fill="white" transform="translate(0.428589 0.428467)"/>
</clipPath>
</defs>
</svg>
