<svg width="126" height="185" viewBox="0 0 126 185" fill="none" xmlns="http://www.w3.org/2000/svg">
<path d="M1.34113 183.751V157.63L77.9633 89.3417C83.9339 84.0345 88.0801 79.0176 90.402 74.2909C92.7239 69.5642 93.8848 65.0033 93.8848 60.6083C93.8848 54.6378 92.5995 49.3306 90.0289 44.6868C87.4582 39.9601 83.8924 36.2285 79.3316 33.492C74.8537 30.7555 69.6709 29.3873 63.7833 29.3873C57.5639 29.3873 52.0494 30.8385 47.2398 33.7408C42.5131 36.5602 38.823 40.3333 36.1694 45.06C33.5158 49.7867 32.272 54.8866 32.4378 60.3596H1.5899C1.5899 48.4184 4.24348 38.0114 9.55065 29.1385C14.9407 20.2656 22.321 13.3828 31.6915 8.49031C41.1449 3.59776 52.0495 1.15149 64.4052 1.15149C75.8488 1.15149 86.1314 3.72215 95.2531 8.86346C104.375 13.9218 111.548 20.9704 116.772 30.0092C121.996 38.9651 124.608 49.2892 124.608 60.9815C124.608 69.5227 123.447 76.6957 121.126 82.5004C118.804 88.3051 115.321 93.6537 110.677 98.5463C106.116 103.439 100.436 108.87 93.6361 114.841L39.2791 162.979L36.5426 155.515H124.608V183.751H1.34113Z" fill="url(#paint0_linear_2115_1096)" fill-opacity="0.05"/>
<path d="M0.841125 183.751V184.251H1.34113H124.608H125.108V183.751V155.515V155.015H124.608H49.0253L93.966 115.217C93.9664 115.216 93.9668 115.216 93.9672 115.216C100.774 109.239 106.466 103.797 111.041 98.8895C115.724 93.955 119.243 88.5537 121.59 82.6861C123.942 76.805 125.108 69.5645 125.108 60.9815C125.108 49.2122 122.478 38.799 117.204 29.7573C111.935 20.6414 104.697 13.529 95.4971 8.42701C86.294 3.24019 75.9259 0.651489 64.4052 0.651489C51.9824 0.651489 40.9967 3.11145 31.4617 8.04625L31.4601 8.04708C22.0103 12.981 14.5616 19.9266 9.12331 28.8789L9.12155 28.8818C3.76119 37.8437 1.0899 48.3423 1.0899 60.3596V60.8596H1.5899H32.4378H32.9532L32.9376 60.3444C32.7745 54.9613 33.9968 49.9514 36.6054 45.3048C39.2155 40.6555 42.8431 36.9456 47.496 34.1702L47.4982 34.1689C52.2216 31.3185 57.6449 29.8873 63.7833 29.8873C69.5904 29.8873 74.6807 31.2358 79.0709 33.9187L79.0744 33.9208C83.5578 36.6108 87.0611 40.2765 89.5896 44.9257L89.5914 44.929C92.1161 49.4898 93.3848 54.7117 93.3848 60.6083C93.3848 64.9132 92.248 69.3989 89.9532 74.0704C87.6707 78.7169 83.5758 83.6838 77.6312 88.968L77.6307 88.9684L1.00845 157.257L0.841125 157.406V157.63V183.751Z" stroke="url(#paint1_linear_2115_1096)" stroke-opacity="0.5"/>
<defs>
<linearGradient id="paint0_linear_2115_1096" x1="62.9747" y1="1.15149" x2="62.9747" y2="183.751" gradientUnits="userSpaceOnUse">
<stop stop-color="white"/>
<stop offset="1" stop-color="#999999" stop-opacity="0"/>
</linearGradient>
<linearGradient id="paint1_linear_2115_1096" x1="62.9747" y1="1.15149" x2="62.9747" y2="183.751" gradientUnits="userSpaceOnUse">
<stop stop-color="white"/>
<stop offset="1" stop-color="#999999" stop-opacity="0"/>
</linearGradient>
</defs>
</svg>
